<?xml version="1.0" standalone="no"?>
<!DOCTYPE svg PUBLIC "-//W3C//DTD SVG 20010904//EN"
 "http://www.w3.org/TR/2001/REC-SVG-20010904/DTD/svg10.dtd">
<svg version="1.0" xmlns="http://www.w3.org/2000/svg"
 width="1280.000000pt" height="1920.000000pt" viewBox="0 0 1280.000000 1920.000000"
 preserveAspectRatio="xMidYMid meet">

<g transform="translate(0.000000,1920.000000) scale(0.100000,-0.100000)"
fill="#000000" stroke="none">
<path d="M0 19076 c0 -76 4 -127 10 -131 8 -5 7 -11 -1 -21 -9 -11 -9 -18 -1
-26 14 -14 32 -2 32 22 0 22 16 35 25 20 3 -5 23 -10 43 -10 l37 -1 -22 -18
c-18 -15 -23 -30 -23 -65 0 -44 1 -46 30 -46 20 0 30 -5 30 -15 0 -11 11 -15
40 -15 36 0 40 -2 40 -25 0 -21 5 -25 29 -25 16 0 32 6 35 13 5 10 7 10 12 0
3 -7 17 -13 30 -13 21 0 24 -4 24 -40 0 -36 3 -40 25 -40 13 0 28 -8 34 -17
14 -26 21 -12 26 51 2 31 7 61 10 66 3 6 26 10 51 10 33 0 44 4 44 16 0 12
-10 15 -47 13 -30 -2 -48 1 -51 9 -2 7 -10 12 -18 12 -10 0 -14 12 -14 40 0
38 1 40 33 40 25 0 35 -6 44 -27 7 -15 13 -33 13 -40 0 -8 12 -13 30 -13 24 0
33 6 40 26 11 28 28 28 44 -1 12 -21 37 -44 49 -45 17 0 5 40 -18 58 -14 11
-25 25 -25 31 0 6 -9 11 -20 11 -14 0 -20 7 -20 24 0 13 -2 30 -5 38 -6 14 33
44 43 33 4 -3 0 -10 -7 -14 -8 -5 -10 -14 -6 -22 11 -17 23 14 24 59 1 18 5
40 10 50 17 33 31 89 31 120 l0 32 -345 0 -345 0 0 -124z m397 -98 c-2 -13 -4
-3 -4 22 0 25 2 35 4 23 2 -13 2 -33 0 -45z m-292 12 c3 -5 -1 -10 -9 -10 -9
0 -16 5 -16 10 0 6 4 10 9 10 6 0 13 -4 16 -10z m300 -264 c8 -7 11 -16 8 -19
-5 -6 -33 17 -33 27 0 10 11 7 25 -8z"/>
<path d="M800 19184 c0 -8 5 -12 10 -9 6 3 10 10 10 16 0 5 -4 9 -10 9 -5 0
-10 -7 -10 -16z"/>
<path d="M5244 19165 c-8 -20 -22 -35 -32 -36 -10 0 -12 -3 -4 -6 19 -7 15
-19 -19 -52 -28 -28 -29 -31 -10 -31 27 0 27 -18 -1 -40 -13 -10 -34 -40 -48
-66 -14 -27 -40 -64 -57 -82 -23 -23 -33 -43 -33 -65 0 -27 -6 -35 -40 -50
-31 -14 -40 -24 -40 -43 0 -14 -4 -23 -9 -20 -11 7 -33 -18 -29 -34 2 -7 -10
-17 -27 -23 -37 -12 -66 -37 -59 -48 3 -5 10 -7 15 -4 5 4 9 2 9 -4 0 -5 -13
-12 -30 -16 -21 -5 -30 -13 -30 -26 0 -16 -7 -19 -40 -19 -40 0 -44 -5 -40
-43 1 -15 -3 -18 -22 -12 -13 4 -32 9 -43 11 -17 3 -17 2 3 -7 28 -15 30 -39
2 -32 -12 3 -20 0 -20 -7 0 -8 -9 -11 -27 -7 -29 5 -53 -12 -53 -39 0 -16 -1
-16 -19 0 -13 11 -27 15 -40 11 -23 -7 -27 -20 -11 -30 6 -3 10 -10 10 -16 0
-5 -4 -9 -10 -9 -5 0 -10 7 -10 15 0 8 -6 15 -14 15 -7 0 -19 -7 -26 -15 -7
-8 -19 -15 -26 -15 -8 0 -14 -7 -14 -15 0 -11 -11 -15 -40 -15 -22 0 -40 -4
-40 -8 0 -5 -18 -17 -40 -28 -22 -10 -40 -24 -40 -30 0 -7 -16 -15 -37 -19
-20 -3 -57 -17 -82 -30 -30 -15 -73 -26 -123 -30 -43 -4 -78 -11 -78 -16 0 -4
-18 -14 -40 -20 -22 -7 -40 -17 -40 -24 0 -13 -42 -35 -65 -35 -8 0 -15 -7
-15 -15 0 -8 -7 -15 -15 -15 -8 0 -15 -3 -15 -7 0 -5 -11 -13 -25 -20 -14 -6
-25 -7 -25 -2 0 15 -130 11 -146 -5 -9 -9 -15 -39 -16 -83 -1 -48 -3 -56 -5
-25 -4 39 -6 42 -34 42 -26 0 -29 -3 -29 -32 0 -53 -11 -78 -31 -78 -11 0 -22
7 -25 15 -7 17 -34 20 -34 4 0 -6 -11 -20 -25 -31 -33 -26 -32 -38 6 -38 24 0
30 -3 25 -16 -3 -9 -6 -27 -6 -40 0 -20 -5 -24 -30 -24 -28 0 -30 -2 -30 -40
0 -42 -9 -50 -30 -25 -7 8 -19 15 -26 15 -8 0 -14 -7 -14 -15 0 -8 -7 -15 -15
-15 -8 0 -15 -9 -15 -20 0 -11 -5 -20 -11 -20 -6 0 -13 9 -16 20 -4 15 -14 20
-37 20 -20 0 -35 7 -44 20 -7 11 -20 20 -28 20 -20 0 -36 19 -66 78 -12 24
-29 42 -38 42 -27 0 -80 30 -80 46 0 8 -8 14 -19 14 -10 0 -30 11 -45 25 -14
13 -42 27 -61 31 -19 3 -35 10 -35 15 0 5 -16 9 -36 9 -25 0 -44 8 -67 30 -18
16 -37 30 -44 30 -6 0 -18 3 -27 6 -12 5 -16 0 -16 -20 0 -25 -10 -33 -24 -19
-4 4 -27 6 -53 4 -30 -2 -49 2 -54 11 -7 10 -9 9 -9 -4 0 -11 -8 -18 -20 -18
-11 0 -20 6 -20 13 0 9 -13 14 -36 15 -20 1 -45 4 -55 7 -14 5 -19 1 -19 -11
0 -15 -8 -16 -70 -10 -75 8 -123 0 -99 -15 9 -5 0 -10 -29 -15 -23 -4 -42 -11
-42 -16 0 -6 -20 -8 -45 -6 -41 3 -46 1 -51 -19 -8 -28 -58 -32 -86 -6 -21 19
-67 24 -86 10 -9 -7 -17 -6 -24 1 -19 19 -28 14 -28 -13 0 -23 -3 -25 -42 -24
-31 2 -35 3 -15 6 16 3 27 9 25 15 -6 16 -48 30 -48 16 0 -7 -5 -6 -15 2 -18
15 -45 6 -45 -15 0 -8 -4 -15 -10 -15 -5 0 -10 5 -10 11 0 6 -11 20 -25 31
-32 25 -32 38 0 38 16 0 25 -6 25 -15 0 -8 5 -15 11 -15 6 0 9 9 6 20 -8 32
14 90 34 90 9 0 20 -6 22 -12 3 -7 6 4 6 24 1 20 6 40 11 43 23 14 7 25 -40
25 -27 0 -50 -4 -50 -10 0 -5 -18 -10 -41 -10 -32 0 -47 -6 -71 -30 -16 -16
-34 -30 -39 -30 -5 0 -9 -4 -9 -10 0 -15 -77 -12 -83 3 -4 9 -8 9 -23 -1 -11
-6 -26 -15 -34 -18 -8 -3 -23 -10 -34 -16 -22 -11 -36 0 -39 29 -2 29 -27 17
-27 -13 0 -21 -4 -24 -40 -24 -37 0 -40 -2 -40 -29 0 -27 -3 -29 -45 -33 -31
-2 -46 1 -50 10 -8 21 -7 22 20 22 23 0 25 4 25 40 0 29 -4 40 -15 40 -9 0
-15 -9 -15 -24 l0 -25 -40 17 c-22 9 -40 23 -40 29 0 18 -48 27 -65 13 -12
-10 -15 -9 -15 4 0 9 -6 16 -12 16 -18 -1 -52 -31 -61 -52 -9 -25 -37 -23 -37
2 0 13 -7 20 -20 20 -20 0 -73 47 -97 86 -10 17 -12 15 -12 -18 -1 -45 -12
-48 -41 -11 l-21 27 27 14 c29 15 23 27 -18 37 -18 5 -28 3 -28 -4 0 -6 -17
-11 -40 -11 -27 0 -40 4 -40 14 0 8 -6 13 -12 12 -7 0 -14 2 -15 7 -2 4 -10
21 -18 37 -9 17 -13 40 -9 54 8 33 -5 74 -17 55 -7 -11 -9 -10 -9 4 0 10 -8
17 -20 17 -11 0 -20 5 -20 11 0 6 -7 8 -16 5 -25 -10 -77 22 -71 44 3 12 -2
20 -14 23 -14 4 -19 0 -19 -14 0 -13 -5 -17 -16 -12 -9 3 -14 13 -11 24 3 11
1 22 -5 25 -5 3 -13 17 -18 30 -8 21 -16 24 -60 24 l-50 0 0 -1683 0 -1684 37
-19 c21 -10 46 -27 57 -36 11 -10 26 -18 33 -18 7 0 13 -4 13 -10 0 -5 9 -10
20 -10 11 0 20 -4 20 -9 0 -5 13 -14 30 -21 16 -7 30 -16 30 -21 0 -5 7 -9 15
-9 8 0 15 -4 15 -10 0 -5 11 -12 25 -16 14 -3 25 -10 25 -15 0 -5 15 -15 32
-22 18 -8 39 -21 47 -30 7 -10 18 -17 23 -17 9 0 22 -9 84 -59 6 -5 25 -16 42
-25 18 -9 32 -20 32 -25 0 -5 21 -23 48 -40 26 -16 59 -42 74 -56 15 -14 31
-25 35 -25 4 0 22 -13 38 -28 17 -16 77 -66 135 -112 58 -47 114 -93 125 -103
11 -10 47 -39 80 -63 33 -25 67 -50 75 -57 9 -7 42 -32 75 -57 33 -25 76 -60
95 -79 19 -18 45 -37 57 -42 13 -5 23 -15 23 -23 0 -8 8 -17 19 -21 10 -3 31
-19 47 -36 16 -16 39 -34 52 -39 12 -5 22 -15 22 -23 0 -7 15 -21 33 -32 17
-10 54 -41 82 -67 27 -26 53 -48 57 -48 5 0 8 -6 8 -13 0 -8 18 -20 40 -27 22
-7 40 -19 40 -26 0 -6 11 -15 25 -18 14 -4 25 -11 25 -16 0 -5 12 -16 28 -24
15 -8 43 -30 62 -48 61 -59 149 -119 228 -157 24 -11 60 -33 80 -49 20 -15 51
-34 67 -42 17 -8 57 -31 90 -50 57 -34 170 -90 181 -90 3 0 10 -5 17 -10 61
-52 491 -328 658 -423 25 -14 96 -63 157 -109 61 -46 158 -114 214 -151 57
-37 121 -81 143 -98 49 -36 189 -109 210 -109 9 0 26 7 39 15 24 16 195 85
276 111 25 8 99 26 165 40 152 32 261 58 400 93 61 16 142 34 180 41 39 7 108
25 155 40 47 15 119 38 160 49 41 12 86 26 98 32 13 5 58 19 100 30 43 11 111
33 152 49 41 16 122 38 180 50 136 27 224 48 278 66 50 16 128 18 137 4 4 -6
9 -66 12 -133 3 -67 6 -135 7 -152 1 -16 -4 -37 -10 -45 -9 -11 -10 -38 -4
-100 19 -195 32 -464 26 -530 -3 -39 -17 -98 -31 -130 -14 -33 -25 -68 -25
-79 0 -11 -5 -21 -10 -23 -6 -2 -13 -28 -17 -58 -3 -30 -12 -63 -18 -73 -7
-10 -11 -26 -8 -35 4 -16 -15 -64 -55 -137 -13 -24 -16 -59 -15 -182 1 -94 -2
-153 -8 -153 -6 0 2 -12 18 -26 16 -14 35 -23 45 -21 10 3 21 1 24 -4 3 -5 -4
-9 -15 -9 -25 0 -32 -11 -21 -30 15 -24 126 -19 178 8 23 12 42 26 42 31 0 10
68 -3 111 -20 44 -17 75 -97 71 -187 -2 -81 -12 -106 -51 -139 -40 -34 -71
-28 -131 25 -14 12 -36 25 -50 28 -14 3 -52 16 -85 30 -60 24 -80 30 -145 41
-19 3 -48 12 -63 20 -17 8 -40 11 -60 8 -18 -4 -43 -2 -57 3 -14 4 -38 6 -53
3 -29 -6 -28 -7 84 -131 63 -69 124 -136 136 -150 13 -14 23 -28 23 -32 0 -12
51 -9 101 6 52 16 165 71 173 85 3 5 15 7 26 4 16 -4 18 -11 13 -32 -3 -14
-10 -27 -15 -29 -4 -2 -8 -12 -8 -22 0 -19 47 -35 53 -17 5 16 47 -3 47 -21 0
-10 9 -23 20 -30 11 -7 20 -21 20 -32 0 -11 5 -20 10 -20 6 0 10 -5 10 -11 0
-24 81 -83 129 -94 22 -5 31 -12 31 -27 0 -14 5 -18 16 -14 9 3 20 6 25 6 6 0
9 21 8 48 -3 61 9 112 26 112 7 0 15 8 17 18 10 37 148 19 148 -19 0 -8 11
-22 25 -29 13 -7 27 -21 31 -32 3 -10 12 -18 20 -18 25 0 62 -30 68 -54 5 -19
11 -22 31 -18 18 3 25 0 23 -9 -2 -7 7 -18 20 -24 12 -5 22 -15 22 -22 0 -7
11 -15 25 -19 14 -3 22 -10 19 -15 -3 -5 2 -12 11 -15 15 -6 40 -50 37 -66 -3
-12 42 -21 46 -9 6 19 22 12 22 -9 0 -11 5 -20 10 -20 6 0 30 -9 52 -20 23
-11 48 -20 55 -20 7 0 13 -7 13 -16 0 -10 6 -14 15 -10 8 3 15 2 15 -2 0 -8
50 -22 128 -37 23 -5 32 -12 32 -26 0 -10 7 -19 15 -19 9 0 15 -9 15 -25 0
-15 6 -25 15 -25 8 0 19 -9 25 -19 6 -12 26 -22 50 -26 l40 -7 0 -94 c0 -77 3
-94 15 -94 22 0 18 -16 -9 -33 -29 -19 -39 -52 -20 -68 10 -8 14 -39 14 -115
0 -103 0 -104 24 -104 13 0 27 -8 30 -17 6 -15 8 -15 16 -3 6 8 10 11 10 5 0
-5 18 -19 40 -29 38 -18 52 -36 29 -36 -8 0 -8 -5 1 -15 7 -8 18 -15 26 -15
30 0 65 -24 61 -42 -3 -10 -1 -15 5 -12 16 10 78 -29 78 -48 0 -14 5 -17 24
-12 14 3 33 1 43 -5 16 -9 14 -10 -10 -11 -27 0 -28 -2 -22 -33 9 -40 13 -47
29 -47 6 0 20 -23 30 -51 11 -28 29 -71 42 -96 13 -24 24 -60 24 -79 0 -18 4
-34 9 -34 6 0 18 -13 28 -30 9 -16 24 -30 31 -30 9 0 12 -6 8 -16 -11 -29 4
-64 28 -64 12 0 28 -6 35 -12 11 -10 14 -10 18 0 3 6 11 12 19 12 10 0 14 -12
14 -38 0 -31 5 -41 25 -52 14 -7 25 -17 25 -22 0 -4 18 -8 40 -8 22 0 40 4 40
8 0 11 61 32 92 32 14 0 28 -7 32 -15 13 -34 115 3 116 42 0 19 6 22 48 25
l47 3 8 45 c4 25 10 76 12 114 4 56 1 72 -14 93 -11 13 -23 38 -26 54 -4 17
-13 33 -21 36 -9 3 -14 20 -14 44 0 21 -4 39 -10 39 -5 0 -10 6 -10 14 0 8
-10 22 -21 30 -13 8 -19 21 -16 29 7 18 -13 87 -25 87 -4 0 -8 11 -8 25 0 18
-5 25 -20 25 -11 0 -23 7 -26 15 -8 20 -42 29 -59 15 -11 -9 -12 -7 -8 12 4
13 11 27 17 31 8 6 7 10 -1 14 -8 3 -13 24 -13 54 0 27 -4 49 -9 49 -18 0 -24
44 -22 147 2 76 -2 110 -13 132 -9 16 -13 37 -10 45 3 9 -5 25 -20 39 -31 29
-33 37 -5 37 11 0 17 5 14 10 -4 6 -10 8 -15 5 -22 -14 -19 20 4 44 31 32 35
88 8 117 -19 21 -95 64 -112 64 -12 0 -74 43 -102 71 -9 10 -20 29 -24 44 -5
20 -9 24 -16 13 -6 -8 -8 17 -5 71 3 46 10 87 15 90 5 3 19 24 30 46 27 51 51
80 80 94 31 17 202 3 202 -15 0 -19 16 -18 24 1 4 12 10 14 25 5 26 -13 33
-13 55 3 15 11 16 17 7 34 -8 16 -8 22 1 25 8 3 8 20 -2 66 -8 34 -18 62 -22
62 -4 0 -8 13 -8 29 0 16 -6 31 -12 33 -9 3 -8 11 4 30 16 24 16 27 -2 43 -10
9 -21 32 -25 52 -3 19 -27 63 -53 97 -26 33 -48 68 -50 76 -4 19 -103 150
-114 150 -4 0 -8 6 -8 13 0 6 -19 32 -42 56 -23 24 -55 65 -71 90 -16 25 -36
53 -43 61 -8 8 -58 67 -112 130 -91 107 -189 210 -199 210 -9 0 -63 59 -63 69
0 6 -5 11 -10 11 -7 0 -8 -13 -3 -37 4 -21 8 -81 8 -133 0 -87 -3 -100 -30
-149 -41 -75 -77 -99 -140 -95 -72 4 -126 14 -155 29 -30 16 -100 81 -100 93
0 45 154 211 196 212 12 0 24 7 28 15 5 14 -7 21 -29 15 -5 -2 -37 -4 -70 -6
-73 -3 -145 -34 -177 -74 -13 -17 -33 -42 -45 -56 -12 -15 -25 -35 -28 -45
-10 -30 -25 -11 -25 31 0 35 -3 39 -27 42 -22 2 -34 14 -55 53 -15 28 -30 68
-34 89 -4 25 -18 51 -40 73 -19 18 -34 40 -34 49 0 27 -38 91 -75 122 -41 37
-74 40 -125 13 -27 -15 -38 -16 -54 -7 -59 33 -86 63 -86 94 0 36 37 140 57
160 11 11 13 25 8 51 -18 96 -17 120 5 191 22 73 48 110 74 110 22 0 46 -11
46 -22 0 -5 18 -28 39 -51 22 -23 48 -51 58 -62 10 -11 52 -46 94 -78 73 -56
114 -100 232 -259 64 -86 113 -128 180 -157 26 -11 71 -36 102 -56 62 -40 75
-43 75 -17 0 9 7 30 15 46 8 15 15 33 15 38 0 15 27 38 45 38 10 0 26 -11 37
-25 16 -21 169 -105 191 -105 4 0 48 -19 96 -41 56 -26 94 -50 102 -65 7 -13
16 -24 21 -24 4 0 8 -5 8 -11 0 -6 10 -23 23 -38 12 -15 33 -43 47 -62 51 -70
137 -153 207 -201 40 -26 81 -61 90 -76 10 -15 38 -54 63 -87 26 -33 68 -94
94 -135 27 -41 78 -106 115 -145 37 -38 75 -81 83 -95 136 -220 234 -335 619
-721 199 -199 207 -204 329 -197 125 7 187 44 242 145 17 32 17 32 -18 85 -46
69 -207 222 -263 250 -40 19 -47 20 -70 7 -58 -32 -33 -128 59 -231 60 -67
130 -159 130 -170 0 -34 -190 47 -277 118 -24 20 -56 55 -71 78 -15 22 -30 42
-34 44 -5 2 -8 8 -8 14 0 5 -9 21 -20 35 -11 14 -20 29 -20 34 0 5 19 18 43
30 65 33 105 66 122 104 17 33 16 34 -24 102 -52 87 -168 231 -203 251 -41 24
-75 2 -84 -54 -8 -59 3 -100 45 -163 105 -157 119 -191 82 -191 -20 0 -93 28
-101 39 -3 3 -27 24 -55 46 -100 79 -215 208 -302 339 -89 134 -111 160 -220
275 -35 36 -63 72 -63 78 0 7 -4 13 -9 13 -5 0 -11 10 -15 23 -3 12 -17 34
-31 49 -14 15 -25 30 -25 33 0 3 -12 23 -27 44 -16 21 -35 49 -43 61 -69 101
-121 165 -183 225 -40 39 -110 111 -157 160 -88 92 -135 135 -150 135 -5 0
-10 4 -12 9 -1 4 -23 18 -48 30 -73 34 -145 83 -190 129 -23 23 -46 42 -51 42
-4 0 -27 18 -49 40 -22 22 -44 40 -48 40 -4 0 -30 20 -57 45 -68 62 -73 65
-85 65 -7 0 -20 10 -29 22 -17 20 -20 20 -47 6 -54 -28 -95 -38 -115 -27 -11
5 -19 14 -19 19 0 15 -26 12 -39 -3 -10 -13 -6 -56 15 -154 8 -42 -16 -46 -37
-5 -19 37 -116 169 -131 178 -7 4 -25 7 -41 6 -24 -2 -39 8 -83 55 -83 89
-107 147 -114 273 l-5 105 -40 -2 c-22 -1 -51 -3 -65 -5 -38 -6 -41 0 -18 40
11 20 22 44 22 52 3 20 28 73 40 81 5 4 6 11 4 15 -3 5 1 54 8 108 10 67 11
103 4 110 -5 5 -10 18 -10 28 0 23 -28 23 -49 0 -9 -10 -36 -26 -60 -36 -25
-9 -57 -26 -72 -37 -23 -16 -28 -17 -39 -5 -16 20 -30 124 -30 230 0 48 -7
114 -15 145 -9 34 -16 129 -20 241 -3 102 -7 230 -10 284 -4 74 -2 102 7 108
10 6 10 8 1 8 -9 0 -12 22 -11 76 1 41 -3 79 -8 82 -6 4 -17 32 -25 62 -8 30
-19 55 -26 55 -6 0 -15 3 -19 8 -4 4 -2 7 4 7 19 0 14 24 -13 71 -14 24 -25
55 -25 67 0 16 -7 26 -21 29 -12 4 -18 11 -15 20 4 8 -3 26 -14 40 -14 18 -20
41 -20 74 0 30 -8 62 -20 84 -11 20 -20 45 -20 56 0 11 -7 27 -16 36 -8 9 -13
22 -10 30 3 8 -1 28 -10 45 -8 16 -13 32 -11 35 6 5 -13 76 -22 83 -9 7 -32
91 -32 117 0 12 -4 25 -9 28 -6 4 -8 11 -5 16 4 5 -1 12 -9 15 -11 4 -14 14
-10 30 4 17 2 24 -9 24 -11 0 -16 20 -22 85 -4 47 -10 85 -14 85 -6 0 -29 141
-35 223 -2 15 -8 33 -14 39 -7 7 -12 41 -12 79 0 59 -2 67 -21 72 -17 5 -19 9
-10 26 7 13 8 22 1 26 -15 10 -12 96 6 149 10 29 14 63 11 87 -4 31 -1 41 13
49 20 11 34 50 18 50 -6 0 -3 9 7 20 13 14 15 24 8 31 -7 7 -4 22 8 47 11 20
19 42 19 49 0 7 5 13 10 13 6 0 10 8 10 17 0 9 7 24 16 34 9 10 23 49 30 86 8
37 19 72 24 77 6 6 10 32 10 58 0 41 3 48 20 48 15 0 21 9 26 40 5 28 12 40
23 40 9 0 29 19 44 43 15 23 36 50 47 60 11 9 20 26 20 38 0 12 9 38 19 58 11
20 22 44 25 54 3 11 15 21 26 24 25 7 26 30 3 36 -17 4 -17 5 0 6 15 1 17 12
17 81 0 43 5 91 12 105 10 23 10 28 -6 37 -15 8 -16 12 -5 19 11 6 11 9 -1 13
-8 2 -23 6 -32 9 -10 4 -25 34 -39 79 -28 90 -30 92 -79 107 -51 15 -120 -2
-120 -31 0 -10 5 -18 12 -18 9 0 9 -3 0 -12 -7 -7 -12 -25 -12 -40 0 -15 -5
-28 -11 -28 -6 0 -9 -5 -7 -12 3 -7 -10 -32 -29 -56 -20 -26 -33 -55 -33 -73
0 -22 -5 -29 -20 -29 -22 0 -27 -15 -9 -26 8 -4 3 -12 -12 -20 -13 -7 -21 -13
-17 -14 12 0 -13 -60 -25 -60 -7 0 -23 -12 -36 -26 -13 -14 -36 -31 -51 -39
-15 -8 -30 -21 -33 -30 -4 -8 -13 -15 -20 -15 -7 0 -20 -11 -27 -25 -11 -20
-16 -22 -28 -13 -11 10 -17 9 -27 -6 -12 -15 -18 -16 -53 -5 -44 13 -58 42
-41 87 5 14 7 33 4 42 -3 10 -2 21 3 24 6 3 10 35 11 71 1 51 -2 65 -14 65 -8
0 -15 9 -15 20 0 11 -4 20 -9 20 -5 0 -7 33 -5 78 7 109 11 122 35 122 16 0
19 4 14 23 -4 12 -11 26 -16 32 -13 14 -11 25 6 25 11 0 15 11 15 40 0 29 -4
40 -15 40 -8 0 -15 -7 -15 -17 0 -9 -3 -13 -7 -10 -4 4 -6 30 -4 57 1 33 -2
50 -10 50 -8 0 -10 52 -4 208 5 145 3 216 -4 236 -9 21 -9 31 -1 36 7 5 1 16
-18 32 -27 23 -29 28 -24 76 2 29 8 52 13 52 5 0 9 36 9 80 0 64 -3 80 -15 80
-18 0 -19 12 -4 27 8 8 8 13 0 17 -6 4 -11 2 -11 -4 0 -6 -4 -8 -10 -5 -5 3
-10 33 -10 65 l0 59 -32 4 c-29 3 -27 4 10 5 35 2 42 5 42 23 0 16 -4 19 -22
13 l-21 -6 21 36 c27 46 28 62 2 78 -14 9 -20 24 -20 50 l0 38 -351 0 -350 0
-15 -35z m776 -675 c0 -5 -4 -10 -10 -10 -5 0 -10 5 -10 10 0 6 5 10 10 10 6
0 10 -4 10 -10z m-5915 -80 c3 -5 -1 -10 -9 -10 -9 0 -16 5 -16 10 0 6 4 10 9
10 6 0 13 -4 16 -10z m149 -172 c16 -11 -6 -10 -23 1 -8 5 -10 14 -5 22 6 10
9 10 12 -1 3 -8 10 -18 16 -22z m136 -128 c0 -5 -7 -10 -16 -10 -8 0 -12 5 -9
10 3 6 10 10 16 10 5 0 9 -4 9 -10z m185 -100 c3 -5 1 -10 -4 -10 -6 0 -11 5
-11 10 0 6 2 10 4 10 3 0 8 -4 11 -10z m865 -140 c0 -47 -11 -63 -25 -40 -3 6
-17 10 -31 10 -13 0 -24 4 -24 9 0 5 -11 12 -25 15 -14 4 -25 11 -25 16 0 5
11 12 25 16 14 3 25 10 25 15 0 5 18 9 40 9 l40 0 0 -50z m-563 -22 c-3 -8 -6
-5 -6 6 -1 11 2 17 5 13 3 -3 4 -12 1 -19z m5203 -58 c0 -5 -8 -10 -17 -10
-15 0 -16 2 -3 10 19 12 20 12 20 0z m-2590 -45 c0 -8 -2 -15 -4 -15 -2 0 -6
7 -10 15 -3 8 -1 15 4 15 6 0 10 -7 10 -15z m2150 -2675 c0 -11 -1 -22 -2 -24
-2 -2 5 -13 15 -24 22 -24 15 -62 -11 -62 -31 0 -44 35 -31 85 12 46 29 61 29
25z m-46 -77 c-3 -90 -2 -89 -16 -75 -15 15 -11 109 5 127 6 8 12 14 12 15 0
0 0 -30 -1 -67z m41 -62 c7 -12 -12 -24 -25 -16 -11 7 -4 25 10 25 5 0 11 -4
15 -9z m-2268 -203 c-3 -7 -5 -2 -5 12 0 14 2 19 5 13 2 -7 2 -19 0 -25z m558
-15 c-6 -26 -5 -26 8 -10 8 9 24 17 36 17 11 0 21 6 22 13 0 10 2 10 6 0 2 -7
15 -13 28 -13 12 0 26 -7 29 -16 5 -12 13 -14 34 -9 40 10 51 25 19 25 -15 0
-27 5 -27 10 0 6 18 10 40 10 22 0 40 -4 40 -10 0 -5 4 -10 9 -10 5 0 22 -13
38 -28 15 -16 35 -32 43 -35 11 -5 12 -8 3 -13 -7 -3 -13 -12 -13 -20 0 -10
12 -14 40 -14 29 0 40 4 40 15 0 8 6 15 14 15 7 0 19 7 26 15 23 28 40 18 40
-25 l0 -40 -40 0 c-34 0 -40 -3 -40 -21 0 -20 4 -21 50 -17 l50 5 0 -38 c0
-22 -4 -39 -10 -39 -5 0 -10 -13 -10 -30 0 -28 2 -30 40 -30 22 0 40 -4 40
-10 0 -5 12 -10 26 -10 14 0 23 -4 19 -10 -3 -5 -15 -10 -26 -10 -14 0 -19 -7
-19 -27 0 -16 -9 -39 -20 -53 l-20 -25 -20 25 c-16 20 -20 22 -20 8 0 -22 -18
-24 -26 -3 -4 8 -17 15 -30 15 -19 0 -24 5 -24 26 0 45 -23 57 -103 55 -39 -1
-74 -4 -76 -7 -3 -3 0 -14 7 -24 7 -11 12 -21 12 -23 0 -5 -132 2 -147 8 -8 2
-13 -4 -13 -15 0 -11 -7 -20 -15 -20 -11 0 -15 -11 -15 -40 0 -34 -3 -40 -22
-41 -50 -3 -79 -16 -76 -36 2 -9 -12 -21 -37 -31 -22 -8 -44 -21 -48 -29 -11
-18 -27 -16 -27 4 0 14 -2 14 -20 -2 -19 -17 -21 -17 -40 0 -17 15 -20 16 -20
2 0 -12 -18 -16 -101 -19 -90 -3 -103 -5 -119 -25 -12 -15 -29 -23 -49 -23
-17 0 -31 -4 -31 -9 0 -5 -22 -20 -50 -32 -27 -12 -50 -26 -50 -31 0 -15 -53
-8 -66 10 -13 16 -13 16 -14 0 0 -16 -13 -18 -120 -18 -100 0 -120 3 -120 15
0 11 -11 15 -40 15 -36 0 -40 3 -40 25 0 20 -5 25 -25 25 -23 0 -25 4 -25 41
0 40 1 41 29 37 21 -3 28 -1 24 9 -4 9 6 13 37 13 33 0 41 -3 37 -14 -4 -10
-1 -13 8 -10 7 3 16 16 19 30 4 14 16 26 31 30 21 5 25 12 25 45 0 39 0 39
-40 39 -29 0 -40 -4 -40 -15 0 -8 -5 -15 -11 -15 -7 0 -9 10 -7 25 3 14 1 25
-3 25 -5 0 -6 7 -3 15 4 8 10 15 15 15 5 0 9 -7 9 -15 0 -20 15 -19 47 2 19
12 28 14 30 6 3 -9 12 -9 29 -2 14 5 42 9 61 9 20 0 45 7 55 17 17 15 18 15
18 -2 0 -14 3 -15 15 -5 20 17 19 40 -2 40 -15 0 -13 4 7 20 14 11 33 20 43
20 9 0 17 6 17 14 0 12 44 36 75 41 60 10 82 19 91 38 8 19 17 22 59 21 28 -1
42 1 33 3 -28 7 -21 17 22 35 28 11 40 13 44 5 3 -7 14 -1 30 16 14 15 30 27
36 27 5 0 10 6 10 13 0 8 22 19 54 26 30 7 60 19 66 27 16 18 40 18 40 -1 0
-8 6 -15 14 -15 7 0 19 7 26 15 7 8 19 15 26 15 8 0 14 5 14 10 0 6 2 10 5 10
3 0 3 -12 0 -27z m312 11 c-3 -3 -12 -4 -19 -1 -8 3 -5 6 6 6 11 1 17 -2 13
-5z m-1457 -394 c0 -5 10 -10 21 -10 18 0 20 -4 14 -27 -4 -16 -9 -47 -12 -70
-3 -27 -10 -43 -19 -43 -7 0 -25 -5 -39 -12 -20 -9 -25 -18 -25 -50 0 -27 -4
-38 -15 -38 -20 0 -19 -17 3 -30 16 -10 16 -10 0 -20 -22 -13 -23 -30 -3 -30
8 0 15 -4 15 -10 0 -5 -18 -10 -40 -10 -36 0 -40 3 -40 24 0 13 6 27 13 30 10
5 10 7 0 12 -7 3 -13 12 -13 19 0 7 -6 15 -12 18 -10 4 -10 7 0 18 10 11 12
10 12 -4 0 -9 7 -17 16 -17 12 0 14 10 12 52 -2 30 -8 53 -15 56 -7 2 -13 -3
-13 -12 0 -12 -10 -16 -40 -16 -22 0 -40 -4 -40 -10 0 -5 -18 -10 -40 -10 -33
0 -40 -3 -40 -20 0 -17 -7 -20 -40 -20 -22 0 -40 -5 -40 -11 0 -26 -24 1 -37
42 -12 42 -12 45 12 66 14 12 25 27 25 33 0 5 7 10 15 10 8 0 15 -5 15 -10 0
-6 -7 -13 -15 -16 -23 -9 -19 -54 5 -54 21 0 60 33 60 50 0 6 18 10 39 10 27
0 41 5 45 16 4 9 9 14 12 11 3 -3 17 1 32 9 24 12 27 12 30 -1 2 -8 14 -15 28
-15 13 0 24 -4 24 -10 0 -15 39 -32 60 -25 28 9 25 25 -4 25 -13 0 -26 7 -30
15 -3 8 -12 15 -20 15 -8 0 -17 4 -21 10 -10 16 19 50 42 50 13 0 23 5 23 10
0 6 9 10 20 10 11 0 20 -4 20 -10z m-940 -20 c0 -5 -7 -7 -15 -4 -8 4 -15 8
-15 10 0 2 7 4 15 4 8 0 15 -4 15 -10z m1060 6 c0 -3 -4 -8 -10 -11 -5 -3 -10
-1 -10 4 0 6 5 11 10 11 6 0 10 -2 10 -4z m-740 -116 l0 -40 40 0 c22 0 40 -4
40 -10 0 -5 -18 -10 -40 -10 -33 0 -40 -3 -40 -20 0 -17 7 -20 40 -20 22 0 40
-4 40 -10 0 -5 -7 -10 -15 -10 -11 0 -15 -11 -15 -40 0 -36 -3 -40 -24 -40
-18 0 -26 -7 -29 -22 l-4 -23 -8 23 c-5 15 -15 22 -32 22 -13 0 -34 9 -46 21
-21 20 -21 21 -3 34 10 8 15 19 11 25 -4 6 -3 44 0 85 l7 75 39 0 c39 0 39 0
39 -40z m-190 -50 c0 -5 -4 -10 -10 -10 -5 0 -10 5 -10 10 0 6 5 10 10 10 6 0
10 -4 10 -10z m70 -30 c0 -22 -4 -40 -10 -40 -5 0 -10 18 -10 40 0 22 5 40 10
40 6 0 10 -18 10 -40z m280 21 c0 -10 7 -21 15 -25 28 -10 17 -36 -15 -36 -31
0 -41 -16 -15 -26 24 -10 17 -22 -10 -17 -35 7 -42 22 -37 76 4 44 6 47 33 47
22 0 29 -5 29 -19z m-320 -25 c0 -2 -7 -9 -15 -16 -12 -10 -15 -10 -15 4 0 9
7 16 15 16 8 0 15 -2 15 -4z m1520 -26 c0 -5 -4 -10 -10 -10 -5 0 -10 5 -10
10 0 6 5 10 10 10 6 0 10 -4 10 -10z m-963 -16 c-3 -3 -12 -4 -19 -1 -8 3 -5
6 6 6 11 1 17 -2 13 -5z m3 -95 c0 -17 -4 -28 -10 -24 -5 3 -6 13 -3 21 3 9 0
20 -8 25 -11 7 -11 9 4 9 12 0 17 -8 17 -31z m-20 -49 c0 -5 -4 -10 -10 -10
-5 0 -10 5 -10 10 0 6 5 10 10 10 6 0 10 -4 10 -10z m4326 -1938 c-3 -2 -1
-14 5 -24 8 -14 8 -23 0 -31 -7 -7 -12 -1 -16 19 -4 16 -8 34 -10 41 -2 7 2
10 11 6 8 -3 13 -8 10 -11z m2999 -1315 c19 -32 35 -60 35 -63 0 -13 -30 0
-52 24 -32 34 -108 163 -108 183 0 20 83 -75 125 -144z m445 -417 c21 -18 29
-29 20 -30 -20 0 -80 37 -80 50 0 18 25 10 60 -20z m-1990 -986 c0 -3 -7 -12
-15 -20 -21 -21 -19 -54 3 -54 16 -1 16 -1 -1 -11 -21 -12 -67 -4 -67 12 0 6
7 17 15 25 8 9 15 24 15 35 0 14 7 19 25 19 14 0 25 -3 25 -6z m115 -94 c17
-19 17 -21 0 -40 -12 -13 -31 -20 -57 -20 -38 0 -38 0 -38 40 0 40 0 40 38 40
26 0 45 -7 57 -20z m100 -210 c3 -5 -1 -10 -9 -10 -9 0 -16 5 -16 10 0 6 4 10
9 10 6 0 13 -4 16 -10z"/>
<path d="M4000 14690 c0 -5 5 -10 11 -10 5 0 7 5 4 10 -3 6 -8 10 -11 10 -2 0
-4 -4 -4 -10z"/>
<path d="M4080 14380 c0 -19 3 -21 12 -12 9 9 9 15 0 24 -9 9 -12 7 -12 -12z"/>
<path d="M2480 14170 c0 -5 18 -10 40 -10 22 0 40 5 40 10 0 6 -18 10 -40 10
-22 0 -40 -4 -40 -10z"/>
<path d="M7317 19168 c3 -18 9 -37 13 -43 8 -11 17 -53 30 -140 14 -100 38
-185 51 -185 5 0 9 -8 9 -18 0 -10 5 -23 12 -30 9 -9 8 -13 -4 -17 -13 -5 -13
-12 -1 -58 7 -28 13 -70 13 -94 0 -23 5 -45 10 -48 6 -3 10 -25 10 -48 0 -23
6 -62 14 -87 35 -113 46 -161 52 -237 3 -46 9 -83 13 -83 4 0 7 -34 8 -77 1
-46 6 -79 14 -83 8 -5 9 -28 4 -78 -6 -59 -4 -77 14 -116 11 -25 16 -46 10
-46 -5 0 -9 -18 -9 -40 0 -22 5 -40 10 -40 6 0 10 -20 10 -45 0 -25 4 -53 9
-63 6 -9 12 -30 16 -45 3 -16 17 -40 30 -53 13 -13 27 -41 31 -62 4 -20 15
-54 25 -74 11 -21 19 -43 19 -51 0 -7 5 -18 12 -25 12 -12 35 -91 64 -222 8
-36 18 -74 23 -85 9 -20 31 -130 50 -255 32 -197 37 -237 60 -485 5 -60 15
-141 21 -180 6 -38 13 -92 16 -120 3 -27 9 -72 14 -100 16 -92 66 -631 74
-810 5 -109 10 -165 41 -425 38 -330 56 -458 70 -505 9 -27 24 -90 35 -138 19
-87 73 -206 94 -208 28 -3 51 5 107 37 34 19 62 34 64 34 2 0 41 17 87 39 45
21 101 44 123 50 22 7 49 16 60 21 36 14 308 91 410 115 33 8 85 22 115 30 30
9 88 25 127 35 118 30 498 158 569 191 48 22 124 25 162 5 29 -16 100 -87 174
-176 25 -30 67 -75 94 -100 170 -159 230 -227 269 -305 103 -205 137 -248 220
-276 80 -28 138 -109 204 -280 32 -86 55 -119 191 -272 125 -140 127 -140 80
1 -33 99 -38 153 -16 171 22 19 81 -13 123 -67 21 -27 62 -78 92 -113 29 -35
70 -84 90 -109 109 -134 196 -230 207 -230 39 0 21 -120 -24 -165 -27 -27 -52
-31 -84 -14 -16 9 -24 7 -41 -9 -12 -11 -49 -32 -82 -47 -32 -14 -72 -40 -87
-58 -27 -32 -68 -124 -68 -154 0 -8 -15 -47 -34 -87 -42 -90 -155 -335 -166
-361 -77 -178 -84 -219 -50 -283 27 -51 36 -61 105 -117 73 -59 258 -149 340
-164 33 -7 82 -16 108 -22 65 -12 158 -11 213 2 83 21 124 -24 124 -138 0 -89
42 -210 106 -306 122 -186 246 -257 449 -257 l85 0 0 -60 c0 -32 -6 -74 -14
-92 -52 -121 -118 -376 -112 -433 8 -75 75 -222 130 -283 11 -13 26 -35 32
-50 10 -21 13 149 13 804 l1 831 -25 11 c-38 18 -115 92 -115 112 0 10 7 21
16 24 10 4 13 13 9 26 -10 31 7 23 40 -20 17 -22 40 -46 53 -55 l22 -15 0 776
0 776 -25 -6 c-20 -5 -26 -2 -31 19 -3 14 -4 32 0 40 7 18 42 20 49 3 3 -7 6
1457 6 3255 l1 3267 -2745 0 -2744 0 6 -32z m5110 -6330 c-3 -8 -6 -5 -6 6 -1
11 2 17 5 13 3 -3 4 -12 1 -19z m-141 -58 c19 0 18 -24 -2 -41 -14 -11 -18
-10 -30 6 -19 26 -18 49 2 41 9 -3 22 -6 30 -6z m-372 -952 c3 -7 7 -27 10
-45 5 -29 2 -34 -30 -49 -31 -15 -40 -15 -76 -3 -49 16 -88 45 -88 66 0 12 7
14 29 10 19 -4 33 -1 41 8 19 22 108 32 114 13z m-360 -238 c22 -15 51 -31 64
-35 13 -4 27 -17 32 -30 17 -45 182 -104 350 -125 54 -6 119 -31 151 -58 16
-12 15 -49 0 -62 -4 -3 -22 -34 -40 -70 -79 -151 -93 -170 -123 -170 -10 0
-27 5 -38 12 -16 10 -23 9 -42 -8 -45 -40 -77 -55 -105 -48 -131 30 -335 117
-456 194 -86 55 -111 136 -54 180 13 10 34 40 48 67 13 26 26 50 30 53 3 3 13
28 23 55 33 92 73 103 160 45z m1171 -360 c3 -5 2 -10 -4 -10 -5 0 -13 5 -16
10 -3 6 -2 10 4 10 5 0 13 -4 16 -10z m-330 -150 c-3 -5 -11 -10 -16 -10 -6 0
-7 5 -4 10 3 6 11 10 16 10 6 0 7 -4 4 -10z m-125 -206 c0 -19 -28 -30 -42
-16 -7 7 -6 15 3 25 16 17 39 11 39 -9z m-15 -164 c7 0 18 -6 24 -14 16 -19
-32 -68 -63 -64 -17 2 -22 11 -24 45 -3 37 0 42 20 45 13 2 25 0 26 -4 2 -5 9
-8 17 -8z m157 -166 c10 -22 9 -32 -7 -62 -11 -20 -25 -37 -32 -40 -21 -6 -75
58 -69 82 3 11 6 24 6 28 0 6 29 13 73 17 10 0 22 -10 29 -25z"/>
<path d="M11735 11350 c3 -5 10 -10 16 -10 5 0 9 5 9 10 0 6 -7 10 -16 10 -8
0 -12 -4 -9 -10z"/>
<path d="M130 18680 c0 -29 4 -40 15 -40 8 0 15 -8 15 -17 1 -17 1 -17 14 0 7
9 21 17 30 17 20 0 20 4 0 46 -13 27 -22 34 -45 34 -27 0 -29 -3 -29 -40z"/>
<path d="M300 18711 c0 -6 5 -13 10 -16 6 -3 10 1 10 9 0 9 -4 16 -10 16 -5 0
-10 -4 -10 -9z"/>
<path d="M0 18680 c0 -5 5 -10 10 -10 6 0 10 5 10 10 0 6 -4 10 -10 10 -5 0
-10 -4 -10 -10z"/>
<path d="M0 18629 c0 -5 5 -7 10 -4 5 3 10 8 10 11 0 2 -4 4 -10 4 -5 0 -10
-5 -10 -11z"/>
<path d="M6065 18530 c-3 -5 -1 -10 4 -10 6 0 11 5 11 10 0 6 -2 10 -4 10 -3
0 -8 -4 -11 -10z"/>
<path d="M391 18304 c0 -11 3 -14 6 -6 3 7 2 16 -1 19 -3 4 -6 -2 -5 -13z"/>
<path d="M6082 18275 c0 -16 2 -22 5 -12 2 9 2 23 0 30 -3 6 -5 -1 -5 -18z"/>
<path d="M483 18200 c0 -25 2 -35 4 -22 2 12 2 32 0 45 -2 12 -4 2 -4 -23z"/>
<path d="M1760 18103 c0 -7 -21 -13 -52 -16 l-53 -3 53 -2 c40 -2 52 -6 52
-18 0 -9 5 -14 12 -12 18 6 20 22 3 43 -8 11 -15 15 -15 8z"/>
<path d="M808 18073 c7 -3 16 -2 19 1 4 3 -2 6 -13 5 -11 0 -14 -3 -6 -6z"/>
<path d="M1310 18010 c0 -5 7 -10 16 -10 8 0 12 5 9 10 -3 6 -10 10 -16 10 -5
0 -9 -4 -9 -10z"/>
<path d="M2495 17960 c-3 -5 -1 -10 4 -10 6 0 11 5 11 10 0 6 -2 10 -4 10 -3
0 -8 -4 -11 -10z"/>
<path d="M3186 17733 c-3 -3 -6 -14 -6 -24 0 -18 19 -29 51 -29 11 0 22 -7 25
-15 4 -8 10 -15 15 -15 5 0 9 7 9 15 0 8 -6 15 -13 15 -7 0 -18 9 -24 20 -15
22 -48 42 -57 33z"/>
<path d="M3200 17650 c0 -5 5 -10 11 -10 5 0 7 5 4 10 -3 6 -8 10 -11 10 -2 0
-4 -4 -4 -10z"/>
<path d="M7190 16220 c-15 -27 -2 -43 31 -38 18 2 24 9 24 28 0 34 -39 40 -55
10z"/>
<path d="M352 14401 c-8 -5 -12 -17 -10 -27 4 -22 35 -31 51 -15 16 16 -23 54
-41 42z"/>
<path d="M65 13731 c-3 -5 -1 -12 5 -16 5 -3 10 1 10 9 0 18 -6 21 -15 7z"/>
<path d="M7 13683 c-7 -6 -10 -2653 -4 -2653 2 0 39 13 84 29 44 17 114 37
154 47 41 9 101 26 134 39 33 12 98 32 145 44 94 25 229 69 245 81 12 10 137
46 225 67 94 21 188 12 245 -24 24 -15 44 -33 45 -39 0 -6 10 -19 23 -30 12
-11 31 -31 43 -46 11 -14 42 -37 69 -51 28 -14 42 -26 33 -27 -12 0 -15 -5
-11 -16 8 -21 51 -64 65 -64 6 0 31 -20 56 -45 24 -25 48 -45 53 -45 16 0 104
-83 126 -119 13 -20 23 -30 23 -23 0 19 36 -7 49 -35 6 -13 19 -23 30 -23 11
0 22 -8 26 -19 3 -10 22 -36 43 -58 20 -21 50 -57 66 -79 17 -21 36 -43 43
-47 7 -4 13 -15 13 -23 0 -8 11 -20 25 -26 14 -6 25 -17 25 -24 0 -11 24 -26
45 -28 6 -1 11 -10 13 -22 2 -12 22 -32 52 -49 43 -25 50 -33 50 -61 0 -17 9
-43 20 -57 16 -20 18 -30 10 -52 -14 -36 -13 -51 6 -69 14 -14 14 -18 1 -31
-9 -8 -14 -23 -12 -32 13 -67 16 -73 34 -73 12 0 22 -12 30 -40 6 -22 16 -40
21 -40 6 0 10 -18 10 -40 0 -24 -5 -40 -12 -40 -6 0 -2 -10 10 -23 12 -13 22
-31 22 -40 0 -9 5 -17 10 -17 6 0 10 7 10 16 0 13 3 14 15 4 8 -6 18 -9 23 -6
5 3 18 -3 29 -13 11 -10 29 -21 40 -25 11 -4 28 -15 37 -25 15 -17 15 -21 -9
-64 -14 -25 -32 -51 -40 -57 -17 -14 -20 -40 -5 -40 6 0 10 -7 10 -15 0 -8 7
-15 16 -15 11 0 14 -6 9 -22 -4 -13 -11 -27 -16 -33 -14 -15 -11 -105 4 -106
6 -1 2 -4 -11 -7 -13 -4 -23 -10 -23 -14 1 -5 1 -15 1 -23 0 -11 7 -13 28 -9
19 4 34 0 45 -10 8 -9 25 -16 36 -16 21 0 21 -1 6 -37 -12 -29 -13 -38 -3 -46
9 -6 6 -6 -7 -1 -26 9 -116 5 -130 -6 -6 -5 -16 -29 -24 -55 -16 -54 -46 -75
-83 -58 -15 6 -35 7 -56 1 -19 -5 -40 -7 -48 -4 -17 7 -17 5 -2 -31 13 -31 15
-41 26 -128 6 -51 10 -60 31 -65 26 -6 45 -41 28 -51 -5 -4 0 -10 12 -14 11
-3 21 -13 21 -21 0 -7 9 -19 20 -26 11 -7 20 -17 20 -21 0 -5 9 -21 19 -36 23
-32 61 -128 61 -153 0 -10 5 -18 10 -18 6 0 16 -12 22 -27 21 -49 49 -83 68
-83 13 0 20 -10 25 -39 4 -22 12 -42 20 -45 8 -3 15 -27 17 -63 3 -32 10 -71
16 -88 6 -16 16 -50 23 -75 7 -25 19 -52 26 -61 7 -8 13 -20 13 -26 0 -5 9
-18 19 -27 11 -10 17 -25 14 -37 -3 -10 -1 -19 5 -19 12 0 37 -68 28 -77 -3
-4 -1 -12 5 -19 6 -8 8 -21 5 -30 -5 -14 -9 -14 -22 -3 -8 7 -13 21 -11 31 3
10 1 18 -3 18 -5 0 -14 17 -21 38 -6 20 -15 39 -19 42 -17 13 -40 57 -40 77 0
13 -8 31 -17 41 -30 30 -50 75 -35 79 6 3 12 9 12 14 0 4 -7 6 -16 2 -10 -4
-20 0 -26 10 -13 25 -74 23 -88 -2 -16 -31 -12 -76 10 -101 11 -13 20 -29 20
-37 0 -16 18 -50 43 -77 9 -11 17 -23 17 -28 0 -22 76 -117 99 -123 19 -5 22
-8 11 -15 -11 -7 -12 -16 -1 -50 11 -38 15 -41 38 -35 24 6 25 5 19 -28 -8
-41 6 -82 39 -115 15 -15 25 -36 25 -53 0 -54 71 -68 120 -24 14 13 21 11 52
-10 24 -17 51 -25 77 -25 32 0 41 -4 41 -17 1 -16 2 -16 15 1 15 19 15 19 28
1 10 -13 16 -15 21 -6 4 6 12 9 17 6 5 -4 12 8 16 25 3 18 12 34 19 37 16 6
19 43 4 43 -5 0 -10 5 -10 10 0 6 7 10 15 10 8 0 14 -5 12 -11 -1 -6 4 -14 11
-16 7 -3 12 4 12 18 0 18 3 20 12 11 17 -17 47 -15 54 3 4 8 15 15 25 15 12 0
19 7 19 20 0 15 7 20 25 20 14 0 25 5 25 10 0 6 6 10 14 10 7 0 19 7 26 15 7
8 22 15 34 15 13 0 32 11 44 25 22 25 30 79 13 89 -5 3 -12 22 -15 41 -4 20
-14 39 -22 42 -15 6 -20 33 -5 33 12 0 78 -29 67 -30 -6 0 -5 -5 2 -12 7 -7
12 -21 12 -31 0 -10 9 -21 20 -24 11 -3 20 -11 20 -17 0 -6 27 -19 60 -28 65
-17 75 -13 82 32 2 19 8 24 26 23 23 -3 31 20 12 32 -5 3 -10 10 -10 16 0 5 5
9 10 9 6 0 10 -7 10 -16 0 -9 6 -14 13 -11 7 3 24 -1 38 -9 33 -18 94 -17 114
2 17 17 15 32 -15 99 -10 23 -22 53 -25 68 -4 15 -11 27 -16 27 -5 0 -9 17 -9
38 0 21 -6 47 -14 57 -13 19 -11 55 5 55 15 0 104 -83 112 -104 8 -21 8 -21
27 4 23 30 25 41 6 34 -10 -4 -15 9 -20 48 -9 70 -26 126 -43 139 -7 6 -13 20
-13 30 0 11 -4 19 -8 19 -5 0 -14 19 -19 43 -6 23 -18 60 -27 82 -8 22 -15 52
-16 67 0 15 -7 34 -16 42 -8 9 -11 16 -5 16 6 0 11 7 11 15 0 8 -4 15 -10 15
-17 0 9 50 40 77 22 18 30 34 30 56 0 25 3 29 10 17 9 -13 16 -9 41 20 26 31
29 40 23 76 -6 45 12 97 26 74 6 -9 17 -6 46 14 21 14 32 26 25 26 -11 0 -10
5 4 20 10 11 27 46 37 78 21 61 43 92 65 92 7 0 16 -7 19 -15 4 -8 15 -15 25
-15 10 0 19 -6 19 -14 0 -38 128 -41 138 -4 3 11 10 17 19 14 8 -3 12 -2 9 3
-3 5 1 11 9 15 9 3 15 18 15 36 0 16 5 30 10 30 7 0 7 6 1 18 -11 21 3 52 24
52 8 0 15 -4 15 -8 0 -5 19 -33 43 -64 23 -31 48 -64 55 -74 22 -33 174 -266
249 -381 58 -90 81 -117 119 -139 88 -51 224 -43 301 17 20 16 31 29 25 29
-12 0 -10 13 6 53 16 38 15 59 -3 83 -8 10 -15 26 -15 35 0 18 -126 211 -165
253 -25 27 -30 28 -88 23 -77 -7 -110 -23 -131 -62 -28 -53 -29 -81 -7 -145
27 -78 28 -97 2 -73 -35 33 -66 140 -51 178 10 26 -3 49 -56 101 -28 26 -47
55 -51 76 -8 42 -27 73 -78 124 -22 23 -51 63 -64 90 -13 27 -36 67 -51 89
-15 22 -30 47 -33 55 -4 8 -25 40 -47 70 -64 87 -120 172 -120 180 0 4 -7 21
-15 36 -8 16 -15 46 -15 67 0 39 -34 110 -75 157 -31 36 -95 145 -95 163 0 8
-13 52 -30 98 -16 46 -30 94 -30 107 0 20 -10 44 -49 112 -4 8 -28 57 -52 107
-24 51 -49 93 -55 93 -6 0 -17 14 -24 30 -14 34 -41 53 -62 45 -16 -6 -58 26
-58 44 0 20 -28 42 -55 45 -46 5 -75 75 -45 110 9 12 17 13 36 4 15 -7 28 -8
33 -2 12 13 -7 172 -26 208 -10 18 -17 64 -20 114 -2 46 -8 93 -14 103 -6 13
-6 19 1 19 25 0 6 18 -32 30 -24 7 -52 22 -64 32 -11 10 -28 18 -37 18 -9 0
-17 4 -17 9 0 4 -10 6 -22 4 -37 -7 -63 19 -60 61 2 25 -4 46 -18 64 -67 88
-91 125 -86 137 5 14 -33 55 -51 55 -6 0 -26 23 -44 51 -28 44 -34 49 -44 35
-7 -9 -19 -16 -28 -16 -10 0 -16 -12 -19 -35 -2 -19 -1 -35 3 -35 4 0 13 -17
19 -37 6 -21 16 -48 22 -60 6 -12 8 -31 5 -43 -3 -11 1 -33 8 -47 9 -18 11
-33 4 -50 -12 -31 -12 -30 11 -36 16 -4 18 -11 13 -40 -7 -46 20 -135 52 -169
25 -27 75 -39 75 -18 0 6 7 10 16 10 8 0 12 5 9 10 -3 6 6 15 22 21 21 8 29 7
32 -3 2 -7 22 -31 43 -53 37 -36 41 -47 59 -140 12 -62 17 -119 13 -150 -7
-61 -36 -165 -46 -165 -11 0 -10 -78 1 -99 6 -10 12 -28 14 -42 2 -13 20 -57
40 -98 20 -41 37 -80 37 -87 0 -8 9 -28 20 -46 11 -18 20 -43 20 -54 0 -12 7
-27 15 -34 8 -7 13 -16 10 -20 -3 -5 -1 -11 4 -14 16 -10 22 -117 12 -226 -5
-64 -5 -112 1 -123 5 -9 11 -178 13 -375 l4 -357 41 -115 c89 -246 111 -320
111 -384 1 -103 -29 -178 -82 -207 -16 -8 -25 -5 -49 17 l-29 28 20 25 c17 21
19 34 13 75 -3 28 -10 57 -15 66 -4 8 -15 38 -24 65 -21 68 -70 144 -101 155
-14 6 -39 10 -55 10 -60 0 -119 47 -119 95 0 17 -5 36 -12 43 -7 7 -11 28 -10
47 2 26 -1 35 -13 35 -9 0 -15 9 -15 25 0 14 5 25 10 25 6 0 10 5 10 10 0 6
-6 10 -12 10 -16 0 -52 84 -56 130 -1 19 -5 73 -8 120 -2 47 -9 95 -15 106 -8
15 -8 28 -1 40 6 11 8 33 6 49 -3 28 -3 28 5 5 l8 -25 11 27 c6 14 15 29 20
32 21 13 9 82 -21 124 -19 24 -37 -22 -32 -77 4 -40 1 -53 -10 -57 -24 -10
-46 15 -39 42 4 13 1 31 -6 39 -9 10 -9 52 -1 172 10 148 9 164 -11 255 l-22
97 27 49 c24 44 27 60 26 133 -2 108 -10 144 -32 143 -21 -2 -30 27 -22 67 6
28 10 30 35 26 30 -7 50 8 50 35 0 10 4 18 9 18 8 0 33 62 50 125 5 17 16 48
25 70 11 25 13 41 6 43 -5 2 -10 10 -10 19 0 9 -8 13 -22 11 -16 -2 -28 -18
-43 -57 -19 -47 -23 -51 -28 -30 -7 24 -7 24 -26 -7 -11 -18 -24 -35 -30 -38
-6 -4 -11 -18 -11 -31 0 -13 -5 -25 -11 -27 -6 -2 -11 -19 -12 -38 -2 -33 -31
-80 -49 -80 -4 0 -8 20 -8 43 0 24 -7 59 -16 77 -19 38 -44 158 -44 213 0 21
-6 50 -14 65 -7 15 -19 63 -25 106 -12 83 -40 176 -53 176 -5 0 -8 10 -8 23 0
12 -11 35 -25 51 -14 16 -25 34 -25 40 0 15 -62 66 -81 66 -9 0 -38 -22 -65
-50 -31 -31 -58 -50 -73 -50 -13 0 -44 17 -70 39 -25 21 -59 45 -76 54 -50 27
-141 137 -166 200 -6 15 -14 27 -19 27 -4 0 -10 8 -14 18 -21 62 -113 142
-163 142 -13 0 -23 4 -23 9 0 10 -69 45 -77 38 -2 -3 -17 7 -31 21 -26 26
-111 72 -133 72 -5 0 -22 11 -37 25 -15 14 -38 25 -51 25 -16 0 -40 18 -75 55
-28 30 -57 55 -63 55 -7 0 -13 7 -13 15 0 11 -11 15 -35 15 -20 0 -43 6 -51
13 -44 35 -74 65 -74 74 0 9 -69 39 -82 35 -3 -1 -9 12 -13 28 -7 31 -35 42
-35 14 0 -8 -5 -12 -10 -9 -6 3 -7 17 -4 31 4 14 2 24 -5 24 -6 0 -11 -9 -11
-20 0 -27 -23 -25 -35 2 -6 13 -19 27 -30 33 -11 5 -19 17 -17 25 1 9 -13 22
-38 32 -22 10 -40 24 -40 33 0 19 -71 39 -81 23 -11 -17 -41 11 -34 31 11 34
-22 58 -83 60 -15 1 -26 9 -29 21 -3 11 -9 20 -13 20 -17 0 -80 73 -80 92 0
17 -6 19 -44 17 -47 -3 -96 20 -96 46 0 8 -5 15 -11 15 -14 0 -48 41 -49 58 0
6 -9 12 -20 12 -11 0 -20 6 -20 14 0 8 -17 20 -37 27 -21 6 -44 18 -51 26 -7
7 -24 13 -37 13 -13 0 -28 6 -32 13 -4 6 -21 23 -36 37 -27 23 -29 24 -41 7
-15 -20 -28 -10 -45 36 -6 15 -17 27 -26 27 -8 0 -15 4 -15 9 0 5 -10 11 -22
13 -12 2 -22 11 -24 24 -7 46 -24 74 -44 74 -11 0 -20 7 -20 15 0 9 -9 15 -25
15 -20 0 -25 5 -25 25 0 16 -6 25 -15 25 -8 0 -24 6 -35 13 -17 10 -22 9 -29
-1 -5 -9 -11 -5 -19 13 -7 14 -17 23 -22 20 -6 -3 -14 4 -19 17 -6 16 -5 25 5
31 19 11 18 37 -1 37 -8 0 -12 6 -9 14 7 18 -73 36 -89 19z m2403 -3847 c0 -3
-4 -8 -10 -11 -5 -3 -10 -1 -10 4 0 6 5 11 10 11 6 0 10 -2 10 -4z m127 -292
c-9 -9 -28 6 -21 18 4 6 10 6 17 -1 6 -6 8 -13 4 -17z m1956 -244 c3 -11 1
-18 -4 -14 -5 3 -9 12 -9 20 0 20 7 17 13 -6z m47 -11 c0 -18 -18 -9 -23 12
-4 16 -3 18 9 8 8 -6 14 -15 14 -20z m-1043 -396 c-3 -10 -5 -4 -5 12 0 17 2
24 5 18 2 -7 2 -21 0 -30z m1792 -93 c46 -55 48 -74 7 -82 -20 -4 -26 -1 -26
13 0 9 -5 19 -11 21 -5 2 -12 15 -14 28 -2 14 -7 35 -10 48 -12 36 9 26 54
-28z m-2689 -117 c0 -7 -4 -13 -10 -13 -5 0 -10 12 -10 28 0 21 2 24 10 12 5
-8 10 -21 10 -27z m1175 -3 c-10 -11 -20 -18 -23 -15 -3 3 3 14 13 25 10 11
20 18 23 15 3 -3 -3 -14 -13 -25z m-265 -776 c0 -8 -4 -12 -10 -9 -5 3 -10 10
-10 16 0 5 5 9 10 9 6 0 10 -7 10 -16z"/>
<path d="M488 13283 c7 -3 16 -2 19 1 4 3 -2 6 -13 5 -11 0 -14 -3 -6 -6z"/>
<path d="M2190 12650 c0 -5 7 -10 16 -10 8 0 12 5 9 10 -3 6 -10 10 -16 10 -5
0 -9 -4 -9 -10z"/>
<path d="M9746 12243 c-8 -8 9 -35 51 -84 99 -111 103 -114 195 -137 64 -15
116 -38 201 -86 63 -36 132 -72 153 -81 26 -10 91 -69 189 -170 104 -107 164
-160 195 -174 97 -44 224 -15 288 67 45 56 43 89 -10 142 -57 58 -179 147
-211 155 -28 7 -67 -22 -67 -51 0 -64 161 -234 223 -234 23 0 22 -8 -5 -31
-19 -15 -33 -17 -88 -12 -67 6 -89 13 -112 37 -8 7 -27 20 -43 29 -42 22 -133
102 -189 166 -42 47 -87 89 -152 141 -34 27 -128 86 -181 113 -62 32 -155 90
-175 110 -24 24 -76 47 -92 41 -19 -7 -74 24 -79 45 -4 13 -5 13 -6 -1 -1 -23
-9 -22 -48 1 -17 11 -34 17 -37 14z"/>
<path d="M9540 11704 c0 -11 14 -59 32 -108 31 -83 36 -90 86 -123 28 -19 52
-38 52 -42 0 -4 22 -29 48 -56 27 -28 82 -90 123 -140 41 -49 92 -110 114
-135 22 -25 89 -119 150 -209 126 -188 183 -247 251 -257 83 -12 156 -1 202
32 23 16 45 40 49 54 3 14 12 34 19 45 8 11 14 30 14 42 0 26 -46 101 -120
193 -76 96 -107 120 -156 120 -54 0 -83 -30 -90 -96 -5 -43 -2 -58 25 -109 54
-104 69 -128 106 -165 19 -20 35 -41 35 -48 0 -17 -60 -15 -95 4 -16 9 -42 23
-57 31 -24 12 -88 82 -88 96 0 6 -82 140 -123 202 -74 110 -185 259 -229 305
-13 14 -70 81 -127 150 -97 115 -161 184 -204 219 -15 12 -17 11 -17 -5z
m1040 -884 c24 -24 25 -36 4 -44 -14 -6 -34 9 -63 47 -12 15 -11 17 13 17 14
0 35 -9 46 -20z"/>
<path d="M3999 11402 c-2 -71 3 -117 12 -120 24 -9 41 -66 34 -118 -5 -44 -2
-60 18 -101 30 -59 91 -116 140 -132 20 -7 37 -16 37 -21 0 -4 34 -25 75 -45
70 -34 77 -40 101 -93 15 -31 28 -75 29 -97 3 -62 41 -150 119 -275 l72 -115
51 2 51 2 62 -122 c72 -139 171 -320 181 -327 3 -3 13 -18 22 -35 9 -16 41
-61 72 -100 31 -38 82 -110 113 -158 31 -48 83 -124 115 -168 31 -43 57 -83
57 -88 0 -5 4 -11 9 -13 10 -4 151 -217 151 -229 0 -5 4 -9 8 -9 4 0 18 -19
30 -42 63 -124 232 -369 291 -425 82 -77 178 -82 283 -13 64 41 68 47 85 130
10 54 -65 216 -134 290 -13 14 -33 39 -44 57 -32 51 -107 67 -188 38 -23 -8
-51 -25 -64 -38 -13 -15 -32 -23 -48 -23 -26 2 -59 26 -59 44 0 7 -38 76 -106
190 -10 17 -27 35 -36 38 -9 3 -20 15 -24 27 -3 12 -15 31 -25 42 -25 27 -129
164 -129 171 0 9 -67 74 -76 74 -5 0 -25 18 -45 40 -20 22 -34 40 -31 40 3 0
-4 10 -16 23 -36 38 -53 90 -42 128 17 58 12 87 -20 121 -16 17 -30 35 -30 39
0 5 -9 9 -19 9 -10 0 -21 7 -25 15 -3 8 -11 14 -18 13 -7 -2 -26 24 -43 57
-24 48 -36 62 -62 70 -18 5 -33 12 -33 16 0 4 -12 21 -26 38 -14 17 -23 31
-20 31 4 0 -2 17 -12 38 -10 20 -20 55 -21 76 -2 25 -10 45 -23 56 -13 10 -18
22 -13 29 6 11 9 11 15 1 5 -8 8 2 7 23 0 20 -7 39 -14 41 -6 3 -19 30 -28 61
-9 31 -23 68 -31 83 -8 15 -14 34 -14 42 -1 23 -37 99 -62 129 -13 15 -34 43
-48 61 -60 81 -137 138 -210 154 -3 1 -17 10 -32 20 -15 10 -31 15 -36 12 -13
-8 -23 62 -15 108 4 25 3 37 -4 33 -16 -10 -63 16 -63 36 0 9 -4 17 -8 17 -5
0 -19 29 -31 64 -19 55 -27 66 -51 71 -15 3 -35 14 -44 24 -11 12 -32 18 -66
19 l-50 1 -1 -37z m780 -1098 c-9 -11 -15 -11 -25 -3 -18 15 -18 14 11 15 21
2 24 -1 14 -12z m17 -53 c0 -22 -4 -34 -8 -28 -13 21 -8 67 7 67 2 0 2 -18 1
-39z m977 -1298 c-5 -16 -7 -61 -6 -102 2 -69 0 -73 -15 -57 -22 22 -30 148
-11 170 23 26 40 20 32 -11z m328 -145 c8 -7 33 -39 54 -71 38 -57 39 -58 19
-77 -28 -28 -66 -7 -75 40 -3 19 -11 48 -18 63 -20 51 -12 71 20 45z"/>
<path d="M5120 10930 c0 -5 -7 -7 -15 -4 -12 5 -15 -2 -15 -34 0 -106 36 -194
119 -290 l37 -43 52 22 52 22 20 -24 c11 -13 32 -42 47 -64 15 -22 30 -42 34
-45 3 -3 12 -14 20 -26 16 -24 65 -83 197 -235 50 -58 92 -110 92 -113 0 -4 9
-17 20 -29 56 -59 268 -397 360 -572 96 -182 169 -275 249 -315 65 -32 140
-24 214 23 70 45 76 55 39 68 -37 13 -68 72 -78 148 -10 78 23 65 67 -26 13
-26 29 -54 36 -61 7 -7 13 -20 13 -28 0 -9 5 -12 11 -8 13 8 9 28 -26 122 -29
79 -81 163 -139 225 l-36 38 -67 -5 c-38 -3 -73 -12 -83 -21 -9 -8 -21 -15
-28 -15 -30 0 -40 -134 -16 -232 5 -23 3 -26 -14 -21 -18 4 -50 53 -34 53 4 0
6 30 6 68 -3 98 -3 99 -17 114 -7 7 -28 33 -47 58 -19 25 -40 51 -47 58 -7 7
-20 26 -30 42 -9 17 -21 30 -25 30 -4 0 -8 6 -8 14 0 8 -4 16 -8 18 -4 2 -20
25 -36 51 -15 27 -36 56 -47 65 -10 9 -19 20 -19 25 0 5 -16 25 -35 45 -19 20
-35 40 -35 44 0 5 -15 25 -33 45 -57 64 -99 144 -117 222 -14 57 -24 79 -44
94 -14 10 -26 24 -26 30 -1 17 -57 77 -73 77 -7 0 -17 -4 -23 -10 -6 -6 -21 1
-42 21 -18 17 -48 33 -67 36 -19 3 -36 12 -36 19 -1 8 -2 19 -3 24 0 6 -13 25
-27 43 -14 17 -31 43 -38 56 -7 13 -29 38 -49 55 -75 66 -122 119 -122 139 0
7 -16 13 -40 14 -22 2 -40 -2 -40 -7z m280 -341 c0 -6 -4 -7 -10 -4 -5 3 -10
11 -10 16 0 6 5 7 10 4 6 -3 10 -11 10 -16z"/>
<path d="M6880 10350 c0 -5 5 -10 10 -10 6 0 10 5 10 10 0 6 -4 10 -10 10 -5
0 -10 -4 -10 -10z"/>
<path d="M3440 9881 c0 -6 5 -13 10 -16 6 -3 10 1 10 9 0 9 -4 16 -10 16 -5 0
-10 -4 -10 -9z"/>
<path d="M2320 9770 c0 -5 7 -10 16 -10 8 0 12 5 9 10 -3 6 -10 10 -16 10 -5
0 -9 -4 -9 -10z"/>
<path d="M2240 9739 c0 -5 5 -7 10 -4 6 3 10 8 10 11 0 2 -4 4 -10 4 -5 0 -10
-5 -10 -11z"/>
<path d="M12787 9223 c-3 -5 -8 -29 -12 -55 -4 -27 -11 -48 -15 -48 -4 0 -10
-24 -13 -52 -3 -29 -13 -68 -22 -85 -9 -18 -14 -41 -10 -52 6 -19 -16 -205
-36 -301 -10 -52 -21 -133 -34 -259 -3 -30 -7 -111 -10 -180 -7 -228 -17 -345
-32 -374 -8 -16 -19 -70 -24 -119 -5 -50 -14 -97 -20 -104 -6 -8 -14 -43 -17
-79 -2 -36 -9 -68 -13 -71 -5 -3 -9 -23 -9 -45 0 -21 -4 -39 -10 -39 -5 0 -10
-15 -10 -34 0 -19 -4 -38 -10 -41 -5 -3 -10 -24 -10 -45 0 -21 -4 -40 -8 -42
-14 -6 -45 -172 -43 -236 1 -35 -5 -91 -13 -125 -8 -34 -20 -95 -26 -136 -7
-41 -19 -89 -26 -107 -8 -19 -14 -53 -14 -76 0 -30 -8 -55 -25 -80 -14 -20
-25 -41 -25 -46 0 -5 -9 -12 -21 -15 -15 -4 -20 -12 -17 -29 2 -18 10 -23 38
-25 20 -2 39 2 45 10 20 26 65 47 100 47 32 0 35 -2 35 -30 0 -16 3 -30 8 -30
4 0 8 -48 10 -106 2 -98 -8 -162 -30 -188 -4 -6 -8 -21 -8 -35 0 -15 -11 -46
-25 -70 -14 -23 -25 -52 -25 -62 0 -10 -7 -19 -15 -19 -8 0 -15 -8 -15 -17 -1
-27 -35 -88 -47 -86 -6 1 -13 -11 -17 -27 -3 -18 -12 -30 -21 -30 -8 0 -15 -4
-15 -9 0 -6 -14 -25 -30 -43 -29 -32 -33 -33 -108 -34 -73 0 -78 1 -105 30
-16 17 -37 48 -48 68 -26 52 -51 63 -90 42 -17 -8 -34 -24 -36 -35 -3 -10 -9
-19 -14 -19 -5 0 -9 -14 -9 -31 0 -17 -6 -43 -14 -57 -7 -15 -22 -54 -32 -87
-10 -33 -22 -63 -27 -66 -5 -4 -9 -64 -9 -134 1 -117 3 -129 22 -142 11 -8 20
-21 20 -29 0 -8 7 -14 15 -14 9 0 18 -7 21 -15 9 -23 34 -18 35 8 1 12 1 27 0
33 -2 16 27 81 39 89 5 3 10 15 10 26 0 10 6 19 13 19 6 0 19 13 28 28 9 16
25 28 39 29 13 1 34 13 46 27 21 22 27 23 66 15 23 -6 49 -16 58 -24 71 -64
90 -84 90 -93 0 -6 9 -16 20 -22 11 -6 20 -21 20 -34 0 -13 7 -36 14 -52 8
-15 13 -30 11 -34 -2 -4 14 -17 35 -31 22 -13 40 -27 40 -32 0 -4 11 -5 24 -1
13 3 27 1 30 -5 4 -6 24 -11 45 -11 22 0 44 -6 51 -15 7 -8 22 -15 34 -15 24
-1 56 -22 56 -39 0 -6 6 -11 14 -11 8 0 17 -7 20 -16 13 -33 5 -63 -25 -92
-32 -31 -127 -82 -154 -82 -7 0 -16 -4 -20 -9 -3 -5 -20 -13 -37 -16 -18 -4
-38 -13 -45 -21 -8 -7 -20 -11 -28 -8 -7 3 -23 1 -34 -6 -11 -6 -42 -15 -68
-20 -59 -11 -79 0 -119 64 -16 26 -42 51 -59 58 -16 7 -43 26 -58 42 -27 28
-30 29 -39 12 -8 -14 -5 -21 11 -32 12 -9 21 -25 21 -36 0 -12 9 -31 19 -42
11 -12 26 -45 35 -75 15 -52 15 -54 -10 -97 -14 -24 -29 -44 -33 -44 -3 0 -18
-11 -33 -24 -14 -14 -29 -22 -32 -19 -3 4 -6 -10 -6 -30 0 -21 -4 -37 -10 -37
-5 0 -10 11 -10 25 0 14 -4 25 -10 25 -5 0 -10 -4 -10 -9 0 -5 -14 -12 -31
-16 -30 -7 -31 -9 -26 -46 6 -46 -8 -62 -17 -19 -4 23 -11 30 -28 30 -37 -1
-61 -25 -54 -54 9 -34 -2 -33 -15 2 -9 23 -12 25 -22 12 -7 -9 -20 -14 -29
-12 -9 2 -26 -6 -37 -17 -12 -12 -30 -21 -41 -21 -11 0 -20 -7 -20 -15 0 -8
-4 -15 -10 -15 -5 0 -18 -9 -28 -20 l-19 -21 -6 21 c-5 18 -9 19 -33 9 -16 -5
-31 -13 -34 -17 -3 -4 -17 -13 -32 -19 -24 -11 -28 -19 -28 -50 1 -29 7 -42
25 -56 14 -10 25 -13 25 -7 0 7 8 9 20 5 17 -5 20 -2 21 27 1 18 5 -1 9 -42 7
-65 6 -77 -10 -90 -10 -10 -22 -44 -29 -83 -10 -60 -10 -71 6 -97 18 -31 32
-37 49 -20 6 6 8 -7 6 -35 l-4 -45 -27 28 c-15 15 -30 34 -33 42 -2 8 -10 -20
-16 -63 -15 -95 -15 -124 -2 -132 6 -4 10 6 10 22 0 22 2 25 10 13 9 -13 11
-13 20 0 5 8 10 21 10 28 0 6 5 12 10 12 11 0 60 -48 60 -59 -1 -17 -19 -31
-33 -25 -11 4 -19 0 -23 -10 -3 -9 -12 -16 -20 -16 -15 0 -80 -41 -109 -69
-17 -16 -22 -17 -32 -6 -16 17 -17 51 -3 60 6 4 8 10 5 15 -3 4 -2 16 2 26 5
14 9 9 19 -22 l12 -39 2 55 c2 32 5 43 7 27 4 -22 7 -25 17 -14 9 8 15 60 19
157 3 82 13 171 22 204 18 70 12 121 -13 111 -36 -14 -50 -9 -67 25 -8 16 -15
43 -15 60 0 29 -21 42 -34 22 -7 -12 15 -82 26 -82 4 0 8 -4 8 -10 0 -5 -7
-10 -15 -10 -8 0 -15 7 -15 16 0 8 -13 20 -30 25 -16 6 -30 17 -30 25 0 12 -5
12 -30 -1 -22 -11 -30 -23 -30 -43 0 -27 -20 -70 -20 -44 0 22 -17 13 -28 -15
-6 -16 -14 -45 -18 -65 -3 -21 -10 -38 -15 -38 -5 0 -6 17 -3 39 4 24 2 41 -5
45 -6 4 -11 15 -10 24 0 15 1 15 8 -1 6 -17 8 -17 20 -3 17 20 10 39 -16 41
-15 1 -23 -5 -26 -23 -5 -26 2 -62 12 -62 3 0 5 -27 4 -60 -2 -59 11 -85 29
-59 6 10 8 0 6 -29 -3 -31 0 -41 9 -38 8 3 13 -2 13 -12 0 -15 2 -15 10 -2 5
8 10 27 10 43 0 15 4 27 9 27 12 0 32 60 25 72 -4 6 -10 5 -15 -3 -6 -9 -8 -1
-6 24 1 25 6 36 15 32 6 -2 12 -3 12 -2 0 1 9 27 20 57 l20 55 -6 -57 c-7 -63
1 -112 16 -103 6 3 10 -4 10 -16 0 -18 -3 -20 -12 -11 -7 7 -15 12 -19 12 -14
0 -21 -124 -10 -154 11 -28 12 -28 31 -11 15 14 20 32 21 74 1 31 3 48 6 39 6
-23 44 -17 54 8 7 17 8 17 8 -3 1 -13 6 -23 11 -23 6 0 10 -9 10 -20 0 -11 3
-20 8 -20 4 0 7 -12 7 -27 1 -16 5 -57 9 -93 10 -78 -10 -73 -23 6 -5 27 -9
43 -10 36 0 -7 -5 -10 -11 -7 -6 4 -10 -5 -10 -20 0 -15 4 -24 10 -20 6 4 10
-6 10 -22 0 -20 -3 -24 -9 -14 -5 7 -14 11 -20 7 -7 -5 -10 9 -10 44 2 50 -12
83 -25 62 -3 -6 -2 -13 4 -17 5 -3 10 -19 10 -35 0 -22 -4 -28 -15 -24 -8 4
-15 14 -15 23 -1 9 -8 -4 -16 -29 -8 -25 -17 -51 -20 -59 -2 -8 -7 -12 -10 -9
-2 3 0 18 6 33 12 32 5 64 -10 49 -12 -12 -15 -72 -5 -103 6 -19 5 -22 -5 -16
-10 6 -11 1 -6 -21 15 -68 18 -104 8 -104 -11 0 -25 116 -24 193 0 27 -3 45
-9 42 -5 -4 -9 -17 -9 -31 0 -14 -6 -27 -14 -30 -17 -6 -68 -77 -65 -90 4 -24
-2 -54 -11 -54 -6 0 -8 15 -4 40 4 25 3 40 -4 40 -6 0 -12 -6 -15 -13 -2 -6
-2 -2 0 11 2 12 -1 22 -6 22 -14 0 -22 -60 -10 -82 14 -25 6 -33 -12 -12 -15
18 -18 180 -4 264 6 42 4 47 -24 73 -17 15 -35 27 -40 27 -13 0 -21 70 -11 91
6 10 10 27 10 39 0 19 -4 21 -25 16 -61 -15 -73 -24 -68 -49 3 -14 0 -28 -6
-32 -8 -5 -10 1 -5 20 5 21 4 26 -7 23 -10 -4 -13 -19 -12 -49 3 -45 -24 -156
-34 -145 -10 10 -14 104 -4 110 11 7 2 46 -10 46 -13 0 -11 -14 3 -28 9 -9 8
-12 -4 -12 -26 0 -64 -127 -52 -175 10 -41 24 -28 24 23 0 26 5 54 10 62 7 11
10 7 10 -17 0 -28 28 -73 45 -73 3 0 5 9 5 20 0 11 5 20 10 20 13 0 13 -67 1
-74 -5 -4 -11 0 -14 6 -2 7 -4 -9 -4 -35 0 -34 4 -47 13 -43 6 2 15 -5 18 -17
9 -33 7 -37 -9 -37 -9 0 -15 -9 -15 -25 0 -13 -8 -28 -17 -34 -13 -7 -17 -21
-16 -58 1 -37 0 -43 -7 -25 -19 46 -31 23 -24 -45 8 -79 10 -84 23 -52 5 13
10 18 10 12 2 -23 31 -14 32 10 0 14 3 17 6 7 16 -39 30 -40 57 -2 14 20 26
32 26 26 0 -6 7 -11 15 -11 8 0 15 6 15 14 0 7 4 13 9 13 5 0 12 12 15 26 9
36 23 19 31 -38 8 -50 1 -60 -21 -30 -11 15 -13 15 -14 1 0 -25 -43 -58 -80
-62 -19 -3 -36 -9 -38 -16 -2 -6 -8 -11 -14 -11 -5 0 -21 -9 -35 -20 -14 -11
-29 -18 -33 -15 -4 3 -10 -2 -14 -10 -3 -8 -17 -15 -31 -15 -14 0 -25 -4 -25
-8 0 -4 -10 -9 -22 -9 -13 -1 -27 -8 -33 -15 -16 -20 -52 -38 -75 -38 -11 0
-23 -7 -26 -15 -4 -8 -10 -12 -15 -9 -6 3 -22 -2 -37 -12 -15 -10 -87 -49
-161 -86 -102 -52 -136 -66 -142 -56 -7 10 -9 8 -9 -5 0 -10 -8 -20 -17 -23
-27 -9 -107 -48 -113 -55 -3 -4 -16 -10 -30 -14 -14 -4 -60 -27 -104 -51 -43
-24 -80 -44 -82 -44 -2 0 -231 -113 -510 -250 -278 -138 -507 -250 -510 -250
-3 0 -102 -48 -222 -106 -119 -59 -278 -135 -352 -171 -74 -35 -157 -76 -185
-91 -67 -35 -114 -58 -280 -137 -77 -37 -147 -71 -155 -75 -8 -5 -42 -22 -75
-37 -33 -15 -112 -53 -175 -84 -63 -31 -158 -77 -210 -102 -52 -25 -193 -92
-313 -151 -119 -58 -222 -106 -227 -106 -6 0 -10 -4 -10 -8 0 -4 -16 -14 -35
-21 -33 -11 -562 -266 -615 -295 -54 -30 -88 -47 -160 -80 -85 -38 -213 -99
-475 -225 -99 -48 -195 -94 -212 -102 -18 -7 -33 -17 -33 -21 0 -7 41 -97 121
-266 27 -57 49 -106 49 -110 0 -4 10 -26 22 -50 l23 -42 1402 0 c1123 0 1404
3 1410 13 4 7 20 18 36 24 25 12 27 11 27 -12 l0 -25 2300 0 2300 0 0 4615 c0
2538 -2 4615 -4 4615 -3 0 -7 -3 -9 -7z m-924 -4893 c3 -11 1 -23 -4 -26 -5
-3 -9 6 -9 20 0 31 6 34 13 6z m-220 -17 c3 -5 1 -73 -4 -153 -6 -80 -10 -203
-10 -275 -1 -128 -1 -129 -9 -50 -12 109 -17 372 -7 381 4 4 7 29 7 56 0 43
11 61 23 41z m278 -14 c15 -29 14 -90 -2 -100 -19 -11 -39 42 -32 86 6 40 17
44 34 14z m-86 -39 c-5 -8 -11 -8 -17 -2 -6 6 -7 16 -3 22 5 8 11 8 17 2 6 -6
7 -16 3 -22z m-155 -29 c14 -27 13 -36 -3 -22 -8 6 -17 8 -20 4 -4 -3 -7 3 -7
15 0 27 16 28 30 3z m380 -51 c6 -11 8 -25 4 -32 -6 -10 -33 25 -34 45 0 15
20 6 30 -13z m-181 -42 c1 -10 -3 -18 -9 -18 -5 0 -10 17 -9 38 0 30 2 33 9
17 5 -11 9 -28 9 -37z m-342 10 c-3 -8 -6 -5 -6 6 -1 11 2 17 5 13 3 -3 4 -12
1 -19z m120 -10 c-3 -8 -6 -5 -6 6 -1 11 2 17 5 13 3 -3 4 -12 1 -19z m103
-12 c0 -3 -4 -8 -10 -11 -5 -3 -10 -1 -10 4 0 6 5 11 10 11 6 0 10 -2 10 -4z
m-215 -56 c-4 -23 -9 -39 -12 -36 -3 2 -2 23 2 46 4 23 9 39 12 36 3 -2 2 -23
-2 -46z m-158 -62 c-3 -7 -5 -2 -5 12 0 14 2 19 5 13 2 -7 2 -19 0 -25z m150
-55 c-3 -10 -5 -4 -5 12 0 17 2 24 5 18 2 -7 2 -21 0 -30z m582 -13 c0 -23 -1
-23 -9 -5 -5 11 -9 29 -9 40 -1 17 1 17 9 5 5 -8 9 -26 9 -40z m-605 -23 c5
-27 4 -37 -3 -32 -6 3 -11 22 -11 42 0 44 5 41 14 -10z m-567 -58 c6 -41 5
-43 -10 -27 -10 10 -17 32 -17 54 0 51 20 32 27 -27z m233 35 c0 -8 -5 -12
-10 -9 -6 4 -8 11 -5 16 9 14 15 11 15 -7z m770 -28 c0 -3 -4 -8 -10 -11 -5
-3 -10 -1 -10 4 0 6 5 11 10 11 6 0 10 -2 10 -4z m-680 -32 c0 -14 -4 -23 -9
-20 -7 5 -8 23 -2 44 4 12 11 -3 11 -24z m584 -22 c-9 -33 -21 -27 -16 9 2 17
8 27 13 22 5 -5 6 -18 3 -31z m-183 -90 c-6 -2 -11 -9 -11 -17 0 -7 -6 -17
-12 -23 -10 -8 -14 -3 -15 21 -2 24 0 28 7 17 7 -11 10 0 10 36 0 68 13 77 23
18 6 -32 5 -50 -2 -52z m58 46 c1 -5 -3 -8 -9 -8 -5 0 -10 12 -9 28 0 24 1 25
9 7 5 -11 9 -23 9 -27z m-766 -3 c4 -8 2 -17 -3 -20 -6 -4 -10 3 -10 14 0 25
6 27 13 6z m37 -36 c0 -16 -4 -29 -8 -29 -4 0 -8 15 -8 34 0 19 4 32 8 30 4
-3 8 -18 8 -35z m-113 -61 c-3 -7 -5 -2 -5 12 0 14 2 19 5 13 2 -7 2 -19 0
-25z m117 -46 c7 -12 -4 -52 -14 -52 -12 0 -23 38 -15 50 7 12 22 13 29 2z
m-54 -34 c0 -6 -6 -5 -15 2 -8 7 -15 14 -15 16 0 2 7 1 15 -2 8 -4 15 -11 15
-16z m-31 -35 c-1 -16 -5 -41 -9 -58 -6 -23 -8 -25 -9 -8 0 12 -5 25 -11 28
-5 3 -10 12 -10 18 0 7 4 6 10 -3 7 -11 10 -7 10 18 0 17 5 32 10 32 6 0 9
-12 9 -27z m284 -12 c9 -20 17 -44 17 -52 0 -21 -20 -38 -36 -32 -9 3 -14 -2
-14 -16 0 -12 -5 -21 -11 -21 -6 0 -8 7 -5 16 3 9 6 28 6 42 0 22 2 24 11 12
11 -15 9 0 -7 66 -10 39 19 28 39 -15z m86 -33 c1 -10 -6 -18 -14 -18 -16 0
-22 50 -8 64 8 8 21 -19 22 -46z m-159 -43 c18 11 10 -21 -9 -39 -19 -17 -20
-17 -30 3 -15 27 -14 58 2 64 6 2 15 -5 19 -15 4 -11 12 -16 18 -13z m-255
-53 c-6 -6 -25 45 -24 66 0 9 7 -1 15 -22 8 -22 12 -41 9 -44z m209 6 c3 -12
2 -26 -1 -31 -8 -13 -33 21 -33 45 0 24 26 13 34 -14z"/>
<path d="M2156 8865 c-3 -8 -15 -15 -27 -15 -16 0 -19 -4 -14 -17 4 -10 10
-27 13 -38 2 -11 10 -27 17 -35 7 -8 13 -31 13 -50 0 -19 6 -36 11 -38 6 -2
11 -9 11 -15 0 -7 9 -18 20 -25 11 -7 20 -22 20 -34 0 -11 11 -36 25 -54 14
-18 35 -55 46 -81 30 -71 66 -113 95 -113 32 0 64 17 64 34 0 13 -29 77 -39
86 -3 3 -15 21 -25 40 -10 19 -27 44 -38 56 -10 11 -15 24 -11 27 3 4 -3 17
-14 30 -12 12 -24 40 -28 62 -14 80 -26 115 -40 115 -9 0 -15 10 -15 26 0 14
-6 32 -14 40 -19 18 -62 18 -70 -1z"/>
<path d="M2012 8640 c-12 -12 -22 -24 -22 -28 1 -17 18 -32 31 -27 11 4 14 -7
15 -52 0 -56 6 -73 77 -221 22 -47 85 -54 107 -12 8 16 2 36 -32 106 -65 132
-73 146 -91 156 -9 5 -17 17 -17 26 -1 9 -11 29 -23 45 l-23 27 -22 -20z"/>
<path d="M8535 8570 c-3 -5 1 -10 9 -10 9 0 16 5 16 10 0 6 -4 10 -9 10 -6 0
-13 -4 -16 -10z"/>
<path d="M8720 8490 c0 -5 12 -10 28 -10 21 0 24 2 12 10 -20 13 -40 13 -40 0z"/>
<path d="M1937 8334 c-4 -4 -4 -18 -1 -30 4 -15 2 -24 -5 -24 -6 0 -11 -9 -11
-20 0 -13 7 -20 20 -20 11 0 20 -4 20 -10 0 -16 37 -12 43 4 3 8 -2 25 -12 38
-10 13 -21 33 -25 46 -7 22 -17 28 -29 16z"/>
<path d="M2290 8050 c-13 -32 -14 -29 26 -102 8 -16 19 -28 25 -28 5 0 9 -7 9
-15 0 -22 48 -95 63 -95 7 0 21 10 31 21 20 24 16 70 -9 95 -8 9 -15 24 -15
35 0 10 -4 19 -10 19 -5 0 -10 8 -10 18 0 19 -28 47 -67 70 -30 16 -29 17 -43
-18z"/>
<path d="M2088 7983 c-8 -10 -18 -24 -22 -31 -8 -13 14 -72 26 -72 5 0 8 -6 8
-13 0 -21 39 -97 50 -97 6 0 10 -9 10 -21 0 -24 55 -108 76 -116 8 -3 14 -11
14 -19 0 -17 12 -18 28 -2 8 8 12 9 12 1 0 -6 -6 -13 -12 -15 -9 -3 -7 -13 7
-34 37 -56 42 -57 41 -1 0 33 -6 56 -15 63 -8 7 -12 20 -8 33 3 11 1 21 -4 21
-5 0 -9 7 -9 16 0 24 -34 98 -100 219 -45 84 -73 102 -102 68z"/>
<path d="M1928 7843 c7 -3 16 -2 19 1 4 3 -2 6 -13 5 -11 0 -14 -3 -6 -6z"/>
<path d="M2453 7803 c-17 -3 -21 -11 -21 -35 1 -16 7 -32 14 -35 18 -7 57 32
52 53 -3 19 -13 23 -45 17z"/>
<path d="M1956 7781 c-3 -5 -1 -24 6 -42 9 -25 9 -34 0 -37 -19 -6 -14 -31 12
-57 13 -13 22 -26 19 -28 -2 -3 9 -35 26 -71 17 -36 31 -70 31 -76 0 -6 11
-15 25 -22 13 -6 22 -15 19 -19 -11 -18 21 -87 49 -102 21 -13 27 -22 22 -37
-4 -14 1 -27 19 -44 14 -13 26 -28 26 -35 0 -16 25 -14 40 4 7 8 9 22 5 32 -7
16 -9 15 -16 -7 -7 -22 -7 -21 -6 10 1 41 -8 60 -29 60 -10 0 -14 12 -14 44 0
26 -6 48 -15 56 -8 7 -15 17 -15 23 0 12 -33 86 -55 127 -8 14 -19 24 -25 23
-14 -4 -12 14 3 20 9 3 7 9 -5 24 -10 11 -18 25 -18 32 0 19 -31 61 -46 61 -9
0 -14 11 -14 29 0 17 -6 31 -16 35 -20 8 -22 8 -28 -3z"/>
<path d="M1934 7749 c-3 -6 -1 -16 5 -22 8 -8 11 -5 11 11 0 24 -5 28 -16 11z"/>
<path d="M4105 7608 c-6 -13 -16 -22 -23 -21 -15 4 -33 -32 -26 -51 3 -9 10
-16 14 -16 4 0 10 -16 13 -35 3 -19 15 -47 26 -62 12 -14 21 -32 21 -40 0 -16
29 -48 50 -55 20 -7 67 18 80 41 6 12 7 29 1 43 -4 13 -6 28 -4 35 2 6 -5 17
-16 23 -23 12 -28 36 -8 43 6 3 2 6 -9 6 -27 1 -46 24 -38 45 4 9 0 18 -9 22
-9 3 -13 13 -10 22 4 15 3 15 -6 2 -10 -13 -13 -13 -22 3 -13 23 -22 22 -34
-5z"/>
<path d="M3851 7496 c-11 -20 -10 -28 4 -49 9 -15 14 -31 11 -36 -4 -6 3 -15
14 -21 11 -6 20 -16 20 -22 0 -29 51 -115 74 -126 14 -6 26 -20 26 -29 0 -15
2 -16 10 -3 8 12 10 8 8 -14 -3 -28 6 -38 46 -50 14 -5 17 -12 12 -31 -7 -29
-8 -28 32 -14 31 10 31 10 11 30 -15 15 -19 28 -14 50 5 20 2 31 -8 35 -8 3
-20 31 -26 62 -7 31 -22 74 -32 95 -10 22 -19 45 -19 53 0 8 -6 14 -14 14 -8
0 -25 18 -37 40 -21 37 -26 40 -64 40 -34 0 -44 -5 -54 -24z"/>
<path d="M4400 7377 c0 -13 9 -32 20 -42 11 -10 20 -26 20 -35 0 -18 43 -60
61 -60 7 0 9 9 5 23 -3 12 -6 27 -6 33 0 7 -9 14 -20 17 -11 3 -20 12 -20 21
0 17 -38 66 -52 66 -4 0 -8 -11 -8 -23z"/>
<path d="M3668 7385 c-8 -14 13 -105 24 -105 5 0 6 5 3 10 -3 6 1 10 10 10 11
0 15 -5 11 -15 -8 -22 35 -105 54 -105 17 0 60 35 60 49 0 4 -11 18 -25 31
-14 13 -25 29 -25 37 0 7 -12 16 -26 19 -20 5 -24 11 -20 29 4 14 0 28 -10 36
-14 11 -18 10 -29 -5 -13 -17 -13 -17 -17 1 -2 10 -6 13 -10 8z"/>
<path d="M3466 7304 c-4 -9 -4 -19 -1 -22 7 -7 55 19 55 30 0 15 -48 8 -54 -8z"/>
<path d="M4240 7263 l0 -38 19 30 c20 32 18 45 -5 45 -10 0 -14 -11 -14 -37z"/>
<path d="M3228 7234 c-2 -34 1 -49 14 -61 18 -16 48 -76 64 -128 8 -26 15 -30
52 -33 35 -3 42 0 42 15 0 28 -32 103 -41 97 -5 -3 -9 8 -9 25 0 16 -7 36 -15
45 -8 8 -15 19 -15 25 0 6 -9 16 -20 23 -11 7 -20 18 -20 25 0 7 -11 13 -24
13 -21 0 -24 -5 -28 -46z"/>
<path d="M3522 7260 c0 -14 2 -19 5 -12 2 6 2 18 0 25 -3 6 -5 1 -5 -13z"/>
<path d="M1135 7230 c-11 -18 -54 -30 -139 -41 -47 -6 -88 -17 -102 -28 -12
-9 -48 -23 -81 -31 -37 -8 -84 -30 -129 -61 -39 -26 -93 -58 -119 -70 -26 -12
-77 -51 -112 -86 -36 -35 -73 -63 -84 -63 -11 0 -53 -35 -97 -80 l-78 -81 -72
5 c-39 2 -74 0 -77 -5 -4 -5 -15 -9 -26 -9 -19 0 -19 -21 -19 -1439 l0 -1440
22 -15 c12 -9 30 -16 40 -16 10 0 18 -4 18 -9 0 -5 19 -11 41 -15 23 -4 51
-12 63 -18 11 -7 48 -20 81 -29 167 -47 250 -75 365 -123 41 -17 83 -31 92
-32 9 -1 34 -9 55 -19 153 -71 183 -87 183 -95 0 -6 8 -10 18 -10 10 0 59 -20
108 -45 48 -25 93 -45 99 -45 5 0 35 -18 65 -40 95 -68 153 -98 210 -109 96
-18 259 -83 308 -124 7 -6 19 -25 27 -43 7 -18 27 -40 43 -48 44 -23 92 -66
92 -83 0 -22 26 -74 54 -106 19 -22 26 -45 31 -95 9 -101 10 -102 79 -173 67
-68 86 -108 86 -181 0 -21 9 -55 21 -77 13 -25 22 -63 23 -99 2 -32 6 -64 10
-70 3 -6 1 -25 -7 -43 -10 -25 -19 -33 -40 -33 -15 -1 -27 3 -27 9 0 5 -9 16
-20 23 -11 7 -20 19 -20 27 0 8 -7 15 -15 15 -8 0 -17 11 -21 25 -6 24 -34 36
-34 15 0 -15 -30 -12 -36 4 -3 8 -12 12 -19 9 -8 -2 -27 8 -42 23 -15 16 -32
28 -36 26 -4 -1 -20 4 -36 12 -15 8 -38 12 -50 9 -17 -4 -30 1 -47 20 -13 14
-24 30 -25 34 0 4 -13 19 -30 31 -24 20 -32 22 -44 12 -12 -10 -15 -10 -15 1
0 8 -19 22 -43 32 -23 10 -60 27 -82 38 -22 10 -43 19 -48 19 -4 0 -24 18 -45
39 -34 35 -39 38 -50 23 -10 -15 -12 -15 -21 -2 -6 8 -9 20 -7 26 2 6 1 17 -4
24 -6 9 -13 7 -29 -9 -26 -26 -37 -27 -44 -1 -3 13 -11 18 -21 14 -18 -7 -76
25 -76 43 0 7 -12 15 -27 19 -32 7 -115 52 -125 68 -4 6 -8 0 -9 -14 l0 -25
-11 23 c-8 15 -20 22 -40 22 -15 0 -28 4 -28 9 0 23 -32 40 -65 36 -23 -3 -48
2 -72 15 -21 11 -49 21 -63 21 -17 1 -19 3 -7 6 26 7 21 23 -8 23 -14 0 -25 4
-25 9 0 6 -17 11 -37 13 -34 3 -38 6 -35 28 1 15 -1 20 -6 13 -11 -17 -82 -5
-82 13 0 10 -13 14 -44 14 -36 0 -46 4 -51 20 -3 11 -14 20 -24 20 -9 0 -22 5
-29 12 -9 9 -12 8 -12 -5 0 -24 -28 -10 -32 16 -3 20 -10 22 -63 24 -33 1 -61
7 -63 13 -2 6 -10 4 -17 -7 -11 -14 -15 -15 -28 -4 -9 7 -22 9 -28 5 -9 -5
-10 -1 -7 14 4 12 2 20 -2 17 -5 -3 -20 6 -34 20 -29 29 -42 31 -62 10 -21
-21 -35 -19 -41 5 -3 11 -9 20 -14 20 -5 0 -9 -453 -9 -1060 l0 -1060 40 0
c22 0 40 -4 40 -10 0 -5 -12 -10 -26 -10 -22 0 -25 -2 -14 -15 7 -8 25 -15 40
-15 15 0 33 7 40 15 9 10 9 15 1 15 -6 0 -11 17 -11 40 0 29 -4 40 -15 40 -8
0 -15 7 -15 16 0 13 6 15 33 9 41 -9 45 -9 89 0 31 6 38 4 38 -9 0 -9 4 -16 9
-16 12 0 71 59 71 71 0 5 18 9 40 9 35 0 40 3 40 23 0 16 9 26 30 34 20 7 30
18 30 32 0 11 4 23 10 26 5 3 10 17 10 30 0 18 4 23 15 19 19 -8 19 -33 0 -40
-22 -9 -19 -44 4 -44 14 0 21 10 26 32 8 38 32 68 53 68 9 0 25 9 36 19 14 13
39 20 71 22 45 3 50 1 53 -19 4 -23 17 -29 27 -12 4 6 14 10 23 9 32 -3 41 1
52 22 8 15 8 24 0 34 -9 11 -6 16 11 26 20 10 26 8 45 -15 17 -19 33 -26 59
-26 22 0 34 4 30 10 -3 5 -1 10 4 10 6 0 11 -4 11 -10 0 -5 13 -10 29 -10 16
0 34 -6 40 -14 21 -25 92 -57 112 -51 23 8 24 -3 3 -27 -16 -16 -16 -18 0 -24
9 -3 23 -3 32 0 13 5 14 9 4 21 -11 13 -7 15 24 15 20 0 36 -4 36 -9 0 -5 18
-12 40 -16 34 -6 40 -11 40 -31 0 -15 6 -24 16 -24 13 0 15 7 9 40 -5 32 -4
40 9 40 10 0 17 -14 22 -45 5 -36 12 -49 34 -60 16 -8 39 -33 51 -54 18 -32
29 -41 60 -46 22 -4 39 -11 39 -16 0 -5 6 -9 13 -9 6 0 19 -5 27 -10 12 -8 11
-13 -9 -33 -12 -14 -18 -28 -13 -31 6 -3 12 0 15 8 7 17 47 28 47 12 0 -7 -5
-17 -12 -24 -9 -9 -8 -12 4 -12 13 0 16 -7 12 -33 -6 -31 -5 -32 33 -32 21 -1
46 -4 57 -8 18 -7 18 -8 2 -26 -17 -18 -17 -20 4 -31 13 -7 19 -17 16 -27 -5
-12 -1 -14 16 -10 17 4 28 -1 41 -19 15 -21 16 -24 2 -24 -9 0 -15 -9 -15 -25
0 -14 5 -25 10 -25 6 0 17 -14 24 -31 11 -27 14 -28 18 -12 8 29 68 30 68 1 0
-14 5 -19 18 -16 14 4 17 -3 19 -39 1 -26 -3 -43 -10 -43 -8 0 -7 -4 1 -12 16
-16 15 -30 -2 -26 -8 2 -15 -1 -15 -7 -1 -5 5 -10 12 -10 19 0 47 -33 41 -49
-3 -8 7 -23 25 -36 17 -12 31 -28 31 -36 0 -8 7 -14 15 -14 19 0 57 -38 50
-50 -3 -5 -1 -11 5 -15 5 -3 10 3 10 14 0 12 3 21 8 21 12 0 38 -20 26 -20 -6
0 -16 -11 -22 -25 -15 -31 -26 -31 -58 0 -27 27 -54 33 -54 13 0 -25 47 -68
74 -68 14 0 26 -4 26 -10 0 -5 -18 -10 -40 -10 -32 0 -40 -4 -40 -18 0 -10 -5
-23 -12 -30 -9 -9 -9 -12 0 -12 7 0 12 -16 12 -40 l0 -40 65 0 65 0 -6 40 c-6
34 -4 40 11 40 14 0 16 -6 10 -41 l-7 -41 43 5 c24 4 55 9 69 12 77 16 110 16
141 1 28 -14 106 -16 681 -16 446 0 648 3 648 10 0 6 -7 24 -15 40 -9 17 -11
30 -5 32 16 5 -10 69 -42 103 -23 25 -27 36 -23 68 7 53 11 57 45 50 17 -3 36
0 44 6 7 6 22 10 32 9 22 -3 118 17 190 39 57 17 59 16 149 -38 37 -22 49 -24
156 -22 122 1 168 12 259 58 84 42 125 27 137 -51 3 -22 15 -56 25 -76 21 -40
18 -69 -12 -103 -9 -11 -20 -28 -23 -37 -7 -19 16 -48 39 -48 7 0 19 -9 26
-20 12 -19 24 -20 160 -20 98 0 148 4 148 11 0 6 -12 25 -26 44 -22 29 -24 38
-16 69 7 25 6 45 -4 73 -7 21 -13 48 -14 60 0 37 -11 53 -47 69 -18 9 -40 29
-48 43 -7 15 -32 42 -54 60 -22 18 -45 48 -51 66 -11 33 -7 48 43 152 9 21 1
49 -30 102 -2 2 -21 -4 -43 -14 -38 -17 -41 -17 -59 -1 -10 9 -26 36 -36 59
-45 103 -128 272 -136 275 -5 2 -9 9 -9 16 0 13 -102 218 -175 351 -21 39 -48
80 -61 93 -18 19 -21 30 -17 60 3 20 14 49 24 64 25 35 24 41 -11 81 -26 30
-29 40 -25 78 3 24 1 51 -4 59 -9 13 -13 11 -31 -8 -11 -12 -17 -22 -13 -23 4
0 -3 -4 -15 -10 -31 -12 -43 -3 -36 26 4 17 0 26 -14 34 -28 15 -32 14 -32 -9
0 -11 -7 -23 -15 -26 -12 -5 -13 -10 -4 -20 15 -19 3 -61 -21 -74 -15 -8 -27
-7 -48 4 -15 9 -34 18 -43 21 -23 9 -79 109 -79 143 0 16 -8 36 -18 46 -18 16
-18 18 5 65 24 47 24 49 6 84 -12 24 -29 40 -50 48 -18 6 -33 16 -34 22 0 7
-4 2 -9 -10 -5 -13 -14 -23 -20 -23 -5 0 -10 -4 -10 -9 0 -15 -127 -139 -159
-155 -84 -44 -96 -126 -29 -215 12 -15 18 -41 18 -73 0 -27 5 -69 11 -93 10
-41 9 -48 -26 -119 -33 -64 -37 -81 -33 -125 5 -50 5 -51 -49 -105 -30 -30
-52 -59 -49 -65 7 -10 -19 -64 -44 -93 -10 -11 -24 -15 -37 -12 -24 7 -34 47
-33 128 1 27 -3 52 -8 55 -5 3 -21 32 -36 64 -16 31 -32 57 -36 57 -10 0 -45
75 -55 115 -4 16 -9 59 -11 95 -3 36 -9 66 -13 68 -5 2 -7 11 -4 21 2 10 -7
39 -22 65 -32 57 -29 80 21 148 35 47 107 99 154 111 14 4 66 39 115 79 50 40
102 79 115 87 70 41 132 70 179 86 28 9 68 32 87 51 20 18 40 32 44 29 10 -6
38 17 41 35 2 8 -3 41 -11 72 l-13 57 41 63 c23 35 62 83 87 107 25 23 48 55
51 69 3 15 9 34 14 43 4 8 11 44 15 80 6 59 5 66 -17 86 -12 12 -55 38 -95 58
-96 49 -128 86 -137 160 -11 99 -71 241 -135 320 -31 39 -58 72 -61 75 -3 3
-21 25 -40 50 -19 25 -37 47 -40 50 -3 3 -37 52 -75 110 -76 114 -195 258
-320 385 -109 111 -162 170 -214 240 -62 85 -134 153 -264 249 -62 46 -159
130 -217 188 -104 104 -189 170 -305 240 -96 57 -227 124 -270 138 -22 7 -71
27 -110 45 -89 40 -140 61 -190 77 -69 23 -139 68 -173 114 -23 30 -54 53 -97
73 -35 17 -67 36 -72 44 -4 7 -25 26 -45 41 -91 68 -6 135 115 91 30 -10 60
-11 130 -5 49 5 215 9 367 10 246 0 284 3 350 21 138 38 220 91 259 168 26 51
26 75 0 112 -21 30 -21 40 -5 133 4 27 -11 71 -52 151 -21 40 -89 108 -96 96
-4 -5 -24 0 -49 14 -23 13 -58 26 -77 30 -19 4 -47 14 -63 22 -15 7 -55 16
-90 18 -34 3 -89 10 -122 16 -33 5 -135 14 -227 19 -92 4 -172 11 -178 15 -14
9 -13 45 5 95 8 23 15 58 15 77 0 49 -36 109 -74 123 -17 6 -51 20 -75 31 -42
19 -43 21 -35 52 12 46 7 176 -9 222 -10 30 -24 44 -54 60 -22 11 -46 25 -54
31 -19 15 -96 17 -104 4z m2710 -5266 c13 -5 14 -8 3 -15 -18 -12 -58 -11 -58
0 0 9 15 18 32 20 3 1 14 -2 23 -5z m88 -160 c-2 -7 -11 -10 -19 -7 -17 6 -18
15 -2 31 14 14 29 -3 21 -24z m347 -154 c0 -5 -2 -10 -4 -10 -3 0 -8 5 -11 10
-3 6 -1 10 4 10 6 0 11 -4 11 -10z m-26 -60 c15 -5 26 -17 26 -28 0 -16 -7
-19 -37 -18 -21 1 -37 6 -35 11 13 50 11 49 46 35z m-46 -143 c6 -7 22 -45 36
-83 51 -146 58 -162 77 -183 12 -12 18 -28 15 -36 -3 -8 3 -36 14 -62 10 -26
27 -69 37 -95 10 -27 21 -48 26 -48 4 0 7 -11 7 -25 0 -25 36 -132 51 -151 5
-6 10 -19 12 -30 1 -11 12 -35 24 -54 44 -74 73 -131 73 -146 0 -23 -31 -49
-76 -63 -44 -14 -100 -6 -189 26 -55 20 -63 28 -96 97 -16 33 -40 72 -54 86
-20 21 -28 45 -40 124 -8 54 -17 131 -20 170 -3 39 -8 96 -11 126 -18 200 -18
200 15 273 20 43 40 71 54 77 30 12 33 12 45 -3z m127 -44 c10 -21 20 -42 23
-47 6 -11 -16 1 -40 22 -18 16 -25 62 -9 62 5 0 17 -17 26 -37z m-440 -113
c14 -12 15 -36 9 -217 -7 -214 -9 -204 43 -421 13 -57 22 -110 19 -118 -7 -17
-59 -18 -89 -3 -38 20 -110 103 -121 140 -40 134 -46 173 -52 339 -6 165 -5
178 16 230 12 30 25 57 30 60 17 11 129 3 145 -10z m-3108 -16 c-3 -3 -12 -4
-19 -1 -8 3 -5 6 6 6 11 1 17 -2 13 -5z m3663 -117 c40 -66 17 -96 -48 -63
-31 16 -41 61 -22 96 14 26 43 12 70 -33z m-4030 30 c0 -7 -4 -17 -9 -22 -5
-6 -11 -19 -14 -30 -3 -11 -5 -1 -6 23 -1 31 3 42 14 42 8 0 15 -6 15 -13z
m3555 -57 c3 -5 1 -10 -4 -10 -6 0 -11 5 -11 10 0 6 2 10 4 10 3 0 8 -4 11
-10z m-2508 -6 c-3 -3 -12 -4 -19 -1 -8 3 -5 6 6 6 11 1 17 -2 13 -5z m3045
-141 c10 -9 18 -25 18 -35 0 -18 -1 -18 -25 -1 -13 10 -25 26 -25 36 0 21 8
22 32 0z m88 -164 c13 -24 13 -29 -3 -29 -24 0 -51 26 -44 43 8 20 33 12 47
-14z"/>
<path d="M4270 7221 c0 -12 9 -20 23 -23 20 -4 23 -1 19 19 -5 29 -42 32 -42
4z"/>
<path d="M2017 7173 c-4 -3 -7 -11 -7 -17 0 -6 5 -5 12 2 6 6 9 14 7 17 -3 3
-9 2 -12 -2z"/>
<path d="M3511 7154 c0 -11 3 -14 6 -6 3 7 2 16 -1 19 -3 4 -6 -2 -5 -13z"/>
<path d="M3550 7105 c0 -19 9 -19 34 0 19 14 19 15 -7 15 -17 0 -27 -5 -27
-15z"/>
<path d="M3831 7074 c0 -11 3 -14 6 -6 3 7 2 16 -1 19 -3 4 -6 -2 -5 -13z"/>
<path d="M3863 7046 c-10 -11 -9 -15 1 -19 16 -7 26 1 26 20 0 17 -12 16 -27
-1z"/>
<path d="M11905 5000 c3 -5 8 -10 11 -10 2 0 4 5 4 10 0 6 -5 10 -11 10 -5 0
-7 -4 -4 -10z"/>
<path d="M11917 4966 c-8 -21 2 -46 19 -46 17 0 17 8 0 39 -11 19 -14 21 -19
7z"/>
<path d="M11060 4091 c0 -5 -14 -14 -30 -20 -27 -9 -30 -14 -26 -43 9 -75 19
-98 46 -112 26 -13 29 -12 34 8 13 47 2 176 -15 176 -5 0 -9 -4 -9 -9z m7
-108 c-3 -10 -5 -2 -5 17 0 19 2 27 5 18 2 -10 2 -26 0 -35z"/>
<path d="M10777 3963 c-4 -3 -7 -20 -7 -37 l0 -31 15 29 c8 15 15 32 15 37 0
11 -14 12 -23 2z"/>
<path d="M10728 3936 c-14 -10 -24 -53 -18 -81 1 -5 1 -22 0 -36 0 -14 6 -32
16 -40 15 -12 16 -8 9 60 -5 49 -4 71 3 67 12 -7 26 24 15 35 -4 4 -15 2 -25
-5z m-1 -118 c-3 -8 -6 -5 -6 6 -1 11 2 17 5 13 3 -3 4 -12 1 -19z"/>
<path d="M10600 3870 c0 -5 5 -10 10 -10 6 0 10 5 10 10 0 6 -4 10 -10 10 -5
0 -10 -4 -10 -10z"/>
<path d="M10647 3873 c-4 -3 -7 -11 -7 -17 0 -6 5 -5 12 2 6 6 9 14 7 17 -3 3
-9 2 -12 -2z"/>
<path d="M11209 3863 c0 -10 -2 -30 -4 -45 -2 -15 1 -30 6 -33 5 -4 9 16 9 44
0 28 -2 51 -5 51 -3 0 -5 -8 -6 -17z"/>
<path d="M11351 3830 l1 -45 10 34 c6 23 6 37 -1 44 -8 8 -11 -2 -10 -33z"/>
<path d="M10543 3841 c-3 -14 -13 -19 -31 -18 -26 2 -27 0 -25 -43 2 -45 2
-45 -9 -12 -6 17 -14 32 -17 32 -7 0 -4 -56 5 -100 5 -23 6 -24 19 -7 9 13 15
15 20 6 4 -6 2 -15 -5 -19 -8 -5 -8 -10 -2 -14 11 -7 22 16 22 45 0 11 5 29
10 39 15 28 40 14 40 -24 1 -47 16 -12 23 53 5 39 3 57 -8 67 -19 20 -36 17
-42 -5z"/>
<path d="M10630 3808 c0 -36 4 -35 14 5 4 16 2 27 -4 27 -5 0 -10 -14 -10 -32z"/>
<path d="M11151 3804 c0 -11 3 -14 6 -6 3 7 2 16 -1 19 -3 4 -6 -2 -5 -13z"/>
<path d="M10602 3780 c0 -14 2 -19 5 -12 2 6 2 18 0 25 -3 6 -5 1 -5 -13z"/>
<path d="M10650 3766 c0 -32 16 -42 29 -18 7 13 7 22 -1 30 -19 19 -28 14 -28
-12z"/>
<path d="M10365 3760 c4 -6 11 -8 16 -5 14 9 11 15 -7 15 -8 0 -12 -5 -9 -10z"/>
<path d="M10284 3726 c-3 -8 -1 -23 5 -33 9 -15 10 -13 11 15 0 34 -7 42 -16
18z"/>
<path d="M10717 3721 c-3 -11 -1 -19 4 -15 5 3 9 1 9 -5 0 -6 -9 -15 -20 -21
-14 -7 -20 -21 -20 -45 0 -37 16 -56 23 -28 3 10 6 2 7 -17 2 -29 3 -31 8 -12
8 27 28 26 24 0 -5 -25 15 -22 23 3 6 17 9 19 16 8 6 -10 9 -8 9 9 0 13 4 20
10 17 6 -3 10 3 10 14 0 11 -9 22 -20 26 -11 3 -20 9 -20 13 0 4 -13 22 -29
41 -26 32 -28 33 -34 12z"/>
<path d="M10649 3662 c-16 -77 -34 -82 -26 -7 3 30 2 55 -3 55 -11 0 -20 -26
-21 -58 0 -25 -1 -25 -12 -9 -34 53 -35 53 -31 2 2 -28 10 -70 19 -94 18 -53
18 -54 3 -45 -9 5 -9 3 1 -9 7 -9 17 -14 22 -11 12 7 11 34 -1 34 -5 0 -10 6
-10 14 0 17 33 31 38 16 2 -6 10 -17 18 -24 17 -17 18 -42 3 -52 -6 -3 -9 -15
-6 -25 3 -11 1 -17 -4 -13 -5 3 -9 -2 -9 -10 0 -9 4 -16 9 -16 10 0 19 -40 13
-58 -2 -7 -8 -10 -13 -6 -13 8 -11 -50 3 -81 9 -19 16 -24 32 -19 12 4 24 11
28 17 3 6 14 12 23 13 23 3 25 6 31 46 5 27 2 37 -10 41 -16 6 -33 -19 -50
-75 -3 -10 -10 -18 -15 -18 -6 0 -8 7 -4 16 3 8 0 26 -7 38 -10 20 -8 27 19
57 29 32 36 57 14 52 -6 -1 -8 10 -5 25 6 26 6 26 11 4 8 -30 15 -31 42 -9 22
19 20 56 -4 85 -8 11 -13 7 -23 -15 -12 -28 -12 -28 -13 15 -1 23 -6 42 -11
42 -13 0 -50 61 -44 72 3 5 10 6 15 3 12 -8 12 35 0 54 -7 11 -13 -3 -22 -47z"/>
<path d="M10208 3666 c-4 -39 6 -76 22 -76 13 0 13 47 -1 56 -6 3 -8 17 -5 30
4 13 2 24 -3 24 -5 0 -11 -15 -13 -34z"/>
<path d="M10390 3685 c0 -8 4 -15 10 -15 5 0 7 7 4 15 -4 8 -8 15 -10 15 -2 0
-4 -7 -4 -15z"/>
<path d="M10800 3692 c0 -12 19 -26 26 -19 2 2 -2 10 -11 17 -9 8 -15 8 -15 2z"/>
<path d="M10437 3635 c-4 -8 -2 -15 3 -15 6 0 10 -14 10 -31 0 -17 -4 -28 -10
-24 -6 3 -10 -4 -10 -17 0 -13 -5 -29 -11 -35 -8 -8 -8 -17 1 -32 13 -25 25
-20 45 19 13 25 13 29 0 34 -20 7 -19 21 2 41 12 13 14 23 7 43 -11 30 -29 39
-37 17z"/>
<path d="M10493 3604 c-3 -8 0 -26 7 -40 8 -13 10 -27 7 -31 -4 -3 -7 -1 -7 5
0 7 -4 12 -8 12 -7 0 -8 -21 -4 -74 1 -12 7 -16 17 -12 9 3 15 0 15 -9 0 -7
-7 -20 -15 -29 -8 -8 -15 -20 -15 -26 0 -6 -4 -8 -10 -5 -6 4 -9 -15 -9 -52 1
-32 4 -46 6 -30 2 15 9 27 15 27 5 0 8 7 4 15 -3 10 1 15 12 15 11 0 25 14 35
35 20 41 21 49 7 40 -12 -8 -14 6 -11 73 1 22 3 24 12 12 8 -12 9 -10 5 10 -3
14 -6 33 -6 43 0 9 -7 17 -15 17 -8 0 -15 5 -15 10 0 16 -20 12 -27 -6z m26
-106 c0 -16 -2 -18 -6 -8 -3 8 -11 18 -17 22 -7 5 -4 8 7 8 11 0 17 -7 16 -22z"/>
<path d="M10180 3576 c0 -9 5 -16 10 -16 6 0 10 4 10 9 0 6 -4 13 -10 16 -5 3
-10 -1 -10 -9z"/>
<path d="M10316 3564 c-4 -9 -4 -19 -1 -22 2 -3 7 3 11 12 4 9 4 19 1 22 -2 3
-7 -3 -11 -12z"/>
<path d="M10551 3474 c0 -11 3 -14 6 -6 3 7 2 16 -1 19 -3 4 -6 -2 -5 -13z"/>
<path d="M10465 3467 c-4 -10 -3 -23 3 -29 14 -14 21 3 12 27 -7 19 -8 19 -15
2z"/>
<path d="M10280 3440 c0 -19 3 -21 12 -12 9 9 9 15 0 24 -9 9 -12 7 -12 -12z"/>
<path d="M10762 3410 c-9 -15 -10 -26 -2 -40 5 -10 10 -29 11 -42 l0 -23 9 22
c5 12 6 41 2 63 -7 38 -8 39 -20 20z"/>
<path d="M10260 3394 c0 -8 5 -12 10 -9 6 4 8 11 5 16 -9 14 -15 11 -15 -7z"/>
<path d="M10590 3398 c0 -7 5 -20 10 -28 8 -12 10 -11 10 7 0 12 -4 25 -10 28
-5 3 -10 0 -10 -7z"/>
<path d="M10557 3393 c-4 -3 -7 -18 -7 -31 0 -31 13 -21 17 13 4 26 1 30 -10
18z"/>
<path d="M10140 3367 c0 -10 -7 -20 -15 -23 -8 -4 -15 -16 -14 -28 0 -11 3
-15 6 -8 8 19 23 14 23 -9 0 -11 -9 -28 -21 -38 -17 -14 -19 -21 -10 -44 11
-29 19 -35 18 -14 -1 32 4 48 13 42 6 -4 18 11 27 32 15 34 17 36 21 14 l4
-23 12 24 c13 24 26 78 20 78 -2 0 -10 -12 -17 -27 l-14 -27 -16 30 c-9 16
-16 25 -17 19 0 -5 -5 -3 -10 5 -8 13 -10 12 -10 -3z"/>
<path d="M10242 3360 c0 -14 2 -19 5 -12 2 6 2 18 0 25 -3 6 -5 1 -5 -13z"/>
<path d="M10032 3335 c0 -16 2 -22 5 -12 2 9 2 23 0 30 -3 6 -5 -1 -5 -18z"/>
<path d="M10290 3331 c0 -9 10 -26 23 -37 l22 -21 1 23 c1 13 -2 24 -7 24 -5
0 -9 6 -9 13 0 8 -7 14 -15 14 -8 0 -15 -7 -15 -16z"/>
<path d="M10430 3329 c0 -8 -13 -23 -30 -32 -19 -12 -30 -26 -30 -40 0 -17 2
-19 10 -7 18 28 23 -1 7 -35 -19 -41 -24 -94 -6 -62 6 9 14 15 20 12 5 -4 9
10 9 29 0 20 5 36 10 36 6 0 10 -8 10 -17 0 -12 3 -14 11 -6 14 14 15 111 1
125 -9 9 -12 8 -12 -3z m10 -64 c0 -5 -5 -3 -10 5 -5 8 -10 20 -10 25 0 6 5 3
10 -5 5 -8 10 -19 10 -25z"/>
<path d="M10241 3314 c13 -16 29 -19 29 -5 0 5 -9 11 -21 14 -16 4 -18 3 -8
-9z"/>
<path d="M10490 3270 c0 -16 4 -30 8 -30 5 0 7 14 4 30 -2 17 -6 30 -8 30 -2
0 -4 -13 -4 -30z"/>
<path d="M10221 3273 c0 -13 -5 -23 -11 -23 -5 0 -10 -9 -10 -19 0 -11 5 -23
10 -26 6 -3 10 4 10 17 0 17 3 19 9 9 7 -11 11 -10 20 5 11 17 12 16 7 -8 -3
-14 -9 -34 -13 -44 -6 -16 -5 -17 9 -4 9 8 14 18 11 22 -2 4 3 5 11 2 21 -8
30 31 13 57 -11 15 -16 17 -20 7 -4 -9 -6 -7 -6 5 -1 9 -6 17 -12 17 -5 0 -8
-4 -4 -9 3 -5 1 -12 -4 -15 -5 -4 -12 2 -14 11 -4 14 -5 13 -6 -4z"/>
<path d="M10582 3238 c-13 -35 -10 -43 13 -35 16 7 20 34 7 54 -5 8 -12 2 -20
-19z"/>
<path d="M9930 3244 c0 -8 5 -12 10 -9 6 3 10 10 10 16 0 5 -4 9 -10 9 -5 0
-10 -7 -10 -16z"/>
<path d="M10021 3234 c0 -11 3 -14 6 -6 3 7 2 16 -1 19 -3 4 -6 -2 -5 -13z"/>
<path d="M10520 3192 c0 -5 7 -9 15 -9 8 0 15 4 15 9 0 4 -7 8 -15 8 -8 0 -15
-4 -15 -8z"/>
<path d="M10175 3180 c-3 -5 -1 -10 4 -10 6 0 11 5 11 10 0 6 -2 10 -4 10 -3
0 -8 -4 -11 -10z"/>
<path d="M10261 3129 l-23 -47 20 -20 c14 -14 22 -17 26 -9 3 9 7 8 14 -2 10
-13 12 -7 26 74 3 17 3 22 0 13 -3 -10 -12 -18 -20 -18 -8 0 -14 -10 -15 -22
0 -22 -1 -22 -8 -3 -5 11 -4 23 1 26 5 3 8 17 6 31 -3 21 -6 19 -27 -23z"/>
<path d="M10136 3124 c-3 -9 -6 -25 -6 -37 1 -17 2 -19 9 -7 16 27 22 60 13
60 -6 0 -13 -7 -16 -16z"/>
<path d="M10171 3088 c-6 -17 -9 -33 -7 -35 5 -6 23 20 30 45 11 35 -11 26
-23 -10z"/>
<path d="M10026 3053 c5 -32 2 -46 -10 -58 -22 -22 -20 -41 4 -41 13 0 20 7
20 19 0 10 5 15 10 12 16 -10 12 19 -10 66 l-20 44 6 -42z"/>
<path d="M10106 3061 c-4 -7 -5 -15 -2 -18 9 -9 19 4 14 18 -4 11 -6 11 -12 0z"/>
<path d="M10075 3041 c-3 -5 -1 -12 5 -16 5 -3 10 1 10 9 0 18 -6 21 -15 7z"/>
<path d="M9951 3024 c0 -11 3 -14 6 -6 3 7 2 16 -1 19 -3 4 -6 -2 -5 -13z"/>
<path d="M4696 1155 c8 -34 12 -41 20 -33 3 4 -2 19 -10 35 l-16 28 6 -30z"/>
<path d="M153 920 c0 -25 2 -35 4 -22 2 12 2 32 0 45 -2 12 -4 2 -4 -23z"/>
<path d="M1600 950 c0 -5 5 -10 10 -10 6 0 10 5 10 10 0 6 -4 10 -10 10 -5 0
-10 -4 -10 -10z"/>
<path d="M253 923 c-7 -2 -13 -18 -13 -34 0 -21 -5 -29 -17 -29 -17 -1 -17 -1
0 -14 9 -7 17 -18 17 -25 0 -6 -8 -11 -17 -12 -12 0 -13 -2 -5 -6 7 -3 33 1
57 8 55 16 61 43 13 54 -24 5 -28 9 -15 12 12 3 17 12 15 26 -3 22 -15 29 -35
20z"/>
<path d="M401 864 c0 -11 3 -14 6 -6 3 7 2 16 -1 19 -3 4 -6 -2 -5 -13z"/>
<path d="M100 810 c-21 -7 -19 -8 18 -9 23 -1 42 4 42 9 0 12 -24 12 -60 0z"/>
<path d="M80 710 c0 -5 -18 -10 -40 -10 -22 0 -40 -4 -40 -10 0 -5 18 -10 40
-10 33 0 40 -3 40 -20 0 -17 7 -20 40 -20 l40 0 0 40 0 40 -40 0 c-22 0 -40
-4 -40 -10z"/>
<path d="M213 702 c-41 -20 -41 -27 -1 -41 31 -11 62 -1 39 13 -20 13 -13 38
8 31 11 -3 22 -1 26 5 9 15 -34 10 -72 -8z"/>
<path d="M190 630 c0 -5 5 -10 10 -10 6 0 10 5 10 10 0 6 -4 10 -10 10 -5 0
-10 -4 -10 -10z"/>
<path d="M80 505 c0 -29 12 -32 31 -9 10 13 10 17 -2 25 -23 14 -29 11 -29
-16z"/>
<path d="M210 476 c0 -2 7 -6 15 -10 8 -3 15 -1 15 4 0 6 -7 10 -15 10 -8 0
-15 -2 -15 -4z"/>
<path d="M160 410 c0 -6 7 -10 15 -10 8 0 15 2 15 4 0 2 -7 6 -15 10 -8 3 -15
1 -15 -4z"/>
<path d="M0 384 c0 -14 3 -14 15 -4 19 16 19 20 0 20 -8 0 -15 -7 -15 -16z"/>
<path d="M245 290 c34 -35 62 -42 45 -10 -6 11 -20 20 -30 20 -11 0 -20 5 -20
10 0 6 -5 10 -12 10 -6 0 1 -13 17 -30z"/>
<path d="M160 291 c0 -6 -14 -11 -32 -11 l-32 0 23 -21 c19 -18 27 -20 47 -10
28 12 30 23 9 41 -10 9 -15 9 -15 1z"/>
<path d="M210 255 c-7 -8 -21 -15 -33 -15 -17 0 -19 -5 -14 -40 4 -35 2 -40
-14 -40 -16 0 -19 -7 -19 -40 0 -29 4 -40 15 -40 11 0 15 -11 15 -40 0 -33 3
-40 20 -40 11 0 20 4 20 10 0 6 9 6 26 0 14 -6 54 -10 90 -10 l65 0 -2 51 c-2
35 2 53 11 59 27 17 2 21 -34 6 -27 -11 -36 -12 -36 -2 0 6 5 17 10 22 7 7 7
19 1 35 -7 17 -10 19 -10 7 -1 -14 -10 -18 -40 -18 -34 0 -41 4 -55 34 -21 44
-21 46 10 46 23 0 24 2 10 15 -8 8 -17 15 -19 15 -3 0 -10 -7 -17 -15z"/>
<path d="M0 200 l0 -40 40 0 40 0 0 40 0 40 -40 0 -40 0 0 -40z"/>
<path d="M494 115 c-18 -15 -18 -15 5 -13 14 2 26 9 29 16 5 17 -10 15 -34 -3z"/>
<path d="M540 90 c-13 -8 -12 -10 3 -10 9 0 17 5 17 10 0 12 -1 12 -20 0z"/>
<path d="M400 40 c0 -38 2 -40 30 -40 28 0 30 2 30 40 0 38 -2 40 -30 40 -28
0 -30 -2 -30 -40z"/>
<path d="M497 61 c3 -10 0 -22 -6 -25 -16 -10 -14 -26 4 -26 7 0 18 7 23 16
10 19 32 11 32 -12 0 -8 9 -14 22 -14 20 0 20 1 5 18 -10 10 -17 24 -17 30 0
7 -9 12 -20 12 -11 0 -20 5 -20 10 0 6 -6 10 -14 10 -9 0 -12 -7 -9 -19z"/>
</g>
</svg>
