<?xml version="1.0" standalone="no"?>
<!DOCTYPE svg PUBLIC "-//W3C//DTD SVG 20010904//EN"
 "http://www.w3.org/TR/2001/REC-SVG-20010904/DTD/svg10.dtd">
<svg version="1.0" xmlns="http://www.w3.org/2000/svg"
 width="1280.000000pt" height="1920.000000pt" viewBox="0 0 1280.000000 1920.000000"
 preserveAspectRatio="xMidYMid meet">

<g transform="translate(0.000000,1920.000000) scale(0.100000,-0.100000)"
fill="#000000" stroke="none">
<path d="M0 18192 l0 -1008 33 -29 32 -30 -33 -3 c-24 -2 -32 -8 -32 -23 0
-22 10 -25 28 -7 8 8 14 5 22 -16 12 -34 12 -36 0 -36 -5 0 -20 -10 -31 -21
-20 -20 -20 -23 -5 -31 20 -11 21 -28 1 -28 -11 0 -15 -11 -15 -40 0 -29 4
-40 15 -40 12 0 15 -16 15 -80 0 -64 -3 -80 -15 -80 -22 0 -18 -18 5 -25 19
-6 28 -25 13 -25 -5 0 -15 -5 -23 -10 -13 -8 -10 -14 14 -33 28 -23 29 -25 13
-48 -9 -13 -17 -40 -17 -61 0 -20 -5 -40 -10 -43 -13 -8 -14 -4695 -1 -4695 5
0 11 9 14 20 6 24 42 27 63 5 9 -8 29 -15 45 -15 19 0 29 -5 29 -15 0 -8 9
-15 20 -15 21 0 78 -33 118 -68 13 -11 47 -26 75 -32 91 -20 250 -41 264 -36
7 3 39 -1 70 -9 30 -8 62 -11 70 -7 8 5 37 5 66 2 35 -5 58 -3 72 5 24 16 146
17 195 3 19 -5 53 -19 76 -29 22 -10 47 -19 55 -19 9 0 33 -9 55 -19 23 -11
63 -25 90 -32 27 -6 53 -16 59 -20 5 -5 19 -9 30 -9 12 0 25 -3 29 -7 4 -5 11
-8 14 -9 4 0 14 -4 22 -7 8 -4 35 -9 60 -12 123 -12 247 -32 266 -42 11 -6 26
-8 32 -4 13 8 136 -4 162 -15 8 -4 29 -6 45 -5 17 1 53 -3 80 -9 56 -13 197
-32 235 -32 14 0 30 -4 37 -10 7 -5 17 -7 23 -3 6 4 29 -1 53 -9 23 -9 65 -18
94 -20 28 -3 61 -9 72 -15 11 -6 31 -11 45 -11 13 0 26 -5 28 -11 4 -11 112
-33 233 -47 33 -4 66 -11 73 -16 8 -4 72 -8 143 -8 80 0 129 -4 129 -10 0 -5
14 -23 31 -39 27 -25 29 -32 23 -66 -4 -24 -19 -49 -39 -68 -49 -44 -63 -55
-75 -55 -5 0 -10 -11 -10 -24 0 -15 -15 -39 -40 -64 -22 -21 -40 -44 -40 -51
0 -7 -13 -23 -29 -37 -17 -14 -33 -34 -36 -44 -4 -11 -13 -20 -21 -20 -8 0
-14 -6 -14 -14 0 -7 -10 -26 -21 -40 -18 -23 -21 -36 -16 -83 3 -30 13 -63 21
-72 9 -10 16 -21 16 -24 0 -16 53 -66 76 -71 13 -4 24 -12 24 -20 0 -7 18 -19
40 -26 22 -7 40 -16 40 -20 0 -4 17 -11 38 -15 20 -4 49 -14 64 -23 22 -13 29
-13 42 -3 14 12 16 10 16 -16 0 -16 -5 -34 -12 -41 -9 -9 -9 -12 0 -12 7 0 12
5 12 10 0 6 18 10 40 10 22 0 40 -4 40 -10 0 -5 -7 -10 -16 -10 -14 0 -16 -9
-12 -50 4 -39 2 -50 -9 -50 -8 0 -11 5 -8 10 3 6 -3 10 -14 10 -12 0 -21 -6
-21 -13 0 -14 -100 -67 -125 -67 -8 0 -15 -7 -15 -15 0 -8 -16 -21 -36 -30
-19 -8 -48 -24 -64 -35 -15 -11 -35 -20 -44 -20 -9 0 -19 -7 -22 -15 -4 -8 -9
-13 -13 -11 -4 3 -38 -22 -76 -55 -39 -32 -73 -59 -77 -59 -5 0 -8 -6 -8 -12
-1 -7 -18 -26 -39 -43 -21 -16 -37 -33 -34 -37 2 -4 -14 -26 -37 -49 -22 -23
-40 -46 -40 -52 0 -22 -202 -239 -295 -316 -22 -19 -65 -57 -95 -85 -90 -82
-172 -151 -211 -174 -20 -12 -59 -46 -88 -77 -68 -72 -338 -272 -422 -312 -51
-24 -73 -42 -94 -75 -15 -24 -60 -68 -98 -98 -39 -30 -100 -83 -136 -116 -37
-34 -77 -65 -91 -69 -47 -14 -88 -45 -95 -72 -3 -15 -48 -70 -99 -122 -52 -53
-107 -112 -124 -132 -19 -21 -48 -41 -74 -49 -74 -24 -88 -37 -88 -84 0 -52
-36 -90 -95 -101 -62 -11 -93 -32 -126 -85 -20 -33 -43 -56 -67 -67 -20 -9
-60 -33 -88 -54 -48 -35 -54 -37 -90 -27 -89 23 -91 22 -162 -23 -37 -23 -86
-58 -109 -76 -23 -18 -46 -33 -52 -33 -8 0 -11 -787 -11 -2759 0 -2739 0
-2759 20 -2754 10 3 25 11 31 19 6 8 20 14 30 14 11 0 19 7 19 15 0 9 9 15 25
15 20 0 25 5 25 25 0 14 3 24 8 24 4 -1 24 -1 45 0 29 1 37 5 37 19 0 13 12
22 40 31 22 6 40 16 40 21 0 6 18 10 40 10 28 0 40 4 40 14 0 17 22 26 60 26
18 0 42 11 63 30 19 16 36 27 39 24 3 -3 30 6 59 19 30 13 74 30 99 37 25 8
54 19 65 26 11 6 34 15 50 18 35 8 114 45 133 63 7 7 31 17 52 23 23 6 47 21
56 35 9 14 23 25 31 25 10 0 12 6 8 20 -4 12 -2 20 5 20 7 0 9 9 6 23 -3 12
-3 16 0 10 8 -18 34 -16 34 2 0 9 8 28 17 42 10 15 18 34 18 42 0 11 16 19 52
25 33 6 53 15 53 23 0 8 12 13 30 13 17 0 30 4 30 10 0 5 19 15 41 22 23 6 46
20 53 30 6 10 14 18 18 18 4 0 19 10 34 23 28 25 94 51 94 37 0 -4 15 -4 34 1
19 5 38 8 43 7 20 -5 121 54 128 75 4 13 8 17 12 10 5 -15 58 -16 88 -3 11 5
16 9 10 10 -14 2 147 62 165 62 9 0 20 9 25 21 6 12 20 26 33 32 19 9 27 23
23 47 -1 13 73 80 77 69 2 -6 21 -11 42 -11 29 0 39 5 43 19 3 13 17 22 41 26
20 4 36 12 36 19 0 6 9 18 20 26 11 8 20 19 20 26 0 19 33 79 37 67 3 -7 11
-9 19 -6 12 4 15 18 12 52 -2 30 4 61 15 87 17 38 21 40 82 52 35 6 70 10 77
7 7 -3 53 4 102 14 50 11 93 18 97 15 4 -2 10 0 14 6 3 5 27 10 52 10 30 0 50
5 57 15 12 17 55 23 251 32 66 3 124 9 129 13 5 5 20 4 34 -1 19 -7 27 -6 38
8 13 17 14 17 20 -5 7 -23 34 -31 34 -9 0 6 5 4 11 -5 5 -10 21 -18 34 -18 13
0 31 -7 40 -16 10 -11 28 -15 54 -12 24 2 37 -1 35 -7 -6 -16 94 -33 228 -41
82 -4 121 -10 129 -20 7 -9 31 -14 63 -14 39 1 47 3 34 11 -10 5 -18 14 -18
18 0 15 33 22 41 9 10 -16 52 20 45 39 -3 8 2 17 11 20 9 4 19 1 21 -5 6 -19
40 -14 38 5 0 12 7 19 22 21 12 2 22 8 22 13 0 6 5 7 10 4 6 -4 8 -15 5 -26
-4 -10 -2 -19 3 -19 14 0 33 26 25 34 -4 4 3 9 15 13 12 3 22 10 22 16 0 7 4
7 12 -1 17 -17 23 -15 36 13 13 28 32 34 32 10 0 -28 18 -15 34 25 14 35 20
40 47 40 l31 0 -5 63 c-6 82 9 158 34 164 10 3 19 12 19 20 0 8 12 25 28 39
18 17 23 27 15 31 -7 2 -13 22 -13 44 0 35 3 39 25 39 21 0 25 5 25 30 0 23 5
30 19 30 16 0 19 11 25 90 6 68 11 90 22 90 10 0 14 12 14 40 0 28 4 40 15 40
8 0 20 10 26 22 8 14 14 18 17 10 6 -19 20 -14 25 11 3 12 2 -108 0 -268 -3
-159 -9 -297 -13 -305 -11 -26 -12 -204 0 -268 13 -72 15 -83 30 -182 6 -41
16 -88 21 -105 6 -16 14 -61 19 -100 20 -163 32 -214 66 -292 18 -39 17 -66
-2 -178 -8 -49 -17 -117 -20 -150 -2 -33 -9 -107 -14 -164 -6 -58 -10 -139
-10 -182 0 -52 -4 -79 -12 -82 -10 -4 -10 -6 0 -6 15 -1 17 -81 2 -81 -5 0
-10 -18 -10 -40 0 -22 5 -40 10 -40 6 0 10 -18 10 -40 0 -36 -2 -40 -26 -40
l-26 0 7 80 c6 70 5 80 -9 80 -12 0 -16 -10 -16 -40 0 -33 -3 -40 -20 -40 -23
0 -27 18 -5 26 8 4 15 17 15 30 0 18 -5 24 -21 24 -12 0 -27 -7 -33 -16 -6 -8
-19 -16 -29 -18 -9 -1 -26 -12 -37 -24 -12 -12 -26 -22 -33 -22 -7 0 -3 -7 7
-15 16 -12 22 -12 34 -2 13 10 15 8 9 -12 -3 -14 -1 -31 5 -38 8 -10 5 -13
-11 -13 -18 0 -21 4 -16 22 6 17 4 20 -10 15 -9 -4 -19 -7 -21 -7 -2 0 -4 -25
-4 -55 0 -30 -4 -55 -9 -55 -17 0 -71 -61 -71 -81 0 -12 -7 -19 -19 -19 -25 0
-37 -18 -22 -33 18 -18 13 -27 -16 -28 -27 0 -27 -1 7 -14 l35 -13 -33 -7
c-37 -9 -38 -26 -1 -35 17 -5 23 -12 21 -26 -5 -29 -19 -39 -37 -24 -13 11
-15 9 -15 -14 0 -25 -3 -26 -50 -26 -27 0 -50 5 -50 10 0 6 5 10 10 10 6 0 10
9 10 21 0 19 -2 18 -37 -8 -31 -24 -33 -29 -17 -32 29 -5 54 -31 54 -58 0 -12
3 -23 8 -23 12 0 34 -59 28 -75 -3 -8 -12 -15 -21 -15 -22 0 -20 -57 3 -63 16
-4 16 -5 0 -6 -14 -1 -18 -10 -18 -41 0 -35 -3 -40 -22 -41 l-23 0 23 -11 c35
-17 27 -37 -18 -44 -30 -5 -40 -11 -40 -25 0 -20 -15 -25 -25 -9 -3 6 -14 10
-23 10 -12 0 -13 -3 -4 -12 18 -18 14 -46 -8 -60 -16 -10 -20 -24 -20 -61 0
-40 -3 -50 -20 -54 -11 -3 -20 -9 -20 -13 0 -4 9 -10 20 -13 17 -4 20 -14 20
-66 0 -52 3 -62 22 -72 l22 -12 -23 -18 -23 -19 28 -1 29 -1 -27 -11 c-36 -14
-36 -43 0 -53 21 -6 23 -8 9 -12 -16 -3 -18 -12 -15 -48 2 -31 -1 -44 -9 -44
-7 0 -13 -9 -13 -20 0 -17 -7 -20 -40 -20 -29 0 -40 -4 -40 -15 0 -8 -7 -15
-15 -15 -11 0 -15 -11 -15 -40 l0 -41 -67 6 c-38 3 -62 2 -55 -1 14 -7 17 -84
2 -84 -5 0 -10 8 -10 18 -1 37 -30 -21 -30 -60 0 -27 -4 -38 -15 -38 -11 0
-15 -11 -15 -40 0 -22 -4 -40 -10 -40 -5 0 -10 -16 -10 -35 0 -19 5 -35 11
-35 6 0 3 -8 -7 -17 -13 -13 -19 -14 -22 -5 -4 14 -62 17 -62 3 0 -5 9 -13 20
-16 11 -3 23 -17 26 -31 l6 -24 1887 0 1886 0 -64 60 c-35 32 -70 60 -78 62
-8 2 -14 8 -14 13 0 27 38 10 134 -59 l104 -76 306 0 c286 0 307 1 308 18 0 9
2 40 5 67 6 61 -12 276 -32 368 -8 38 -14 82 -14 98 0 17 -9 47 -19 67 -11 20
-25 52 -32 70 -6 17 -15 32 -20 32 -5 0 -9 6 -9 14 0 16 -103 112 -137 129
-13 5 -23 16 -23 23 0 6 -8 15 -17 19 -14 6 -10 10 21 20 39 11 40 12 62 96
12 46 25 94 29 107 6 18 0 29 -28 55 -19 17 -42 50 -51 71 -21 51 -65 108 -77
101 -5 -4 -18 -3 -29 0 -23 7 -23 6 11 199 10 60 19 139 19 174 0 36 7 89 17
118 16 51 15 55 -5 116 -12 35 -26 95 -32 134 -11 68 -10 75 14 133 40 94 33
176 -20 231 -26 28 -25 32 15 203 10 40 5 90 -10 119 -5 9 -9 24 -9 34 0 27
62 112 158 215 67 73 95 111 111 153 11 31 38 79 58 106 21 27 54 70 73 97 19
26 57 70 83 97 27 27 62 76 78 109 17 32 45 72 64 89 40 34 85 110 111 186 14
38 39 75 86 125 80 86 116 155 134 256 44 256 45 260 40 511 -5 249 -13 333
-40 405 -8 22 -15 46 -16 53 0 8 -6 28 -14 45 -18 41 -36 129 -36 173 0 20 -5
44 -10 55 -6 10 -15 94 -20 186 -5 93 -14 206 -20 253 -18 142 -20 328 -4 366
21 51 17 88 -20 172 -18 42 -41 111 -51 152 -10 41 -29 113 -42 160 -18 63
-23 97 -18 130 16 107 -2 146 -123 272 -85 88 -161 143 -236 169 -48 17 -82
57 -97 112 -13 51 -36 99 -58 124 -9 11 -24 32 -33 48 -23 39 -42 37 -151 -14
-48 -23 -89 -41 -92 -41 -2 0 -24 -13 -48 -30 -25 -16 -49 -30 -54 -30 -6 0
-18 -9 -27 -19 -20 -23 -55 -31 -84 -20 -12 5 -34 34 -51 67 -26 52 -29 64
-20 95 8 30 6 43 -11 74 -13 25 -18 47 -14 65 4 19 -2 40 -21 72 -22 38 -25
51 -19 94 5 43 3 53 -15 71 -11 11 -27 21 -35 21 -28 0 -46 42 -46 107 0 60
-2 63 -41 100 -22 21 -86 82 -142 136 -56 54 -115 105 -131 114 -56 30 -202
73 -247 73 -54 0 -134 -37 -173 -80 -17 -19 -37 -31 -56 -32 -17 -1 -37 -2
-46 -2 -11 -1 -24 24 -45 89 -36 112 -89 179 -181 224 -64 33 -113 38 -196 22
-47 -9 -139 -67 -147 -92 -3 -9 -16 -21 -28 -26 -72 -33 -166 -149 -262 -323
-31 -57 -67 -118 -80 -135 -12 -16 -26 -39 -29 -50 -4 -11 -20 -35 -36 -52
-25 -28 -37 -33 -76 -33 -58 0 -175 20 -191 33 -23 17 -15 55 15 74 15 9 50
38 77 63 44 41 58 48 122 59 40 7 77 19 83 26 6 8 18 11 26 8 8 -3 14 -1 14 5
0 6 -6 12 -12 14 -10 4 -10 16 1 59 15 59 28 82 42 73 14 -8 22 25 10 40 -9
10 -5 26 14 65 21 40 31 51 51 51 25 0 34 25 12 33 -14 4 37 86 59 94 7 3 13
15 13 28 0 12 6 41 14 63 10 27 15 80 14 154 -1 123 17 195 72 308 53 107 73
180 78 285 5 113 -11 171 -69 254 -39 57 -126 131 -153 131 -26 1 -52 20 -54
40 -2 25 -10 72 -21 122 -6 27 -8 55 -5 63 4 8 1 15 -4 15 -6 0 -13 -10 -15
-22 -2 -13 -2 -3 0 22 2 25 -1 51 -6 59 -5 8 -5 26 0 44 5 18 4 59 -2 101 -13
87 -16 121 -24 259 -6 100 -5 109 12 113 21 6 30 64 10 64 -19 0 -36 -21 -30
-36 3 -8 0 -14 -6 -14 -6 0 -11 10 -11 22 0 12 -3 18 -7 14 -5 -4 -8 -24 -8
-44 -4 -330 -3 -321 -27 -314 -13 3 -39 18 -58 33 -51 40 -106 61 -119 45 -10
-12 -16 -77 -26 -281 -23 -464 -23 -461 -105 -534 l-59 -51 -50 11 c-61 13
-96 -2 -138 -60 -49 -68 -81 -83 -183 -87 -79 -2 -96 -6 -143 -33 -40 -23 -74
-33 -138 -40 -46 -5 -103 -13 -125 -16 l-41 -7 5 53 c3 30 10 57 16 61 8 5 7
8 -1 8 -9 0 -13 22 -13 78 0 53 3 72 10 62 8 -13 10 -12 11 5 1 11 1 30 0 41
-1 18 6 23 39 28 43 7 49 16 25 36 -8 7 -15 18 -15 25 0 7 -6 18 -14 24 -7 6
-17 44 -22 84 -4 39 -9 62 -11 50 -3 -13 -10 -20 -17 -17 -16 6 -19 -5 -41
-148 -11 -73 -15 -152 -13 -252 l3 -146 -45 -15 c-111 -35 -260 -55 -419 -55
-198 0 -251 13 -269 64 -15 40 -20 261 -8 319 5 22 4 55 -2 79 -12 46 -2 64
28 52 8 -4 29 -8 45 -10 29 -3 31 0 33 31 1 18 -3 39 -11 47 -10 10 -57 120
-57 133 0 2 16 7 35 11 19 3 38 10 41 15 8 13 -28 55 -56 66 -21 8 -25 17 -28
59 -2 31 -9 54 -20 64 -29 26 -26 92 13 220 7 25 14 65 14 90 0 25 5 65 11 90
5 25 19 99 30 165 40 236 60 341 80 405 30 99 51 196 61 290 6 47 14 94 20
105 9 18 19 87 20 139 0 10 7 25 15 34 15 14 16 48 3 91 -5 18 20 25 41 11 12
-8 13 -13 3 -30 -17 -26 -16 -30 6 -30 15 0 21 10 26 40 7 39 -7 76 -24 66 -4
-3 -12 8 -18 24 -9 25 -8 29 10 34 12 3 23 3 26 1 2 -3 -1 -5 -7 -5 -7 0 -12
-8 -12 -17 1 -16 3 -15 19 4 10 12 21 20 24 17 3 -3 3 4 0 16 -3 13 -15 25
-26 28 -19 5 -19 6 -1 19 17 12 16 13 -10 11 -31 -3 -46 -28 -46 -79 0 -17 -4
-28 -10 -24 -13 8 -5 176 10 185 9 6 7 10 -6 18 -20 11 -22 61 -4 117 5 17 12
73 14 125 6 116 19 199 39 237 22 42 40 96 92 278 60 206 68 230 76 240 4 6
13 33 20 60 6 28 16 54 20 60 5 5 9 20 9 33 0 13 9 41 19 61 11 20 22 48 25
62 3 14 17 42 30 62 14 20 23 43 20 51 -3 7 1 20 9 27 7 8 14 19 16 24 10 45
16 63 27 80 8 11 14 30 14 42 0 13 5 23 10 23 6 0 10 8 10 19 0 10 7 24 15 31
8 7 12 16 9 21 -9 15 -24 10 -24 -8 0 -10 -9 -32 -19 -49 -60 -99 -117 -218
-200 -419 -37 -89 -68 -181 -117 -345 -9 -30 -20 -66 -25 -80 -13 -37 -50
-199 -56 -243 -3 -20 -9 -40 -14 -43 -5 -3 -9 -20 -9 -37 0 -18 -9 -43 -20
-57 -11 -14 -20 -35 -20 -47 0 -13 -3 -23 -7 -23 -13 0 -54 -66 -50 -81 2 -8
2 -11 0 -6 -3 4 -9 7 -15 7 -6 0 -8 -13 -4 -34 5 -24 3 -33 -6 -32 -7 0 -15
-3 -18 -9 -13 -29 -63 -38 -285 -52 -126 -8 -277 -14 -335 -13 -58 0 -120 -4
-139 -10 -21 -6 -39 -6 -45 0 -12 9 -82 7 -93 -4 -3 -3 -13 0 -21 7 -10 8 -16
9 -19 1 -2 -7 -47 -10 -131 -8 -70 2 -127 4 -127 4 0 1 -119 3 -265 6 -259 3
-465 10 -485 14 -5 1 -14 1 -20 0 -5 -1 -63 -1 -128 -1 -120 1 -248 13 -347
32 -30 5 -71 13 -90 15 -19 3 -48 12 -65 19 -16 7 -51 19 -77 25 -26 7 -53 18
-59 26 -6 8 -24 14 -40 14 -15 0 -30 4 -34 9 -9 15 -96 61 -116 61 -9 0 -24 6
-31 13 -7 8 -31 25 -53 39 -36 23 -52 36 -118 93 -9 8 -23 35 -29 60 -7 25
-18 45 -24 45 -7 0 -10 8 -7 20 6 22 -21 60 -42 60 -7 0 -15 12 -18 28 -12 58
-14 65 -30 74 -10 5 -26 27 -37 48 -11 22 -29 44 -40 50 -11 6 -20 17 -20 25
0 8 -6 15 -14 15 -9 0 -12 7 -9 20 4 14 -4 25 -31 41 -31 18 -36 26 -36 57 0
21 -7 48 -15 62 -42 75 -56 113 -50 140 4 18 0 40 -9 59 -9 16 -16 46 -16 66
0 19 -4 35 -9 35 -4 0 -11 30 -15 68 -9 75 -13 107 -16 107 -11 0 -31 378 -21
385 5 3 11 46 15 95 9 126 17 185 25 185 4 0 15 41 26 91 10 50 23 96 29 102
6 7 13 21 14 32 2 11 13 39 23 63 11 23 22 55 25 72 4 16 13 35 20 41 8 6 14
18 14 27 0 8 11 34 24 56 13 23 27 55 30 71 4 17 18 44 31 59 14 16 25 39 25
50 0 12 9 35 20 51 22 32 60 109 60 121 0 4 22 52 49 108 26 56 51 114 55 131
4 16 12 32 17 36 6 3 11 16 12 27 1 12 6 22 12 22 7 0 24 35 39 78 15 42 34
83 42 90 7 7 19 33 25 57 6 25 15 45 20 45 5 0 9 9 9 21 0 11 11 35 25 53 14
18 25 38 25 44 0 13 36 80 55 102 7 8 15 27 19 43 3 15 11 27 16 27 6 0 10 7
10 16 0 9 13 42 28 73 16 31 37 83 47 116 10 33 23 65 30 70 6 6 19 36 30 68
10 31 22 57 27 57 4 0 8 6 8 13 0 13 34 56 103 129 20 22 37 43 37 47 0 4 25
24 55 46 30 22 55 43 55 48 0 4 7 7 15 7 9 0 27 12 40 26 14 15 25 23 25 19 0
-4 11 0 26 9 14 10 53 26 86 37 34 10 67 24 73 29 25 21 261 83 286 75 10 -4
29 1 41 9 14 10 44 16 75 16 29 0 53 4 53 9 0 14 188 35 285 32 29 -1 69 -1
244 3 86 1 167 -2 180 -6 17 -6 27 -5 32 3 5 9 12 10 21 3 7 -6 29 -9 48 -7
32 3 62 3 145 2 17 0 86 0 155 1 152 1 231 2 248 0 15 -1 32 0 162 5 58 2 225
4 373 4 177 0 267 4 267 11 0 5 18 10 40 10 33 0 40 3 40 20 0 17 -7 20 -40
20 -22 0 -40 5 -40 10 0 6 -18 10 -40 10 -22 0 -40 5 -40 10 0 6 18 10 40 10
38 0 40 2 40 30 0 20 5 30 15 30 10 0 15 10 15 34 0 18 6 49 14 67 l14 34 7
-27 c8 -32 9 -32 34 -17 23 15 78 -7 84 -33 7 -24 28 -23 34 2 10 37 26 21 20
-20 -4 -35 -2 -40 14 -40 16 0 19 7 19 40 0 36 3 40 25 40 16 0 25 6 25 15 0
11 -11 15 -40 15 -22 0 -40 5 -40 10 0 6 18 10 40 10 33 0 40 3 40 20 0 17 7
20 43 20 28 0 37 -3 28 -9 -7 -5 -10 -14 -6 -20 4 -7 10 -42 15 -79 6 -54 8
-58 9 -24 1 40 3 42 30 42 28 0 30 -3 34 -42 l4 -43 1 49 c2 40 5 47 18 42 19
-7 47 12 38 25 -3 5 -16 9 -30 9 -27 0 -31 12 -9 30 22 18 63 -5 68 -39 2 -14
2 9 0 51 l-5 77 39 4 c21 2 8 2 -28 0 -52 -3 -69 -1 -79 12 -13 16 -15 15 -27
0 -9 -14 -21 -16 -50 -12 -26 5 -33 3 -23 -3 11 -7 3 -10 -27 -10 -36 0 -43
-3 -43 -19 0 -15 -9 -20 -47 -23 -30 -3 -59 1 -77 10 -24 12 -30 12 -38 0 -6
-10 -13 -8 -31 12 -40 46 -94 65 -187 66 -47 1 -98 7 -115 14 -51 22 -134 3
-148 -35 -9 -22 -45 -19 -52 5 -8 26 -25 26 -25 -1 0 -16 -4 -19 -17 -14 -39
16 -55 17 -63 5 -12 -19 -43 45 -36 73 3 12 3 16 0 10 -3 -7 -12 -13 -21 -13
-12 0 -13 8 -8 40 4 26 3 40 -4 40 -6 0 -11 11 -11 24 0 14 -4 28 -10 31 -21
13 -9 25 25 25 23 0 35 5 35 14 0 7 7 19 15 26 13 11 15 8 16 -16 1 -24 3 -22
12 14 10 42 12 44 42 40 24 -3 31 0 28 9 -4 9 7 13 36 13 36 0 44 4 59 30 21
37 25 37 42 3 13 -26 14 -26 17 -7 4 18 13 22 71 27 37 4 68 11 70 17 2 5 8
10 14 10 6 0 8 -6 5 -13 -6 -16 54 -10 65 7 5 7 20 7 53 -2 55 -15 205 -16
205 -2 0 6 18 10 40 10 36 0 40 -2 40 -25 0 -27 17 -34 26 -10 4 10 20 15 44
15 24 0 40 5 44 15 4 12 17 14 66 8 42 -4 60 -2 60 6 0 6 17 11 40 11 36 0 40
-2 40 -25 0 -23 4 -25 43 -24 38 1 39 2 12 8 l-30 6 25 25 c22 22 25 23 28 7
3 -13 13 -17 43 -17 21 0 39 -4 39 -10 0 -15 57 -12 64 3 5 10 7 10 12 0 3 -7
18 -13 34 -13 16 0 31 6 34 13 5 10 7 10 12 0 3 -7 23 -13 45 -13 34 0 39 3
39 24 0 13 7 26 15 30 19 7 19 26 0 26 -11 0 -15 11 -15 39 0 31 -6 44 -27 60
-28 21 -28 21 -8 36 11 9 21 20 21 25 3 23 5 24 14 10 5 -8 10 -32 10 -52 0
-35 2 -38 30 -38 28 0 30 2 30 40 l0 40 40 0 c34 0 46 6 79 40 31 32 46 40 75
40 35 0 36 1 36 40 0 28 4 40 14 40 19 0 31 -39 17 -53 -17 -17 -13 -27 9 -27
11 0 20 7 20 15 0 18 17 20 22 3 3 -8 21 -11 51 -9 l47 3 0 -36 c0 -35 1 -36
36 -36 36 0 73 -23 54 -35 -15 -9 -12 -25 5 -25 8 0 19 9 25 20 6 11 17 20 25
20 8 0 15 5 15 10 0 6 18 10 40 10 30 0 40 -4 40 -16 0 -12 6 -15 23 -10 12 3
30 6 40 6 13 0 17 9 17 40 0 33 -3 40 -20 40 -13 0 -22 9 -26 25 -3 14 -12 25
-20 25 -8 0 -14 7 -14 16 0 12 9 14 38 12 35 -3 37 -5 40 -40 2 -21 7 -38 13
-38 5 0 9 -18 9 -40 0 -38 2 -40 30 -40 28 0 30 2 30 40 0 22 -4 40 -10 40 -5
0 -10 18 -10 40 0 22 5 40 10 40 6 0 10 -13 10 -30 0 -28 2 -30 40 -30 38 0
40 2 40 29 0 28 3 30 43 34 44 4 -168 10 -238 7 -22 -1 -47 -8 -56 -16 -18
-16 -45 -18 -54 -4 -3 6 4 11 17 12 13 1 -78 4 -202 7 -124 3 -227 3 -230 -1
-3 -4 -44 -3 -90 2 -47 5 -123 9 -170 9 -210 -1 -1061 18 -1170 26 -36 3 -88
1 -116 -3 -28 -5 -62 -5 -74 0 -13 5 -31 6 -39 2 -9 -3 -215 -8 -457 -10
l-442 -5 -4 23 c-3 18 0 23 16 24 54 3 142 18 146 25 3 5 54 11 113 13 59 3
111 8 117 11 5 3 10 2 10 -3 0 -6 14 -7 33 -3 17 4 76 3 131 -2 79 -7 100 -6
107 5 6 8 12 9 17 3 9 -12 265 -16 272 -4 5 6 255 12 400 9 8 0 30 3 49 6 29
6 33 4 28 -9 -5 -14 -2 -15 20 -6 15 5 56 9 92 8 37 -1 76 1 89 5 13 4 28 3
35 -2 15 -12 205 2 259 19 20 6 46 9 57 6 12 -3 51 1 88 9 37 7 69 12 71 9 2
-2 16 1 31 7 46 18 258 19 420 3 85 -9 166 -15 181 -13 15 1 35 -4 45 -12 11
-9 19 -10 23 -3 4 6 35 9 82 6 89 -6 85 -6 225 2 144 7 176 6 192 -7 9 -7 13
-7 13 1 0 14 251 6 305 -9 17 -5 86 -11 155 -15 69 -3 170 -13 225 -20 55 -8
121 -15 148 -15 26 0 47 -4 47 -10 0 -5 17 -9 38 -8 20 1 71 -7 112 -16 41 -9
103 -21 138 -27 35 -5 73 -14 85 -21 12 -6 45 -13 72 -15 28 -2 64 -10 81 -18
17 -8 57 -21 89 -30 32 -8 62 -20 66 -26 4 -7 16 -9 27 -7 15 4 19 2 15 -8 -4
-10 4 -14 26 -14 17 0 31 -4 31 -10 0 -5 23 -19 50 -32 28 -13 50 -28 50 -35
0 -6 8 -14 17 -17 10 -4 43 -29 72 -56 30 -28 59 -50 63 -50 4 0 8 -6 8 -13 0
-8 9 -22 21 -33 12 -10 28 -32 37 -49 8 -16 23 -35 32 -42 18 -13 25 -89 8
-99 -4 -3 -26 8 -47 25 -21 17 -48 31 -59 31 -11 0 -25 7 -32 15 -16 19 -33 9
-25 -16 4 -11 2 -19 -4 -19 -6 0 -11 -5 -11 -12 0 -9 3 -9 12 0 7 7 18 12 25
12 17 0 17 -26 -1 -42 -9 -9 -11 -21 -5 -43 13 -45 11 -55 -11 -55 -11 0 -20
-5 -20 -11 0 -7 14 -8 40 -4 33 6 40 4 40 -9 0 -9 -8 -16 -20 -16 -27 0 -25
-18 3 -30 18 -7 18 -9 4 -9 -16 -1 -18 -10 -15 -78 1 -43 2 -116 0 -162 l-2
-83 -28 4 c-26 4 -28 2 -24 -24 2 -15 11 -28 18 -28 8 0 14 -7 14 -15 0 -8 -7
-15 -15 -15 -11 0 -15 -11 -15 -40 0 -29 -4 -40 -15 -40 -8 0 -22 -18 -31 -40
-9 -22 -20 -40 -25 -40 -5 0 -9 -44 -9 -99 l0 -98 53 -7 c28 -4 81 -14 115
-22 35 -9 80 -18 100 -19 21 -2 64 -9 97 -15 112 -21 331 -7 475 30 41 11 104
27 140 36 36 9 74 19 85 23 49 19 93 33 125 42 19 5 94 30 165 55 72 25 141
48 155 51 14 2 34 8 45 13 11 5 35 11 53 14 17 3 47 9 65 12 31 5 77 23 87 35
7 8 77 39 87 39 5 0 20 11 33 25 13 14 28 25 35 25 6 0 18 8 27 18 10 9 26 26
38 36 11 11 20 25 20 33 0 7 6 13 14 13 8 0 16 7 19 15 12 29 85 65 132 65 25
0 45 5 45 10 0 6 -5 10 -12 10 -6 0 -4 8 6 19 13 15 26 17 64 13 26 -3 50 -9
53 -14 6 -10 100 11 110 25 9 12 43 16 50 5 4 -6 9 -6 13 1 4 6 2 11 -3 11
-26 0 -8 18 29 29 37 11 40 14 40 49 0 31 -5 40 -32 55 l-31 18 23 16 23 16
-24 18 c-31 24 -47 24 -26 1 21 -23 21 -32 2 -32 -8 0 -15 4 -15 9 0 15 -60
101 -71 101 -5 0 -9 -9 -9 -21 0 -31 -18 -13 -26 26 -7 39 -11 40 -83 23 -37
-8 -51 -16 -51 -29 0 -20 72 -38 78 -20 5 16 22 13 22 -4 0 -12 -13 -15 -57
-15 -35 -1 -66 -6 -77 -15 -18 -14 -18 -15 8 -24 41 -16 32 -34 -14 -29 -22 2
-41 -1 -43 -6 -2 -5 -15 -6 -30 -2 -19 4 -27 13 -27 29 0 12 -5 29 -10 37 -7
11 -10 7 -10 -18 0 -29 -2 -32 -15 -19 -10 11 -15 45 -16 136 -1 88 -6 124
-15 132 -8 7 -14 31 -14 55 0 24 -4 44 -10 44 -15 0 -13 158 3 163 6 2 2 2
-10 0 -21 -3 -23 1 -23 37 0 24 5 40 12 40 6 0 4 6 -7 13 -10 8 -15 19 -11 25
4 7 4 17 0 24 -4 7 -7 31 -5 55 1 26 -2 43 -8 43 -6 0 -11 18 -11 40 0 29 -4
40 -15 40 -18 0 -19 12 -3 28 9 9 8 16 -5 30 -22 24 -21 31 3 25 19 -5 20 0
20 76 0 47 -4 81 -10 81 -5 0 -10 17 -10 38 0 21 -6 44 -12 51 -7 6 -13 24
-14 39 0 15 -1 100 -2 190 l-2 162 -5070 0 -5070 0 0 -1008z m5919 124 c-10
-9 -109 -14 -109 -6 0 6 26 10 57 10 31 0 54 -2 52 -4z m-322 -73 c-3 -2 -16
-3 -29 -1 l-23 3 25 25 25 25 3 -23 c2 -13 1 -26 -1 -29z m-77 -2 c0 -15 -5
-17 -27 -13 -20 4 -23 7 -10 10 9 2 17 8 17 13 0 5 5 9 10 9 6 0 10 -8 10 -19z
m628 7 c21 -21 13 -28 -28 -28 -22 0 -40 4 -40 8 0 14 23 32 40 32 9 0 21 -5
28 -12z m-548 -48 c0 -5 -18 -10 -39 -10 -22 0 -41 -5 -43 -11 -3 -9 -12 -9
-33 -2 l-30 10 35 11 c46 13 110 15 110 2z m-880 -190 c0 -5 -12 -10 -27 -10
-22 0 -25 2 -13 10 20 13 40 13 40 0z m-640 -95 c0 -23 -2 -24 -21 -15 -20 11
-20 12 -2 25 24 19 23 19 23 -10z m143 8 c-13 -2 -33 -2 -45 0 -13 2 -3 4 22
4 25 0 35 -2 23 -4z m-384 -285 c-1 -37 -2 -39 -9 -18 -12 36 -12 60 0 60 6 0
10 -19 9 -42z m-39 -25 c0 -7 -4 -13 -10 -13 -5 0 -10 12 -10 28 0 21 2 24 10
12 5 -8 10 -21 10 -27z m6680 -33 c0 -11 -4 -20 -10 -20 -5 0 -10 -7 -10 -15
0 -10 -10 -15 -30 -15 -28 0 -30 3 -30 35 0 34 1 35 40 35 33 0 40 -3 40 -20z
m-6280 -30 c0 -5 -9 -10 -20 -10 -11 0 -20 5 -20 10 0 6 9 10 20 10 11 0 20
-4 20 -10z m196 -107 c-11 -11 -19 6 -11 24 8 17 8 17 12 0 3 -10 2 -21 -1
-24z m179 7 c3 -5 1 -10 -4 -10 -6 0 -11 5 -11 10 0 6 2 10 4 10 3 0 8 -4 11
-10z m-320 -129 c3 -5 1 -12 -5 -16 -5 -3 -10 1 -10 9 0 18 6 21 15 7z m65
-31 c0 -5 -4 -10 -10 -10 -5 0 -10 5 -10 10 0 6 5 10 10 10 6 0 10 -4 10 -10z
m-80 -85 c0 -11 -11 -15 -42 -13 -37 1 -39 2 -10 5 17 2 32 8 32 14 0 5 5 9
10 9 6 0 10 -7 10 -15z m-4160 -207 c0 -16 -3 -19 -11 -11 -6 6 -8 16 -5 22
11 17 16 13 16 -11z m5667 -6555 c-3 -10 -5 -4 -5 12 0 17 2 24 5 18 2 -7 2
-21 0 -30z m-2140 -170 c-3 -10 -5 -2 -5 17 0 19 2 27 5 18 2 -10 2 -26 0 -35z
m-30 -57 c12 -11 -12 -41 -36 -44 -13 -2 -21 2 -21 11 0 9 -3 22 -6 30 -4 12
2 15 25 13 17 -1 34 -5 38 -10z m980 -258 c-3 -7 -5 -2 -5 12 0 14 2 19 5 13
2 -7 2 -19 0 -25z m1368 -195 c10 -35 12 -59 7 -70 -8 -14 -11 -13 -25 8 -18
29 -40 127 -31 141 10 16 31 -17 49 -79z m75 -47 c0 -9 -9 -12 -25 -8 -29 5
-33 19 -7 25 22 5 32 -1 32 -17z m-2660 -680 c0 -11 -19 -15 -25 -6 -3 5 1 10
9 10 9 0 16 -2 16 -4z m1140 -35 c0 -3 3 -16 6 -28 4 -14 2 -23 -5 -23 -7 0
-10 4 -7 9 3 5 -1 11 -8 14 -8 3 -19 14 -25 25 -9 17 -7 18 14 14 14 -2 25 -7
25 -11z m349 -46 c9 -12 20 -30 24 -40 9 -26 -37 28 -63 75 l-20 35 21 -25
c11 -14 28 -34 38 -45z m-1084 25 c3 -5 -1 -10 -9 -10 -9 0 -16 5 -16 10 0 6
4 10 9 10 6 0 13 -4 16 -10z m786 -72 c9 -36 5 -35 -22 3 -20 28 -20 31 -4 28
10 -2 22 -16 26 -31z m1959 -468 c0 -5 -4 -10 -9 -10 -6 0 -13 5 -16 10 -3 6
1 10 9 10 9 0 16 -4 16 -10z m-1343 -252 c26 -7 55 -20 64 -28 10 -8 29 -23
43 -33 14 -10 26 -24 26 -32 0 -8 3 -15 8 -15 4 0 4 -96 1 -212 -7 -201 -22
-333 -49 -402 -17 -46 -80 -126 -98 -126 -15 0 -15 2 -2 11 13 9 13 10 0 6 -8
-2 -14 -11 -14 -20 1 -9 -4 -13 -12 -10 -8 3 -20 1 -27 -5 -43 -36 -349 -42
-401 -9 -28 19 -36 63 -15 84 8 8 8 26 -1 66 -8 33 -10 87 -7 138 13 193 26
296 41 324 9 17 16 40 16 53 0 12 5 22 10 22 6 0 20 9 32 19 58 55 209 23 290
-61 20 -21 39 -38 42 -38 13 0 5 39 -14 63 -11 14 -20 28 -20 32 0 10 -54 54
-67 55 -7 0 -13 4 -13 10 0 5 -18 15 -40 21 -22 7 -40 15 -40 18 1 16 29 37
65 50 34 13 55 18 127 30 4 0 29 -5 55 -11z m-538 -491 c0 -90 1 -167 2 -173
6 -33 -3 -64 -19 -64 -56 0 -93 216 -57 334 16 52 28 66 58 66 16 0 17 -14 16
-163z m1631 -243 c14 -4 17 -23 11 -74 -1 -13 -2 -13 -11 0 -8 13 -10 12 -10
-2 0 -14 -8 -18 -34 -18 -19 0 -36 5 -38 12 -3 9 -12 8 -38 0 -26 -10 -35 -10
-42 0 -6 10 -8 10 -8 1 0 -7 -9 -13 -21 -13 -18 0 -20 5 -17 41 2 28 9 46 22
53 14 8 20 8 23 0 3 -9 15 -8 46 2 38 11 71 11 117 -2z m1067 -20 c-3 -3 -12
-4 -19 -1 -8 3 -5 6 6 6 11 1 17 -2 13 -5z m3 -26 c26 16 50 15 50 -2 0 -7
-14 -16 -31 -20 -34 -6 -79 1 -79 14 0 14 24 18 32 6 5 -8 13 -7 28 2z m-1856
-134 c19 -19 19 -16 1 -103 -9 -43 -14 -122 -14 -203 0 -73 -4 -164 -10 -202
-5 -38 -8 -73 -6 -76 2 -4 -12 -31 -31 -61 -74 -115 -101 -195 -106 -319 -1
-32 -8 -49 -31 -71 -16 -17 -27 -23 -24 -14 8 19 3 19 -18 -1 -15 -16 -16 -16
-13 2 2 10 15 24 31 31 15 7 27 17 27 23 0 13 -13 13 -28 -2 -6 -6 -15 -8 -19
-4 -5 4 0 13 10 20 25 19 22 21 -29 24 -49 2 -73 20 -74 55 0 14 -5 17 -20 12
-11 -4 -20 -2 -20 4 0 6 11 11 25 11 35 0 31 16 -5 23 -21 5 -31 14 -36 32 -4
15 -12 24 -18 22 -8 -3 -11 4 -8 24 2 16 0 29 -6 29 -23 0 -42 33 -42 71 0 29
-4 39 -16 39 -9 0 -25 11 -36 25 -11 14 -28 25 -39 25 -12 0 -19 7 -19 20 0
17 -5 19 -24 14 -37 -9 -42 25 -13 78 43 79 62 108 70 108 4 0 15 13 25 28 9
15 55 62 102 104 47 41 104 94 127 116 45 43 213 132 250 132 12 0 29 -7 37
-16z m2611 -276 c26 -12 34 -38 11 -38 -7 0 -28 -3 -45 -6 -28 -6 -31 -4 -25
12 7 19 24 44 30 44 2 0 15 -5 29 -12z m-2852 -813 c-3 -9 -8 -14 -10 -11 -3
3 -2 9 2 15 9 16 15 13 8 -4z m-278 -1147 c-7 -29 -9 -30 -16 -13 -11 28 -10
43 1 25 8 -12 10 -10 10 9 0 13 3 22 6 18 3 -3 3 -21 -1 -39z m-2455 -1668 c0
-5 -5 -10 -11 -10 -5 0 -7 5 -4 10 3 6 8 10 11 10 2 0 4 -4 4 -10z m2320
-1355 c0 -8 -7 -15 -15 -15 -26 0 -18 20 13 29 1 1 2 -6 2 -14z m80 -40 c0
-16 -17 -19 -46 -8 -16 6 -16 7 2 14 30 12 44 10 44 -6z m0 -45 c0 -5 -12 -10
-27 -9 l-28 1 25 8 c14 4 26 8 28 9 1 1 2 -3 2 -9z m100 -112 c0 -21 -4 -38
-9 -38 -5 0 -9 23 -9 51 0 33 3 47 9 38 5 -8 9 -31 9 -51z m2 -207 c2 -53 -1
-75 -9 -78 -14 -5 -19 38 -6 51 4 3 6 30 4 59 -1 28 0 50 2 47 3 -3 7 -38 9
-79z m-295 -46 c-4 -8 -17 -15 -29 -15 l-23 0 25 20 c27 20 36 19 27 -5z m253
-57 c0 -7 -5 -20 -10 -28 -8 -12 -10 -9 -10 13 0 15 5 27 10 27 6 0 10 -6 10
-12z m-339 -41 c-16 -16 -26 0 -10 19 9 11 15 12 17 4 2 -6 -1 -17 -7 -23z
m299 -82 c0 -8 -4 -15 -10 -15 -5 0 -10 7 -10 15 0 8 5 15 10 15 6 0 10 -7 10
-15z m-105 -135 c3 -5 -3 -10 -14 -10 -12 0 -21 5 -21 10 0 6 6 10 14 10 8 0
18 -4 21 -10z m-55 -20 c0 -5 -4 -10 -10 -10 -5 0 -10 5 -10 10 0 6 5 10 10
10 6 0 10 -4 10 -10z m142 -55 c-4 -65 -22 -75 -22 -12 0 33 12 67 25 67 0 0
-2 -25 -3 -55z m-295 19 c-3 -3 -12 -4 -19 -1 -8 3 -5 6 6 6 11 1 17 -2 13 -5z
m-47 -84 c-19 -13 -30 -13 -30 0 0 6 10 10 23 10 18 0 19 -2 7 -10z m-140 -60
c0 -5 -7 -10 -16 -10 -8 0 -12 5 -9 10 3 6 10 10 16 10 5 0 9 -4 9 -10z m77
-96 c-3 -3 -12 -4 -19 -1 -8 3 -5 6 6 6 11 1 17 -2 13 -5z m510 -250 c-3 -3
-12 -4 -19 -1 -8 3 -5 6 6 6 11 1 17 -2 13 -5z m77 -13 c3 -4 -10 -17 -29 -27
-19 -10 -35 -22 -35 -26 0 -5 -4 -8 -10 -8 -15 0 -7 24 10 32 8 4 -4 7 -27 7
-24 1 -43 6 -43 11 0 6 16 8 42 4 30 -5 39 -4 34 4 -5 8 3 12 23 12 16 0 32
-4 35 -9z m2801 -38 c-11 -7 -22 -13 -27 -13 -14 0 -8 19 9 29 25 13 40 1 18
-16z m-2902 -27 c6 -16 -32 -46 -58 -46 -13 0 -11 6 7 30 24 32 43 38 51 16z
m3112 -6 c4 -6 -3 -53 -15 -105 -18 -79 -25 -95 -41 -95 -10 0 -19 4 -19 9 0
9 38 167 45 189 5 15 21 16 30 2z m-167 -47 c2 -33 -1 -44 -20 -57 -31 -22
-54 -20 -72 6 -21 30 -20 35 9 40 14 3 25 1 25 -4 0 -5 8 -8 18 -6 13 3 16 11
14 37 -3 24 0 32 10 29 7 -3 14 -22 16 -45z m-3108 -58 c0 -8 -4 -15 -9 -15
-13 0 -22 16 -14 24 11 11 23 6 23 -9z m83 -17 c-6 -29 -27 -35 -68 -18 -18 7
-14 10 25 28 24 12 45 20 46 19 1 -1 0 -14 -3 -29z m-396 -30 c-2 -31 -4 -33
-44 -36 -34 -2 -43 0 -43 12 0 12 -10 16 -40 16 -22 0 -40 5 -40 10 0 11 31
14 108 11 33 -2 52 1 52 8 0 6 2 11 4 11 2 0 4 -15 3 -32z m100 6 c-3 -3 -12
-4 -19 -1 -8 3 -5 6 6 6 11 1 17 -2 13 -5z m53 -35 c0 -15 -4 -19 -16 -15 -9
3 -20 6 -25 6 -4 0 -6 7 -3 15 9 24 44 19 44 -6z m184 -29 c12 0 27 -5 33 -11
16 -16 3 -92 -19 -107 -10 -7 -18 -20 -18 -28 0 -19 10 -18 26 4 13 16 13 16
13 -3 0 -11 -4 -29 -8 -39 -7 -18 -8 -18 -14 -3 -3 9 -13 17 -22 17 -11 0 -14
-6 -9 -24 8 -33 -8 -39 -50 -19 l-36 17 0 75 c0 55 -4 79 -17 93 -15 17 -15
18 12 18 17 0 37 10 54 28 26 27 26 27 29 5 2 -16 10 -23 26 -23z m3410 8
c-15 -50 -79 -148 -96 -148 -9 0 -19 4 -22 8 -8 13 93 162 110 162 11 0 13 -6
8 -22z m-531 -68 c19 -52 21 -70 7 -70 -13 0 -68 122 -62 138 7 20 34 -14 55
-68z m-3073 49 c-11 -8 -12 -12 -2 -16 6 -2 12 -10 12 -16 0 -6 7 -19 17 -29
15 -17 15 -18 -10 -18 -23 0 -27 4 -27 30 0 27 -3 30 -30 30 -40 0 -38 18 3
23 17 2 37 4 42 5 6 1 3 -3 -5 -9z m-90 -9 c0 -5 -7 -10 -15 -10 -8 0 -15 5
-15 10 0 6 7 10 15 10 8 0 15 -4 15 -10z m2920 -20 c0 -5 -4 -10 -10 -10 -5 0
-10 5 -10 10 0 6 5 10 10 10 6 0 10 -4 10 -10z m-1552 -20 c15 -4 26 -12 25
-19 -2 -6 11 -11 32 -11 19 0 35 -4 35 -8 0 -10 168 -32 255 -33 39 0 104 -7
145 -15 41 -9 100 -19 130 -24 79 -12 110 -21 110 -31 0 -12 67 -41 115 -48
23 -4 39 -12 38 -19 -3 -11 63 -18 120 -14 32 3 17 -17 -20 -27 -183 -46
-1033 5 -1033 62 0 13 -57 67 -70 67 -5 0 -10 5 -10 11 0 7 -8 19 -18 28 -41
36 -50 81 -16 81 8 0 14 5 14 11 0 11 94 5 148 -11z m-874 -16 c22 -21 21 -62
-1 -66 -26 -6 -70 11 -77 28 -16 43 44 72 78 38z m2286 -73 c0 -6 -27 -24 -60
-42 -33 -17 -60 -37 -60 -44 0 -15 -54 -42 -101 -52 -27 -5 -30 -8 -16 -18 13
-9 9 -11 -19 -11 -18 0 -29 3 -23 7 6 3 1 9 -13 12 -23 6 -23 7 -3 20 11 8 52
26 90 41 39 15 97 43 130 62 64 36 75 40 75 25z m-2476 -99 c-8 -2 -14 -8 -14
-14 0 -6 -2 -9 -5 -6 -3 3 0 18 6 34 10 27 12 27 19 9 5 -13 3 -21 -6 -23z
m16 -52 c0 -16 -4 -30 -10 -30 -11 0 -14 43 -3 53 11 12 13 8 13 -23z m2723
-45 c64 -44 41 -64 -38 -33 -60 23 -59 23 -52 43 9 23 48 18 90 -10z"/>
<path d="M4827 385 c-4 -8 -2 -17 3 -20 6 -4 10 3 10 14 0 25 -6 27 -13 6z"/>
<path d="M4800 320 c0 -19 3 -21 12 -12 9 9 9 15 0 24 -9 9 -12 7 -12 -12z"/>
<path d="M4730 280 c0 -38 2 -40 30 -40 28 0 30 2 30 40 0 38 -2 40 -30 40
-28 0 -30 -2 -30 -40z"/>
<path d="M5760 300 c0 -5 7 -10 15 -10 8 0 15 5 15 10 0 6 -7 10 -15 10 -8 0
-15 -4 -15 -10z"/>
<path d="M12633 19182 c-8 -13 -8 -41 -2 -93 12 -106 11 -129 -5 -129 -20 0
-27 -193 -12 -316 7 -54 10 -110 5 -124 -12 -40 -21 -440 -10 -440 6 0 4 -20
-5 -49 -8 -28 -17 -109 -19 -182 -3 -80 -10 -137 -17 -146 -9 -11 -9 -16 1
-23 15 -9 7 -60 -9 -60 -6 0 -10 -4 -10 -10 0 -5 7 -10 15 -10 17 0 21 -35 5
-45 -5 -3 -10 -31 -10 -61 0 -30 -4 -54 -10 -54 -5 0 -10 -18 -10 -40 0 -22
-4 -40 -10 -40 -5 0 -10 -20 -10 -45 0 -25 -9 -68 -20 -97 -11 -29 -20 -63
-20 -75 0 -13 -5 -23 -11 -23 -14 0 -69 -55 -69 -69 0 -6 -18 -11 -40 -11 -22
0 -40 -5 -40 -10 0 -6 15 -8 40 -4 31 5 40 3 40 -8 0 -19 -83 -58 -125 -58
l-35 0 0 -75 0 -75 -42 -1 c-24 -1 -33 -4 -20 -6 18 -4 22 -11 22 -44 0 -35
-2 -39 -26 -39 -21 0 -29 -9 -49 -55 -14 -30 -29 -55 -35 -55 -5 0 -10 -9 -10
-20 0 -11 -9 -34 -20 -52 -11 -18 -20 -45 -20 -60 0 -31 -11 -35 -34 -13 -14
14 -15 13 -15 -12 0 -15 -3 -56 -7 -91 -5 -53 -11 -66 -38 -89 -19 -16 -26
-28 -18 -30 7 -3 12 -21 12 -44 0 -35 -3 -39 -25 -39 -30 0 -24 -23 14 -57 21
-18 23 -22 9 -23 -10 0 -18 -5 -18 -11 0 -17 -63 -75 -67 -62 -2 6 -24 -9 -49
-34 -42 -44 -44 -49 -44 -105 0 -40 -5 -64 -15 -74 -8 -9 -15 -20 -15 -25 0
-5 7 -9 15 -9 23 0 18 -19 -15 -51 -22 -22 -36 -29 -52 -25 -13 3 -17 3 -10 0
6 -3 12 -12 12 -20 0 -10 -12 -14 -40 -14 -36 0 -40 -2 -40 -25 0 -15 -6 -25
-14 -25 -19 0 -46 -71 -46 -120 0 -45 -19 -56 -21 -12 l-1 27 -11 -27 c-6 -15
-23 -32 -39 -39 -43 -17 -35 -35 15 -32 l42 2 -42 -11 c-24 -6 -43 -15 -43
-19 0 -5 -10 -9 -22 -9 -29 -1 -58 -22 -58 -42 0 -23 -23 -38 -60 -41 -22 -1
-46 -16 -82 -50 -27 -26 -61 -50 -74 -53 -17 -4 -24 -13 -24 -30 0 -14 -6 -24
-14 -24 -7 0 -32 -18 -54 -40 -22 -22 -44 -40 -49 -40 -17 0 -43 -36 -43 -58
0 -12 -4 -22 -10 -22 -5 0 -10 -7 -10 -15 0 -8 -4 -15 -10 -15 -5 0 -10 7 -10
15 0 8 -9 15 -20 15 -17 0 -20 -7 -20 -40 0 -35 -3 -40 -23 -40 -25 0 -57 -28
-57 -48 0 -7 -15 -12 -36 -12 -44 0 -64 -19 -64 -62 0 -25 -6 -36 -22 -43 -12
-6 -29 -23 -38 -40 -14 -25 -24 -31 -58 -33 l-42 -3 0 -45 c0 -35 -5 -50 -22
-64 -13 -10 -40 -33 -61 -51 -21 -18 -43 -29 -52 -25 -8 3 -15 2 -15 -2 0 -4
-4 -13 -9 -21 -8 -12 -12 -12 -25 -2 -12 10 -17 9 -28 -8 -7 -12 -20 -21 -29
-21 -10 0 -37 -11 -60 -25 -24 -14 -52 -25 -61 -25 -9 0 -23 -6 -30 -12 -13
-13 -31 -22 -105 -55 -23 -10 -43 -23 -43 -29 0 -7 -8 -14 -17 -18 -25 -8 -57
-29 -66 -43 -4 -7 -19 -13 -32 -13 -24 0 -47 -20 -23 -20 9 -1 7 -5 -4 -14
-10 -7 -18 -18 -18 -25 0 -6 -12 -11 -27 -11 -22 0 -25 2 -13 10 12 8 9 10
-12 10 -18 0 -28 -5 -28 -15 0 -8 -7 -15 -16 -15 -8 0 -12 -4 -9 -10 4 -6 -19
-10 -62 -10 -41 0 -74 -5 -81 -12 -10 -10 -17 -10 -33 0 -11 7 -26 10 -32 5
-25 -17 -257 -2 -257 17 0 4 -21 11 -47 14 -27 4 -73 11 -103 16 -71 10 -206
34 -397 71 -84 16 -166 29 -181 29 -15 0 -34 6 -40 12 -10 10 -15 10 -21 -1
-6 -9 -11 -10 -15 -2 -4 6 -26 11 -49 11 -23 0 -58 4 -77 9 -19 5 -61 12 -94
15 -39 4 -63 11 -72 23 -10 13 -13 14 -14 4 0 -10 -10 -12 -39 -8 -32 4 -41 2
-43 -12 -3 -13 -11 -9 -35 17 -23 24 -33 45 -36 75 l-4 42 -1 -49 c-1 -30 -6
-46 -11 -40 -12 12 -19 94 -8 94 5 0 16 7 24 16 13 13 14 20 5 35 -8 12 -8 19
-2 19 5 0 10 18 10 40 0 22 5 40 10 40 6 0 10 -18 10 -40 0 -22 5 -40 10 -40
6 0 10 18 10 39 0 30 -7 46 -30 69 -22 23 -30 40 -30 66 0 36 0 36 -45 36 -43
0 -45 -1 -70 -49 -13 -27 -28 -51 -32 -53 -15 -6 -70 -93 -93 -148 -30 -73
-31 -216 -2 -435 11 -88 26 -213 33 -277 9 -92 15 -121 30 -134 11 -10 19 -12
19 -6 0 7 -5 12 -12 12 -26 0 18 29 55 35 33 7 37 5 37 -14 0 -11 6 -21 13
-21 14 0 37 -86 37 -140 0 -19 4 -41 8 -47 14 -22 -15 -263 -41 -343 -25 -74
-88 -182 -144 -246 -77 -89 -132 -142 -165 -160 -15 -8 -34 -27 -41 -42 -21
-40 -44 -153 -57 -274 -6 -60 -20 -143 -31 -185 -26 -100 -33 -219 -14 -227 8
-3 17 4 21 17 4 12 10 24 14 27 9 7 80 156 80 169 0 6 6 11 13 11 8 0 19 18
26 40 7 24 18 40 27 40 8 0 14 6 12 13 -1 6 16 32 40 56 23 24 42 50 42 58 0
15 12 32 53 73 15 16 27 32 27 37 0 5 23 31 50 58 36 36 50 57 50 77 0 24 4
28 30 28 17 0 30 5 30 11 0 14 55 69 69 69 6 0 11 5 11 10 0 6 7 10 14 10 8 0
27 11 42 25 15 14 36 25 46 25 11 0 17 4 14 9 -9 14 23 23 91 26 35 2 68 7 75
11 17 10 200 7 263 -5 27 -5 54 -6 60 -2 5 5 39 8 75 9 36 0 108 8 160 17 52
8 142 20 199 25 57 6 107 12 111 15 4 3 36 7 71 10 35 4 93 13 129 21 125 29
255 39 465 37 116 -2 224 -5 240 -8 157 -25 306 -34 480 -28 99 3 191 6 205 7
14 0 106 -3 205 -7 99 -5 245 -10 325 -13 80 -2 181 -9 225 -15 84 -11 97 -12
475 -29 129 -6 249 -13 265 -15 52 -8 387 -35 437 -35 l48 0 0 3190 0 3190
-78 0 c-64 0 -79 -3 -89 -18z m-793 -3991 c0 -5 -7 -11 -15 -15 -9 -3 -15 0
-15 9 0 8 7 15 15 15 8 0 15 -4 15 -9z m-115 -128 c6 -17 7 -17 16 0 13 23 99
25 99 2 0 -11 -12 -16 -42 -17 l-43 -1 43 -4 c42 -4 42 -4 42 -44 0 -21 5 -39
10 -39 17 0 -8 -40 -42 -69 -17 -13 -36 -31 -43 -38 -8 -7 -16 -13 -20 -13
-11 0 -65 -58 -65 -69 0 -6 -9 -11 -20 -11 -11 0 -20 -4 -20 -10 0 -5 -7 -10
-15 -10 -8 0 -30 -9 -50 -20 -20 -11 -42 -20 -50 -20 -8 0 -28 -8 -44 -18 -42
-25 -110 -18 -135 15 -10 13 -19 39 -20 56 -1 27 3 32 32 40 17 6 32 14 32 18
0 5 15 16 33 25 17 9 44 30 58 46 15 17 32 28 38 24 19 -12 53 13 46 35 -5 16
-1 19 28 19 32 0 35 3 41 35 8 39 21 52 40 36 16 -14 26 -4 26 26 0 27 15 31
25 6z m-430 -333 c3 -5 1 -10 -4 -10 -6 0 -11 5 -11 10 0 6 2 10 4 10 3 0 8
-4 11 -10z"/>
<path d="M6560 18309 c0 -5 5 -7 10 -4 6 3 10 8 10 11 0 2 -4 4 -10 4 -5 0
-10 -5 -10 -11z"/>
<path d="M6330 18232 c0 -5 7 -17 15 -28 15 -19 15 -19 30 0 22 29 19 36 -15
36 -16 0 -30 -4 -30 -8z"/>
<path d="M6063 18114 c-3 -8 -1 -20 6 -27 8 -8 11 -4 11 16 0 30 -7 35 -17 11z"/>
<path d="M5600 18060 c0 -13 5 -17 14 -14 24 9 28 34 6 34 -13 0 -20 -7 -20
-20z"/>
<path d="M5483 17960 c-16 -31 -18 -40 -7 -40 8 0 14 7 14 15 0 8 7 15 15 15
9 0 15 9 15 25 0 36 -12 31 -37 -15z"/>
<path d="M4400 17909 c0 -5 5 -7 10 -4 6 3 10 8 10 11 0 2 -4 4 -10 4 -5 0
-10 -5 -10 -11z"/>
<path d="M5543 17909 c11 -7 23 -7 35 0 14 9 11 10 -18 10 -29 0 -32 -1 -17
-10z"/>
<path d="M4961 17894 c0 -11 3 -14 6 -6 3 7 2 16 -1 19 -3 4 -6 -2 -5 -13z"/>
<path d="M5531 17871 c-19 -12 21 -25 50 -16 17 6 19 9 8 16 -8 5 -21 9 -29 9
-8 0 -21 -4 -29 -9z"/>
<path d="M5680 17690 c0 -5 5 -10 11 -10 5 0 7 5 4 10 -3 6 -8 10 -11 10 -2 0
-4 -4 -4 -10z"/>
<path d="M5185 17520 c-12 -5 1 -6 35 -3 30 3 57 7 59 9 9 8 -75 2 -94 -6z"/>
<path d="M5360 17456 c0 -9 5 -16 10 -16 6 0 10 4 10 9 0 6 -4 13 -10 16 -5 3
-10 -1 -10 -9z"/>
<path d="M5183 17443 c9 -2 17 -11 17 -19 0 -8 5 -14 10 -14 6 0 10 4 10 8 0
14 -23 32 -39 31 -12 -1 -12 -2 2 -6z"/>
<path d="M4735 17400 c4 -26 3 -40 -4 -40 -6 0 -11 -11 -11 -25 0 -31 11 -32
36 -4 14 16 15 23 7 26 -9 3 -11 17 -7 44 6 33 4 39 -11 39 -14 0 -16 -6 -10
-40z"/>
<path d="M5030 17400 c0 -33 3 -40 20 -40 17 0 20 7 20 40 0 33 -3 40 -20 40
-17 0 -20 -7 -20 -40z"/>
<path d="M5255 17390 c-3 -5 1 -10 9 -10 9 0 16 5 16 10 0 6 -4 10 -9 10 -6 0
-13 -4 -16 -10z"/>
<path d="M5208 17363 c6 -2 12 -11 12 -19 0 -9 5 -12 10 -9 19 12 10 35 -12
34 -13 0 -17 -3 -10 -6z"/>
<path d="M4560 17292 c0 -7 -18 -13 -42 -14 l-43 -1 39 -4 c37 -4 67 9 53 24
-4 3 -7 1 -7 -5z"/>
<path d="M4728 17233 c-3 -27 -3 -49 -2 -51 1 -2 11 3 23 10 29 18 31 88 2 88
-15 0 -20 -9 -23 -47z"/>
<path d="M5205 17270 c3 -5 10 -10 16 -10 5 0 9 5 9 10 0 6 -7 10 -16 10 -8 0
-12 -4 -9 -10z"/>
<path d="M4763 17157 c-4 -8 -17 -19 -28 -25 -17 -10 -14 -11 23 -12 38 0 42
2 42 25 0 27 -23 34 -37 12z"/>
<path d="M5351 15664 c0 -11 3 -14 6 -6 3 7 2 16 -1 19 -3 4 -6 -2 -5 -13z"/>
<path d="M5310 15600 c0 -10 -6 -23 -12 -27 -14 -8 -24 -24 -59 -88 -11 -22
-24 -42 -28 -45 -3 -3 -15 -22 -26 -42 -11 -21 -23 -38 -27 -38 -5 0 -8 -4 -8
-10 0 -12 -87 -168 -101 -180 -3 -3 -13 -21 -22 -40 -9 -19 -37 -71 -62 -115
-116 -204 -209 -422 -291 -680 -19 -60 -46 -132 -59 -160 -13 -27 -32 -70 -41
-95 -10 -25 -31 -69 -46 -99 -31 -60 -32 -61 -18 -61 6 0 10 4 10 10 0 5 7 18
15 27 8 10 15 22 14 27 0 5 3 12 8 15 14 11 48 65 67 109 11 23 23 42 28 42 4
0 8 6 8 14 0 7 11 34 25 60 14 26 25 54 25 62 0 8 5 12 10 9 6 -3 10 0 10 9 0
8 11 28 25 44 14 17 25 37 25 45 0 9 5 19 10 22 6 3 10 15 10 26 0 10 4 19 9
19 5 0 17 25 26 55 10 30 24 60 31 66 8 6 14 17 14 25 0 7 9 28 20 48 12 19
30 64 40 101 11 37 26 75 35 85 8 9 15 31 15 48 0 18 4 40 9 50 14 25 24 55
25 72 1 8 7 14 14 13 6 -2 12 5 12 15 0 9 7 30 15 46 8 15 12 33 9 38 -4 6 0
14 7 19 8 4 14 14 15 21 3 34 5 39 14 33 6 -4 7 1 3 11 -4 11 -2 15 4 11 11
-7 33 33 33 59 0 8 11 20 25 26 15 7 25 20 25 32 0 12 9 36 20 54 11 18 20 38
20 46 0 7 20 48 45 92 47 82 51 94 35 94 -5 0 -10 -9 -10 -20z"/>
<path d="M10780 14860 c0 -5 5 -10 10 -10 6 0 10 5 10 10 0 6 -4 10 -10 10 -5
0 -10 -4 -10 -10z"/>
<path d="M7975 14730 c-3 -5 1 -10 9 -10 9 0 16 5 16 10 0 6 -4 10 -9 10 -6 0
-13 -4 -16 -10z"/>
<path d="M10465 14550 c3 -5 8 -10 11 -10 2 0 4 5 4 10 0 6 -5 10 -11 10 -5 0
-7 -4 -4 -10z"/>
<path d="M4691 11642 c-6 -11 -6 -77 -1 -172 7 -137 3 -269 -15 -520 -4 -58
-3 -69 6 -50 28 66 59 272 68 445 10 211 8 257 -15 288 -23 31 -30 33 -43 9z"/>
<path d="M6610 11586 c0 -14 -8 -33 -19 -43 -15 -15 -18 -28 -13 -76 4 -47 9
-61 29 -74 16 -11 22 -22 18 -34 -3 -10 1 -28 9 -41 30 -46 55 -135 66 -233 6
-55 14 -107 18 -115 7 -18 8 -31 15 -195 4 -109 11 -151 41 -259 52 -188 75
-316 86 -499 16 -245 40 -557 45 -583 3 -13 7 -35 10 -49 6 -30 -7 -32 -43 -7
-15 11 -42 24 -61 31 -19 6 -49 22 -67 36 -18 14 -37 25 -43 25 -14 0 -15
-408 -1 -495 5 -33 16 -107 25 -165 12 -82 20 -109 37 -123 26 -22 42 -13 123
72 32 34 61 59 63 56 3 -3 -10 -21 -28 -40 -19 -19 -29 -35 -23 -35 12 0 85
59 121 97 l22 24 33 -27 32 -27 6 24 c11 39 10 77 -3 81 -7 3 -11 31 -10 85 2
75 -6 142 -23 188 -5 13 -4 16 2 7 6 -8 9 8 8 45 0 32 5 70 12 84 20 42 68 76
124 88 49 11 54 10 88 -15 20 -15 46 -38 59 -52 18 -21 22 -22 22 -8 0 90
-163 148 -278 100 -74 -30 -82 -22 -131 141 -36 116 -54 233 -56 360 -1 72
-10 164 -23 230 -11 61 -23 139 -26 174 -6 62 -13 96 -42 195 -8 26 -14 61
-14 77 0 16 -4 29 -10 29 -5 0 -10 7 -10 15 0 9 -7 30 -16 47 -8 16 -17 60
-20 97 -2 36 -11 111 -20 166 -8 55 -20 134 -25 175 -17 144 -45 289 -70 363
-10 31 -19 66 -19 76 0 11 -4 23 -10 26 -6 3 -10 -5 -10 -19z m439 -2328 c18
-50 12 -55 -18 -18 -16 19 -27 40 -24 46 8 20 31 5 42 -28z m-282 17 c0 -8 -4
-12 -8 -9 -4 2 -9 -2 -12 -8 -2 -7 -8 -9 -13 -5 -5 5 -1 15 10 23 24 17 23 17
23 -1z m72 -83 c12 -24 20 -49 17 -55 -2 -7 -5 -3 -5 8 -1 14 -4 16 -12 8 -8
-8 -8 -17 0 -32 8 -14 8 -21 1 -21 -5 0 -10 5 -10 10 0 6 -9 10 -20 10 -11 0
-20 4 -20 10 0 5 7 7 15 4 8 -4 15 -1 15 5 0 6 -4 11 -9 11 -5 0 -12 8 -16 19
-3 10 -13 18 -22 17 -22 -1 -38 53 -17 61 8 3 21 3 29 -1 8 -3 14 -2 14 2 -4
24 4 33 10 12 5 -14 18 -44 30 -68z m-49 -32 c0 -5 -6 -7 -14 -4 -7 3 -16 -2
-19 -10 -4 -9 -12 -16 -19 -16 -9 0 -8 3 2 10 8 5 11 10 5 10 -14 0 17 20 33
20 6 0 12 -4 12 -10z"/>
<path d="M6790 9226 c0 -2 8 -10 18 -17 15 -13 16 -12 3 4 -13 16 -21 21 -21
13z"/>
<path d="M5670 11118 c-6 -13 -24 -48 -40 -78 -17 -30 -30 -60 -30 -67 0 -7
-4 -13 -10 -13 -10 0 -34 -79 -27 -87 3 -2 11 8 19 22 13 27 60 51 121 62 23
4 27 10 27 38 0 18 -9 43 -19 56 -12 16 -17 34 -14 51 6 34 -14 46 -27 16z"/>
<path d="M6657 10113 c1 -32 4 -147 7 -256 3 -109 8 -203 12 -208 8 -14 59 34
95 90 25 39 29 54 29 121 0 125 -33 206 -113 283 -16 15 -30 27 -31 27 -1 0
-1 -26 1 -57z"/>
<path d="M11540 10073 c-36 -8 -76 -19 -90 -25 -35 -12 -115 -87 -133 -123
-23 -46 -45 -217 -62 -479 -13 -198 -19 -246 -37 -282 -11 -24 -24 -44 -29
-44 -5 0 -9 -7 -9 -15 0 -8 -9 -19 -19 -24 -45 -24 -85 -93 -97 -164 -27 -157
49 -606 112 -664 13 -12 24 -33 24 -48 0 -14 8 -49 19 -78 22 -64 19 -207 -5
-207 -8 0 -14 5 -14 10 0 6 -9 10 -20 10 -11 0 -20 -6 -20 -14 0 -8 -10 -22
-22 -30 l-22 -16 22 -16 c22 -15 22 -19 16 -133 -5 -84 -4 -120 5 -125 6 -4
11 -15 11 -24 0 -10 8 -24 18 -33 9 -8 46 -41 81 -72 35 -31 71 -57 79 -57 9
0 34 9 56 19 23 10 53 22 69 25 26 6 27 5 27 -32 0 -36 -4 -42 -57 -78 -32
-21 -71 -51 -88 -66 -16 -16 -33 -28 -37 -28 -3 0 -16 -15 -27 -34 -74 -119
-83 -278 -26 -490 19 -74 33 -140 30 -148 -3 -7 -7 -80 -9 -163 -2 -82 -9
-163 -16 -180 -6 -16 -18 -61 -26 -100 -12 -57 -12 -79 -2 -120 6 -27 17 -57
22 -65 6 -8 20 -31 30 -50 19 -34 93 -110 108 -110 4 0 23 -11 42 -24 88 -59
310 -99 479 -85 222 19 306 39 442 105 155 75 255 148 255 186 0 10 6 18 13
18 6 1 -5 7 -26 15 -21 7 -44 21 -51 31 -9 12 -19 15 -32 9 -10 -4 -23 -7 -28
-6 -10 2 -46 -29 -46 -40 0 -4 6 -9 13 -12 6 -2 2 -2 -10 0 -17 2 -23 -1 -23
-15 0 -43 -71 -78 -175 -87 -44 -3 -85 -11 -92 -16 -19 -17 -265 -24 -346 -10
-119 20 -181 34 -193 43 -7 5 -16 8 -20 7 -5 -1 -25 -1 -44 0 -28 1 -38 7 -47
28 -7 15 -13 33 -13 40 0 7 -5 13 -12 13 -8 0 -6 7 5 17 16 17 19 16 52 -1 19
-11 38 -16 42 -13 3 4 17 0 31 -9 13 -9 35 -14 49 -11 26 5 93 -12 93 -23 0
-4 62 -7 138 -8 75 0 162 -1 193 -2 62 -2 135 15 156 35 7 7 13 32 13 54 0 23
5 41 10 41 6 0 10 7 10 15 0 8 12 22 28 32 39 24 71 65 72 89 0 12 7 24 15 28
9 3 15 17 14 33 0 23 -2 25 -8 9 -7 -18 -8 -18 -14 -2 -11 28 -8 36 14 36 11
0 35 11 53 25 18 14 45 25 59 25 14 0 32 7 41 15 8 8 19 15 25 15 6 0 11 4 11
9 0 5 16 15 35 22 19 7 37 21 41 31 3 10 11 18 19 18 25 0 55 122 78 310 12
102 22 226 21 275 0 83 -2 95 -34 155 -47 89 -125 163 -217 208 -41 19 -81 45
-89 57 -10 15 -19 90 -30 226 -22 293 -41 479 -55 519 -15 44 -48 89 -114 154
-50 48 -53 54 -60 116 -3 36 -12 88 -20 115 -15 58 -62 176 -73 184 -4 4 -22
35 -39 71 -31 64 -32 68 -43 290 -20 420 -43 668 -67 743 -44 139 -222 214
-403 170z m135 -378 l0 -60 -41 -14 c-35 -12 -50 -12 -105 -1 -148 32 -132
113 24 130 125 13 122 15 122 -55z m348 -1322 c3 -5 26 -8 51 -7 25 0 43 -3
40 -8 -3 -4 2 -8 10 -8 9 0 16 -7 16 -15 0 -8 8 -15 18 -15 23 0 42 -19 42
-42 0 -10 7 -18 16 -18 9 0 14 -7 13 -17 -2 -10 1 -36 5 -58 14 -68 13 -110
-4 -110 -9 0 -14 -8 -13 -20 2 -11 -3 -30 -9 -43 -10 -18 -8 -24 6 -35 27 -19
6 -46 -57 -76 -45 -22 -65 -25 -146 -23 -52 1 -96 3 -98 5 -11 12 13 37 35 37
l25 0 -21 23 c-27 29 -30 83 -4 91 9 3 40 5 69 5 74 -2 126 31 157 98 24 50
24 51 4 56 -11 3 -22 15 -25 26 -3 12 -12 21 -19 21 -8 0 -14 6 -14 13 0 12
-65 37 -98 37 -51 0 -60 83 -10 89 4 1 9 -2 11 -6z m-65 -28 c8 -7 -35 -75
-50 -80 -16 -6 -36 -40 -51 -86 -7 -22 27 -95 51 -110 16 -10 18 -17 11 -37
-5 -13 -7 -27 -4 -32 3 -5 -4 -15 -15 -23 -19 -13 -24 -11 -60 26 -77 77 -104
191 -56 236 13 12 26 36 30 52 4 20 12 29 24 29 10 0 27 9 37 20 13 14 25 18
49 13 17 -3 32 -7 34 -8z m-232 -112 c-10 -10 -19 5 -10 18 6 11 8 11 12 0 2
-7 1 -15 -2 -18z m179 -314 c5 -6 5 -13 -2 -20 -7 -7 -16 -5 -28 8 -13 13 -20
14 -22 6 -4 -10 -8 -9 -19 1 -8 8 -14 17 -14 21 0 8 73 -5 85 -16z m588 -1085
c7 -8 -40 -93 -64 -117 -11 -10 -19 -22 -19 -26 0 -14 -63 -48 -123 -65 -73
-21 -130 -20 -175 3 -21 11 -55 22 -75 26 -20 4 -34 11 -31 16 3 5 -3 12 -13
16 -15 6 -13 8 12 14 128 31 170 44 243 75 46 20 108 38 140 41 31 3 64 9 72
14 18 10 25 11 33 3z m-581 -145 c-13 -5 -20 -13 -17 -19 3 -5 -2 -10 -11 -10
-10 0 -14 3 -11 7 4 3 2 12 -4 20 -9 10 -4 13 27 12 34 0 36 -1 16 -10z m-295
-295 c-3 -3 -12 -4 -19 -1 -8 3 -5 6 6 6 11 1 17 -2 13 -5z m113 -24 c0 -17
-20 -21 -46 -7 l-26 14 36 1 c20 1 36 -3 36 -8z m-136 -55 c25 -29 38 -31 56
-10 16 19 30 19 30 0 0 -14 4 -14 37 0 20 9 39 12 42 7 3 -5 20 -14 38 -20 52
-17 76 -48 69 -88 -7 -32 -26 -58 -26 -33 0 8 -4 8 -15 -1 -12 -10 -18 -10
-30 0 -12 10 -21 8 -13 -2 7 -12 -27 -48 -45 -48 -42 0 -51 17 -13 24 55 10
43 21 -19 18 l-55 -4 0 -39 c0 -27 4 -39 14 -39 8 0 16 5 18 11 2 7 11 7 28 0
18 -7 20 -10 8 -10 -14 -1 -18 -10 -18 -41 0 -22 -4 -40 -10 -40 -5 0 -10 5
-10 11 0 6 -11 20 -25 31 -21 16 -25 28 -25 69 l0 49 -64 0 c-63 0 -64 0 -71
33 -13 58 -14 71 -9 115 l5 42 41 -5 c27 -3 48 -14 62 -30z m6 -250 c0 -13 -4
-14 -20 -5 -11 6 -20 13 -20 15 0 3 9 5 20 5 11 0 20 -7 20 -15z"/>
<path d="M11780 6209 c0 -5 5 -7 10 -4 6 3 10 8 10 11 0 2 -4 4 -10 4 -5 0
-10 -5 -10 -11z"/>
<path d="M6140 9040 c-8 -5 -12 -12 -9 -15 4 -3 12 1 19 10 14 17 11 19 -10 5z"/>
<path d="M6100 8981 c-6 -12 -7 -21 -1 -21 10 0 24 30 17 37 -2 3 -9 -5 -16
-16z"/>
<path d="M5873 8585 c-3 -9 -3 -18 0 -21 9 -9 27 6 27 22 0 19 -19 18 -27 -1z"/>
<path d="M2560 3429 c0 -5 5 -7 10 -4 6 3 10 8 10 11 0 2 -4 4 -10 4 -5 0 -10
-5 -10 -11z"/>
<path d="M4821 2220 l-23 -20 23 -20 c15 -12 39 -19 64 -19 37 0 39 1 21 14
-16 12 -21 12 -28 2 -5 -9 -11 -8 -24 5 -19 18 -12 35 20 48 20 8 20 9 -4 9
-14 0 -36 -9 -49 -19z"/>
<path d="M4711 2174 c0 -11 3 -14 6 -6 3 7 2 16 -1 19 -3 4 -6 -2 -5 -13z"/>
<path d="M4290 600 c0 -29 4 -40 15 -40 11 0 15 11 15 40 0 29 -4 40 -15 40
-11 0 -15 -11 -15 -40z"/>
<path d="M0 230 l0 -230 1402 0 c771 0 1399 2 1396 5 -3 3 -58 12 -124 21 -65
8 -150 24 -189 34 -38 10 -96 19 -128 19 -32 0 -62 3 -68 6 -11 7 -41 11 -154
21 -38 3 -119 15 -180 26 -60 11 -148 23 -195 28 -47 5 -137 20 -200 34 -63
14 -132 26 -152 26 -20 0 -48 4 -62 10 -14 5 -52 12 -83 15 -32 3 -114 16
-183 30 -69 13 -177 31 -240 39 -63 9 -137 20 -165 26 -60 13 -308 48 -385 55
-63 6 -129 20 -217 46 -34 11 -65 19 -68 19 -3 0 -5 -103 -5 -230z"/>
<path d="M3904 15 c-18 -14 -18 -14 9 -15 15 0 27 4 27 9 0 18 -17 20 -36 6z"/>
</g>
</svg>
