<?xml version="1.0" standalone="no"?>
<!DOCTYPE svg PUBLIC "-//W3C//DTD SVG 20010904//EN"
 "http://www.w3.org/TR/2001/REC-SVG-20010904/DTD/svg10.dtd">
<svg version="1.0" xmlns="http://www.w3.org/2000/svg"
 width="1280.000000pt" height="1919.000000pt" viewBox="0 0 1280.000000 1919.000000"
 preserveAspectRatio="xMidYMid meet">

<g transform="translate(0.000000,1919.000000) scale(0.100000,-0.100000)"
fill="#000000" stroke="none">
<path d="M100 19175 c-14 -8 -42 -15 -62 -15 l-38 0 0 -120 0 -121 37 3 c21 1
38 -3 40 -9 3 -8 20 -10 54 -6 45 5 49 4 49 -16 0 -16 -6 -21 -25 -21 -13 0
-36 -5 -50 -12 -20 -9 -31 -8 -50 2 -20 11 -27 11 -40 0 -13 -11 -15 -118 -15
-936 l0 -924 118 6 c64 4 119 11 120 16 2 4 14 8 27 8 48 0 79 91 70 210 -14
192 -12 211 22 261 59 85 174 147 246 134 83 -16 122 -92 131 -254 4 -62 8
-117 10 -120 3 -4 7 -27 10 -52 3 -25 10 -58 16 -73 5 -15 10 -41 10 -57 0
-16 4 -37 10 -47 14 -25 61 -223 63 -265 1 -22 7 -37 15 -37 7 0 13 -16 13
-42 3 -66 4 -72 10 -83 10 -15 14 -59 7 -71 -4 -6 -3 -26 2 -45 5 -19 10 -54
12 -79 2 -25 6 -50 10 -55 9 -15 8 -107 -1 -119 -4 -6 -8 -22 -9 -35 0 -13 -8
-31 -16 -40 -9 -10 -16 -25 -16 -34 0 -9 -4 -17 -10 -17 -5 0 -19 -18 -30 -39
-11 -22 -42 -63 -70 -92 -27 -29 -50 -56 -50 -61 0 -4 -6 -8 -14 -8 -7 0 -32
-18 -54 -40 -22 -22 -45 -40 -51 -40 -13 0 -13 -4 -2 -52 7 -30 6 -38 -5 -38
-8 0 -14 -9 -14 -19 0 -11 -17 -33 -38 -50 -40 -31 -42 -36 -72 -196 -15 -81
-30 -125 -41 -125 -5 0 -9 -6 -9 -12 0 -7 -9 -24 -19 -37 -15 -19 -16 -29 -8
-42 8 -12 7 -33 -3 -74 -12 -50 -12 -59 3 -85 9 -15 17 -35 17 -43 0 -9 9 -26
21 -39 12 -13 27 -41 34 -62 12 -34 11 -44 -4 -84 -18 -45 -18 -45 10 -126 16
-44 29 -95 29 -111 0 -17 5 -36 11 -42 17 -17 39 -116 33 -151 -8 -43 -76
-146 -111 -169 -15 -10 -34 -26 -41 -35 -7 -10 -32 -29 -56 -43 -23 -14 -48
-35 -55 -48 -7 -13 -25 -31 -41 -40 -17 -10 -31 -29 -35 -46 -3 -16 -13 -35
-21 -41 -7 -7 -11 -16 -8 -21 3 -5 -5 -9 -17 -9 -17 0 -19 3 -10 14 9 11 7 15
-9 19 -11 3 -19 11 -18 18 4 18 -41 39 -84 39 l-38 0 0 -485 0 -485 34 0 c25
0 36 -5 41 -18 3 -11 22 -24 45 -31 22 -6 40 -16 40 -21 0 -6 9 -10 19 -10 21
0 37 -33 25 -52 -15 -24 -3 -120 22 -168 35 -66 71 -97 129 -109 28 -5 86 -19
130 -30 44 -12 94 -21 112 -21 17 0 35 -4 38 -10 8 -13 245 -11 245 2 0 6 6 5
15 -2 11 -9 19 -9 28 -2 7 6 57 13 112 16 138 8 230 34 241 68 4 15 51 37 93
44 7 2 25 14 40 27 14 14 36 28 48 31 12 4 32 19 43 33 11 14 20 23 20 20 0
-9 134 64 142 77 8 14 108 22 108 9 0 -9 42 -57 115 -135 19 -20 35 -42 35
-49 0 -6 7 -17 14 -23 8 -6 16 -18 18 -26 4 -18 23 -40 36 -40 6 0 12 -4 14
-8 5 -12 65 -52 77 -52 7 0 24 -9 39 -19 15 -11 56 -25 92 -31 36 -7 70 -15
75 -20 6 -4 50 -11 100 -15 49 -4 93 -9 97 -11 14 -9 226 65 254 88 57 48 84
76 84 87 0 6 10 25 22 42 15 20 19 32 12 37 -17 11 -5 82 14 82 12 0 12 4 -4
21 -19 21 -18 21 8 44 14 12 23 27 18 31 -4 5 -10 29 -14 54 -6 52 -10 76 -26
145 -6 28 -9 69 -6 92 3 24 1 54 -4 67 -6 17 -5 26 2 28 7 3 6 11 -3 25 -11
19 -11 25 2 40 9 10 22 38 29 63 16 50 58 110 78 110 6 0 12 7 12 15 0 8 4 15
10 15 5 0 20 16 32 35 13 19 28 35 33 35 6 0 26 13 45 30 19 16 42 29 51 30 9
0 22 6 28 14 15 18 114 38 191 38 304 -1 299 -2 440 46 66 22 92 26 210 25
119 0 140 -2 177 -21 23 -12 52 -22 63 -22 11 0 33 -8 47 -17 23 -15 50 -18
163 -18 200 1 730 15 765 20 17 2 50 7 75 11 25 3 52 8 60 11 8 3 49 7 90 9
41 2 95 8 120 13 26 6 124 7 222 4 204 -6 374 11 515 53 56 17 131 19 448 14
111 -2 207 1 251 9 39 7 120 13 179 14 l108 2 20 -35 c57 -102 -34 -222 -223
-293 -36 -14 -94 -38 -130 -55 -133 -64 -333 -117 -401 -109 -181 23 -207 21
-252 -17 -28 -24 -77 -91 -77 -104 0 -5 -17 -24 -37 -44 -38 -36 -107 -68
-363 -168 -232 -90 -284 -108 -468 -160 -181 -51 -420 -131 -507 -169 -75 -33
-181 -107 -243 -169 -109 -109 -142 -219 -122 -403 6 -57 15 -189 20 -294 6
-104 11 -197 12 -205 2 -8 -3 -95 -11 -193 -15 -183 -13 -218 21 -364 11 -49
9 -63 -45 -280 -134 -539 -157 -688 -122 -793 22 -65 58 -107 163 -186 47 -35
97 -83 114 -109 17 -26 38 -49 46 -52 8 -3 69 10 136 30 163 49 210 58 255 51
38 -6 39 -7 45 -57 9 -62 70 -159 163 -258 72 -78 78 -96 69 -235 -13 -212
-22 -230 -146 -278 -41 -16 -79 -35 -85 -42 -12 -15 -87 -37 -135 -39 -48 -2
-100 -15 -100 -24 0 -4 -19 -14 -42 -21 -24 -8 -47 -17 -53 -21 -5 -4 -33 -15
-61 -24 -50 -16 -52 -16 -85 4 -48 30 -102 28 -127 -4 -12 -15 -30 -25 -46
-25 -14 0 -26 -4 -26 -10 0 -5 -20 -10 -45 -10 -25 0 -45 -4 -45 -9 0 -5 -14
-12 -31 -16 -18 -4 -35 -16 -41 -31 -6 -13 -17 -24 -23 -24 -7 0 -15 -15 -19
-33 -5 -29 -12 -55 -16 -67 -1 -3 -2 -9 -1 -13 1 -5 -8 -11 -19 -14 -11 -3
-20 -12 -20 -19 0 -8 -14 -17 -31 -21 -23 -4 -29 -10 -26 -23 3 -13 0 -16 -13
-13 -20 5 -36 -12 -20 -22 21 -13 9 -27 -19 -22 -25 5 -28 4 -24 -17 3 -16 -1
-25 -14 -29 -10 -4 -27 -12 -38 -18 -39 -24 -50 -30 -80 -43 -16 -8 -41 -28
-55 -45 -14 -16 -29 -30 -34 -31 -5 0 -24 -11 -42 -25 -18 -14 -37 -25 -43
-25 -5 0 -17 -10 -25 -21 -8 -12 -27 -23 -41 -25 -15 -1 -35 -10 -44 -18 -24
-22 -31 -20 -31 9 0 14 -3 26 -7 26 -64 10 -73 8 -73 -11 0 -13 7 -20 20 -20
11 0 20 -4 20 -10 0 -14 -37 -13 -42 2 -3 7 -12 9 -23 4 -16 -6 -17 -9 -5 -16
11 -7 12 -10 2 -10 -8 0 -10 -5 -6 -12 5 -8 2 -9 -9 -5 -10 4 -17 1 -17 -5 0
-6 -3 -8 -6 -5 -4 4 -1 13 6 22 10 13 9 15 -7 15 -10 0 -25 -6 -31 -12 -10
-10 -17 -10 -32 0 -38 23 -85 6 -78 -29 2 -8 -8 -15 -22 -17 -13 -2 -32 -13
-41 -23 -10 -12 -23 -17 -33 -13 -9 4 -16 1 -16 -6 0 -7 -14 -26 -30 -42 -17
-15 -30 -35 -30 -44 0 -10 -6 -14 -14 -11 -10 4 -22 -9 -36 -39 -12 -24 -30
-49 -40 -54 -58 -31 -4 -90 83 -90 18 0 41 -6 52 -14 27 -18 108 -6 162 25 89
51 173 119 173 139 0 46 48 127 96 164 27 19 54 39 59 43 26 21 79 51 175 103
158 85 222 121 252 142 14 10 28 18 31 18 3 0 61 35 129 78 145 92 273 156
293 148 11 -4 15 -21 15 -61 0 -30 3 -55 8 -55 4 0 142 67 307 149 277 138
358 182 625 340 52 31 99 58 105 61 31 15 115 67 145 90 87 67 337 209 442
251 83 34 126 39 203 24 80 -15 93 -11 143 44 37 41 77 121 117 235 26 73 27
85 19 148 -12 83 -3 114 49 186 57 77 157 286 173 360 21 103 18 178 -10 237
-14 27 -22 54 -19 60 28 48 54 70 120 101 74 35 223 120 353 201 36 23 130 74
210 113 213 107 289 160 451 315 130 124 155 136 305 146 69 4 145 11 169 15
50 7 124 -8 200 -39 75 -32 79 -38 134 -188 35 -97 36 -109 19 -228 -11 -79
-22 -106 -39 -96 -3 3 -11 -7 -17 -20 -7 -14 -15 -25 -19 -25 -5 0 -24 -14
-43 -30 -19 -17 -52 -36 -72 -42 -26 -8 -38 -17 -38 -30 0 -10 -7 -18 -17 -18
-9 0 -31 -11 -49 -25 -18 -14 -40 -25 -48 -25 -9 0 -16 -8 -16 -17 0 -10 -18
-31 -40 -46 -22 -16 -40 -35 -40 -43 0 -8 -4 -14 -10 -14 -24 0 -120 -115
-125 -150 -2 -16 -31 -70 -37 -70 -5 0 -8 -18 -8 -40 0 -29 -4 -40 -15 -40
-11 0 -15 -11 -15 -40 0 -29 -4 -40 -15 -40 -23 0 -18 -15 9 -30 l25 -13 -22
-17 c-18 -15 -19 -20 -9 -33 8 -9 16 -61 20 -126 7 -102 6 -110 -11 -115 -14
-3 -17 -10 -12 -24 3 -11 1 -24 -6 -27 -8 -6 -8 -9 1 -15 10 -6 9 -15 -1 -44
-7 -20 -17 -36 -21 -36 -4 0 -8 -18 -8 -40 0 -22 -4 -40 -9 -40 -5 0 -12 -18
-16 -40 -4 -25 -12 -40 -21 -40 -8 0 -14 -9 -14 -20 0 -11 -5 -20 -10 -20 -6
0 -16 -12 -22 -27 -12 -29 -68 -93 -80 -93 -3 0 -25 -18 -47 -40 -22 -22 -48
-40 -57 -40 -9 0 -18 -9 -21 -20 -3 -10 -13 -22 -23 -25 -10 -3 -26 -17 -35
-32 -12 -17 -20 -22 -24 -14 -5 8 -16 -1 -32 -24 -24 -36 -83 -75 -114 -75 -8
0 -15 -7 -15 -15 0 -11 -11 -15 -39 -15 -22 0 -52 -5 -68 -11 -34 -13 -315
-13 -323 1 -7 11 -50 1 -50 -11 0 -12 -117 -2 -187 16 -37 9 -60 22 -79 44
-15 18 -43 40 -63 50 -32 16 -124 43 -144 41 -4 0 -20 6 -37 15 -40 21 -64 19
-108 -9 -20 -12 -84 -46 -142 -74 -137 -67 -271 -148 -320 -195 -30 -28 -40
-45 -40 -68 0 -24 3 -30 16 -25 9 3 27 6 40 6 16 0 24 6 24 17 0 36 51 82 147
130 130 66 209 97 230 89 9 -4 20 -1 24 6 4 7 11 10 14 6 4 -4 -8 -30 -27 -58
-26 -41 -37 -50 -55 -47 -13 2 -23 -1 -23 -8 0 -6 -14 -30 -32 -53 -25 -33
-39 -42 -63 -42 -17 0 -42 -8 -55 -17 -18 -13 -44 -18 -89 -18 -46 0 -66 -4
-69 -14 -6 -17 -36 -47 -53 -53 -22 -7 19 -98 64 -142 47 -45 92 -66 142 -66
56 0 170 43 279 105 55 31 105 54 113 51 23 -9 15 -60 -14 -87 -38 -35 -129
-99 -140 -99 -5 0 -33 -13 -63 -28 -30 -16 -95 -36 -145 -46 -90 -17 -155 -42
-155 -58 0 -4 -5 -8 -11 -8 -6 0 -32 -15 -58 -34 -25 -19 -63 -37 -84 -41 -20
-4 -37 -11 -37 -15 0 -4 -30 -16 -67 -25 -38 -10 -78 -24 -90 -31 -12 -8 -28
-14 -35 -14 -7 0 -34 -22 -60 -48 -26 -26 -69 -58 -95 -72 -26 -14 -50 -28
-51 -33 -2 -4 -12 -7 -23 -7 -24 0 -52 -15 -109 -60 -25 -20 -66 -44 -91 -53
-25 -10 -56 -29 -69 -42 -13 -14 -29 -25 -35 -25 -7 0 -20 -9 -29 -19 -10 -11
-32 -27 -49 -36 -18 -8 -41 -21 -51 -28 -11 -6 -45 -27 -75 -46 -31 -19 -62
-43 -69 -53 -7 -10 -20 -18 -28 -18 -8 0 -14 -4 -14 -9 0 -5 -10 -13 -23 -17
-12 -4 -36 -17 -53 -30 -17 -13 -37 -24 -44 -24 -7 0 -28 -13 -47 -30 -18 -16
-42 -30 -51 -30 -10 0 -23 -5 -29 -11 -7 -7 -19 -8 -30 -4 -10 5 -22 7 -26 6
-4 0 -22 6 -39 15 -26 14 -38 14 -64 5 -17 -6 -39 -9 -48 -5 -9 3 -16 1 -16
-5 0 -6 -7 -11 -15 -11 -9 0 -18 -7 -21 -15 -6 -16 -54 -21 -54 -7 0 5 -11 14
-24 20 -23 10 -24 10 -13 -25 10 -31 9 -37 -8 -49 -10 -8 -29 -14 -41 -14 -13
0 -25 -4 -28 -9 -3 -4 -28 -11 -56 -15 -35 -5 -53 -13 -60 -26 -7 -13 -26 -22
-51 -26 -35 -6 -40 -10 -35 -28 6 -26 -49 -68 -93 -70 -16 -1 -33 -5 -37 -9
-4 -4 -15 -7 -25 -7 -10 0 -23 -9 -29 -20 -6 -11 -23 -23 -38 -26 -15 -4 -33
-16 -40 -26 -11 -15 -17 -16 -35 -7 -16 9 -22 9 -25 0 -2 -6 -12 -11 -21 -11
-10 0 -25 -8 -35 -18 -13 -15 -25 -18 -61 -12 -25 4 -45 4 -45 0 0 -4 -16 -15
-35 -24 -19 -9 -35 -21 -35 -26 0 -6 -6 -9 -12 -8 -8 2 -17 -14 -22 -39 -9
-38 -31 -58 -59 -54 -15 2 -47 -20 -47 -32 0 -19 -60 -67 -84 -67 -12 0 -29
-11 -39 -24 -12 -16 -33 -27 -60 -31 -26 -5 -51 -18 -71 -39 -17 -17 -43 -39
-58 -49 -21 -13 -28 -26 -28 -48 0 -17 -4 -28 -9 -25 -11 7 -21 -17 -21 -50 0
-15 -10 -30 -27 -41 -16 -10 -30 -20 -33 -23 -3 -4 -13 -9 -22 -13 -21 -8 -25
-72 -5 -80 7 -3 6 -6 -5 -6 -12 -1 -18 -12 -20 -38 -2 -23 -8 -37 -15 -36 -8
2 -10 -4 -6 -14 4 -10 2 -14 -4 -10 -16 10 -24 -18 -10 -32 9 -9 8 -15 -5 -22
-20 -11 -23 -31 -8 -60 10 -17 13 -18 26 -4 9 8 30 15 48 15 30 0 33 2 28 25
-4 21 0 25 19 27 13 0 31 1 39 2 8 1 23 -7 32 -16 22 -22 37 -23 44 -3 7 18
44 20 45 3 1 -25 8 -50 14 -56 6 -6 63 8 175 43 31 10 111 21 185 25 120 7
209 21 222 33 2 3 -3 40 -13 83 -19 87 -16 288 6 335 12 27 139 108 360 230
63 35 173 99 245 142 123 74 170 96 181 84 3 -3 9 -33 14 -66 14 -101 72 -179
210 -284 122 -92 153 -122 171 -164 10 -24 22 -43 27 -43 18 0 274 91 313 110
21 11 43 20 48 20 6 0 99 43 208 96 358 174 501 220 648 211 136 -8 206 -54
277 -184 23 -41 38 -60 38 -48 0 13 7 21 18 21 9 1 24 3 32 5 9 2 16 -4 18
-19 2 -13 10 -22 21 -22 10 0 21 -3 24 -6 8 -9 -34 -54 -51 -54 -7 0 -15 -7
-18 -15 -14 -36 -44 -15 -85 60 -22 41 -44 75 -49 75 -4 0 -13 -7 -20 -15 -9
-11 -22 -14 -39 -10 -15 3 -46 -1 -70 -10 -55 -19 -102 -20 -95 -2 7 20 130
78 148 71 11 -4 16 -1 16 10 0 9 5 16 12 16 8 0 6 6 -5 17 -15 16 -20 16 -74
-1 -32 -10 -103 -40 -158 -66 -55 -26 -111 -50 -125 -53 -14 -4 -51 -22 -84
-42 -32 -19 -62 -35 -67 -35 -5 0 -9 -7 -9 -15 0 -9 -11 -20 -25 -25 -25 -9
-31 -21 -19 -33 3 -3 7 -40 8 -81 2 -59 7 -81 26 -108 59 -86 123 -104 240
-69 39 12 76 19 82 15 6 -4 8 -3 5 3 -11 17 18 34 42 25 21 -7 21 -8 -9 -32
-17 -14 -43 -37 -57 -52 -15 -16 -32 -28 -39 -28 -7 0 -14 -5 -16 -11 -5 -14
-135 -38 -175 -32 -29 5 -50 0 -118 -27 -56 -22 -89 -30 -190 -46 -64 -10
-114 -23 -120 -31 -11 -14 -24 -13 -142 17 -32 8 -33 7 -27 -18 4 -15 11 -35
16 -45 5 -10 8 -20 6 -21 -12 -10 -76 -26 -104 -26 -18 0 -35 -4 -38 -9 -6 -9
-93 -22 -158 -24 -33 -1 -38 -4 -38 -24 0 -13 -5 -23 -11 -23 -6 0 -9 7 -5 15
7 19 -7 19 -42 1 -15 -8 -48 -17 -72 -20 -70 -8 -80 -11 -99 -28 -13 -11 -22
-13 -29 -6 -7 7 -14 3 -22 -12 -10 -19 -18 -22 -56 -17 -24 2 -47 0 -50 -5 -3
-5 -27 -9 -52 -9 -26 0 -62 0 -81 -1 -18 0 -36 4 -40 10 -4 7 -12 8 -21 2 -21
-14 -57 -12 -63 3 -3 6 -3 -3 0 -22 l6 -34 -45 6 c-37 5 -49 3 -67 -14 -12
-11 -19 -24 -16 -30 4 -5 2 -9 -3 -9 -5 0 -12 9 -15 19 -5 20 23 53 53 64 10
4 8 6 -7 6 -30 1 -38 18 -13 31 34 18 23 30 -28 30 -26 0 -53 5 -59 11 -15 15
-33 2 -33 -24 0 -14 -11 -29 -27 -40 -28 -17 -28 -17 -6 -23 14 -4 23 -14 23
-25 0 -15 -5 -18 -24 -13 -16 4 -25 1 -29 -10 -4 -11 -1 -16 10 -16 13 0 13
-3 3 -15 -7 -8 -24 -15 -37 -15 -21 0 -25 -4 -21 -24 5 -25 -23 -49 -30 -27
-2 7 -11 7 -25 -1 -12 -7 -26 -11 -30 -10 -15 4 -92 -21 -109 -36 -11 -9 -27
-12 -46 -7 -19 4 -33 1 -41 -8 -6 -8 -33 -18 -59 -22 -46 -8 -61 -9 -113 -13
-17 -1 -29 -9 -32 -22 -4 -14 -10 -18 -23 -13 -10 3 -22 0 -28 -8 -15 -19 -52
-39 -71 -39 -8 0 -15 -6 -15 -13 0 -7 -21 -19 -48 -27 -26 -7 -67 -24 -92 -37
-41 -21 -110 -44 -180 -60 -23 -6 -148 -79 -160 -94 -3 -3 -18 -9 -35 -13 -16
-4 -37 -14 -46 -22 -9 -9 -31 -17 -49 -19 -18 -2 -38 -9 -46 -16 -8 -6 -20 -9
-28 -6 -8 3 -16 1 -18 -5 -2 -6 -11 -13 -19 -15 -7 -1 -45 -9 -84 -17 -38 -8
-71 -19 -73 -25 -2 -6 -28 -11 -57 -11 -52 0 -105 -15 -105 -31 0 -4 -23 -12
-50 -19 -28 -7 -53 -16 -56 -21 -3 -5 -16 -9 -29 -9 -13 0 -27 -4 -30 -10 -3
-5 -16 -10 -28 -10 -13 0 -30 -9 -39 -20 -10 -11 -30 -22 -45 -26 -15 -3 -33
-12 -38 -19 -14 -16 -110 -65 -130 -65 -9 0 -18 -7 -21 -15 -4 -8 -14 -15 -23
-15 -9 0 -31 -13 -49 -29 -17 -17 -32 -26 -32 -20 0 20 -27 8 -39 -17 -11 -24
-16 -26 -54 -21 -39 5 -126 -9 -137 -22 -5 -6 -15 -11 -108 -51 -28 -13 -52
-26 -52 -29 0 -3 -19 -12 -42 -19 -23 -7 -48 -22 -56 -33 -9 -14 -20 -18 -34
-13 -11 3 -18 2 -16 -2 3 -5 2 -18 -3 -29 -7 -19 -8 -19 -8 -1 -1 19 -1 19
-22 0 -17 -15 -23 -16 -40 -6 -16 11 -19 9 -19 -8 0 -18 -7 -20 -54 -20 -29 0
-75 -9 -102 -19 -27 -11 -70 -25 -97 -32 -26 -8 -47 -17 -47 -21 0 -4 -11 -8
-24 -8 -13 0 -37 -7 -52 -15 -16 -8 -43 -15 -61 -15 -17 0 -35 -4 -38 -10 -3
-5 -24 -14 -45 -20 -24 -6 -40 -17 -40 -25 0 -8 -9 -15 -19 -15 -11 0 -23 -4
-26 -10 -3 -5 -14 -10 -24 -10 -9 0 -27 -11 -39 -25 -12 -14 -27 -25 -32 -25
-6 0 -16 -4 -23 -10 -7 -5 -27 -21 -44 -36 -18 -14 -33 -31 -33 -36 0 -6 -7
-16 -16 -22 -11 -9 -13 -18 -6 -35 8 -23 27 -30 88 -35 15 -1 19 -6 16 -19 -3
-12 2 -17 16 -17 28 0 36 -83 9 -107 -12 -11 -14 -20 -7 -27 14 -14 12 -26 -5
-26 -10 0 -15 -10 -15 -28 0 -32 -39 -84 -65 -88 -33 -5 -47 -14 -41 -29 3 -9
-1 -15 -10 -15 -15 0 -76 -43 -113 -79 -8 -7 -27 -18 -43 -23 -17 -6 -28 -17
-28 -28 0 -11 -5 -22 -10 -25 -6 -4 -10 -187 -10 -517 0 -461 2 -510 16 -504
9 3 22 6 30 6 7 0 16 11 20 25 4 18 13 25 29 25 13 0 25 6 28 13 2 7 33 21 68
31 61 18 98 34 109 47 3 3 26 14 52 25 27 10 48 22 48 25 0 4 19 11 43 17 23
6 56 14 72 18 17 5 35 8 42 9 7 0 18 6 25 13 6 6 17 12 24 12 6 0 17 7 24 15
7 9 20 13 28 10 8 -3 20 1 26 9 7 9 41 19 87 24 42 6 86 15 98 21 12 7 41 11
66 10 30 -2 50 3 63 14 19 17 76 24 247 32 134 6 231 19 248 34 9 7 21 10 26
7 5 -4 13 -1 16 4 4 6 19 10 33 9 46 -4 124 13 180 39 37 16 63 22 83 18 18
-3 45 1 66 9 19 8 55 15 79 15 23 0 46 5 49 10 3 6 17 10 31 10 13 0 24 5 24
10 0 6 15 8 40 4 27 -4 40 -3 40 5 0 14 45 14 73 0 18 -10 24 -8 42 14 19 21
37 27 110 36 49 7 96 16 104 20 9 4 50 14 91 21 41 7 80 17 86 22 6 4 19 6 27
2 9 -3 24 1 32 10 11 10 34 16 63 16 25 0 66 8 90 17 36 13 55 15 103 7 32 -6
59 -7 59 -3 0 3 19 3 42 -1 22 -4 76 -6 119 -3 71 5 78 4 90 -16 12 -18 23
-21 81 -21 38 0 68 -4 68 -10 0 -5 7 -7 15 -4 8 3 38 -6 67 -20 28 -14 60 -26
69 -26 10 0 21 -4 24 -10 3 -5 19 -10 35 -10 20 0 33 -7 41 -22 l12 -22 18 22
c17 22 18 22 24 3 6 -18 17 -20 183 -23 145 -2 183 -6 211 -20 19 -10 54 -18
77 -18 33 0 47 -5 56 -20 16 -26 28 -26 28 0 0 14 7 20 21 20 14 0 19 5 16 14
-6 15 36 31 53 21 5 -3 11 -1 15 5 8 13 62 13 70 0 10 -16 44 -11 65 10 l20
20 0 -25 c0 -29 -2 -29 43 -10 20 8 55 15 77 15 37 0 40 -2 41 -27 0 -23 2
-24 8 -9 8 20 71 51 71 35 0 -6 19 -7 48 -3 26 3 66 1 87 -5 30 -8 54 -8 92 0
66 15 173 -4 173 -30 1 -14 2 -14 11 2 12 21 29 22 29 2 0 -12 13 -15 59 -15
44 0 60 -4 63 -15 3 -12 8 -12 36 2 27 13 35 14 42 3 6 -10 17 -11 53 -1 57
14 140 14 153 1 7 -7 20 -6 40 5 30 16 110 13 147 -7 11 -5 31 -5 52 1 31 8
35 7 35 -9 0 -9 7 -23 15 -30 9 -7 14 -19 11 -26 -4 -10 3 -12 26 -7 29 6 31
4 25 -18 -6 -23 -5 -24 53 -22 32 1 68 6 79 12 11 6 45 11 75 11 31 0 56 5 56
10 0 6 7 10 15 10 8 0 15 -4 15 -9 0 -5 11 -12 25 -15 14 -4 24 -12 22 -19 -1
-6 5 -12 13 -12 8 0 14 6 12 13 -4 21 22 24 68 8 23 -8 49 -12 56 -9 18 7 19
-23 2 -31 -7 -3 8 -4 34 -2 27 2 46 0 42 -5 -3 -5 13 -9 35 -9 21 0 41 -5 43
-11 5 -15 129 -27 341 -33 152 -5 177 -4 177 9 0 19 29 19 36 0 6 -15 70 -15
108 1 10 4 27 2 37 -5 13 -7 19 -8 19 0 0 6 9 8 21 4 12 -4 137 -9 278 -12
141 -2 267 -5 281 -5 86 -2 179 9 195 22 14 11 19 12 22 3 3 -8 21 -13 44 -13
30 0 39 4 40 18 0 12 3 11 10 -7 7 -17 14 -21 27 -16 37 17 274 22 280 7 4
-13 182 -3 252 13 93 22 265 23 298 2 6 -5 12 -4 12 1 0 6 14 7 38 1 20 -5 92
-12 160 -15 98 -5 122 -3 122 8 0 8 5 6 11 -5 10 -17 12 -17 29 -2 13 12 20
13 25 5 5 -8 35 -11 89 -9 81 3 166 -8 166 -20 0 -4 17 -7 38 -8 109 -1 122
-3 122 -18 0 -9 20 -18 61 -27 48 -10 63 -17 70 -35 9 -25 34 -29 73 -11 23
10 29 8 50 -15 26 -28 46 -35 46 -17 0 19 17 10 30 -16 13 -23 19 -25 62 -22
33 2 48 -1 48 -9 0 -13 68 -36 81 -27 5 2 43 -13 86 -34 43 -22 96 -42 118
-46 22 -4 67 -20 100 -36 75 -35 125 -51 136 -45 4 3 11 -1 16 -8 11 -19 51
-39 63 -32 5 3 7 0 4 -8 -3 -9 8 -18 36 -27 22 -7 40 -16 40 -20 0 -4 12 -13
28 -19 15 -7 43 -35 62 -64 22 -33 44 -53 58 -55 13 -2 28 -14 34 -28 6 -13
16 -24 22 -24 6 0 19 -9 31 -20 53 -51 67 -60 90 -60 15 0 38 -6 53 -14 39
-20 129 -39 143 -30 18 11 199 14 199 3 0 -5 11 -9 25 -9 13 0 29 -8 35 -17 8
-13 13 -15 17 -5 3 9 12 5 28 -13 13 -14 34 -25 47 -25 13 0 32 -7 42 -15 11
-8 30 -15 43 -15 13 0 26 -7 29 -15 4 -8 16 -15 29 -15 12 0 28 -7 35 -15 7
-8 18 -15 25 -15 7 0 18 -7 25 -15 7 -8 17 -12 22 -9 6 4 20 -5 32 -18 11 -14
44 -33 71 -43 28 -10 58 -25 68 -34 10 -8 42 -27 70 -41 31 -15 51 -31 49 -39
-2 -9 4 -12 18 -8 11 3 20 1 20 -3 0 -5 19 -18 43 -30 23 -12 51 -36 61 -53
35 -61 82 -152 96 -187 7 -19 22 -47 31 -61 10 -14 28 -57 40 -95 12 -38 26
-73 31 -79 4 -5 8 559 8 1253 0 1237 0 1262 -19 1262 -11 0 -21 4 -23 8 -1 4
-20 18 -40 31 -21 12 -38 27 -38 32 0 5 -8 9 -18 9 -9 0 -23 9 -30 20 -7 11
-21 20 -32 20 -13 0 -20 7 -20 20 0 12 -7 20 -16 20 -9 0 -23 17 -32 40 -11
25 -24 40 -34 40 -11 0 -18 8 -18 20 0 19 -39 37 -67 32 -7 -2 -13 4 -13 12 0
8 -4 16 -8 18 -4 2 -21 20 -36 41 -27 35 -28 40 -17 77 6 22 16 40 21 40 6 0
10 9 10 19 0 11 5 23 10 26 19 12 10 35 -12 35 -22 1 -22 1 -3 12 36 21 58 47
59 70 0 13 7 24 14 24 6 1 17 2 23 3 7 1 9 11 5 26 -6 25 8 36 17 13 3 -7 6
18 6 55 1 39 7 80 16 97 8 16 20 64 26 107 13 95 47 238 65 275 8 15 13 31 12
35 -4 16 13 83 21 83 5 0 11 8 13 18 3 10 22 26 42 36 21 10 34 22 30 28 -4 7
-2 8 4 4 6 -4 17 2 24 14 7 11 23 20 35 20 l23 0 0 6820 0 6820 -2788 0 -2788
0 -34 -30 c-19 -16 -40 -29 -45 -30 -6 0 -26 -13 -45 -30 -19 -16 -41 -29 -47
-30 -7 0 -18 -9 -25 -20 -7 -11 -16 -20 -21 -20 -4 0 -19 -12 -33 -27 -56 -63
-78 -83 -93 -83 -9 0 -21 -10 -26 -22 -6 -13 -16 -22 -23 -20 -7 1 -11 -2 -10
-7 2 -4 -21 -34 -49 -65 -29 -31 -53 -61 -53 -66 0 -6 -5 -10 -11 -10 -14 0
-33 -20 -42 -44 -4 -10 -13 -16 -21 -13 -10 4 -12 0 -9 -14 4 -14 0 -19 -13
-19 -22 -1 -64 -33 -64 -49 0 -5 -17 -13 -37 -17 -21 -4 -41 -12 -45 -17 -5
-8 -14 -7 -30 1 -13 7 -33 14 -45 17 -13 2 -38 15 -56 29 -19 14 -39 26 -44
26 -6 0 -16 21 -22 48 -7 26 -19 60 -27 75 -7 16 -14 39 -14 51 0 12 -4 26 -9
32 -4 5 -17 32 -27 59 -10 28 -25 55 -32 61 -8 6 -15 25 -16 42 0 18 -4 32 -8
32 -5 0 -8 14 -8 30 0 20 -5 30 -15 30 -10 0 -15 10 -15 34 0 71 31 66 -416
66 -263 0 -404 -3 -404 -10 0 -5 -8 -18 -18 -28 -10 -10 -26 -34 -35 -54 -10
-21 -22 -40 -27 -43 -6 -3 -10 -17 -10 -31 0 -31 -41 -93 -79 -119 -16 -10
-34 -30 -40 -42 -6 -13 -15 -23 -20 -23 -5 0 -21 -20 -35 -44 -14 -24 -32 -46
-41 -50 -8 -3 -15 -12 -15 -21 0 -10 -10 -15 -29 -15 -16 0 -31 -6 -33 -12 -7
-21 -220 -11 -288 13 -30 11 -56 24 -58 29 -2 6 -10 10 -18 10 -16 0 -54 70
-54 100 0 12 -4 19 -8 16 -16 -10 -67 125 -69 183 -2 31 -4 75 -5 99 l-3 42
-1706 0 c-1547 0 -1707 -1 -1713 -16 -3 -9 -6 -26 -6 -39 0 -13 -5 -25 -12
-27 -9 -3 -9 -11 1 -35 9 -23 10 -37 2 -51 -6 -11 -10 -57 -10 -103 l1 -84
-41 -37 c-45 -42 -92 -51 -110 -20 -9 14 -10 13 -11 -10 0 -16 -4 -28 -9 -28
-5 0 -7 9 -4 20 6 21 5 21 -30 0 -33 -19 -40 -20 -72 -9 -29 11 -38 11 -44 1
-6 -10 -28 -12 -82 -8 -41 3 -76 5 -78 5 -2 1 -1 10 2 21 4 16 0 20 -19 20
-13 0 -24 6 -24 13 0 19 -37 51 -42 37 -5 -15 -38 -1 -38 16 0 8 -9 14 -20 14
-14 0 -20 7 -20 24 0 20 6 25 40 31 39 7 52 19 28 28 -7 2 4 9 24 16 33 11 37
16 32 37 -5 20 -3 24 17 24 19 0 21 2 9 10 -8 5 -25 10 -38 10 -15 0 -26 8
-32 24 -5 13 -17 29 -26 34 -16 9 -16 11 4 23 20 13 20 13 -11 34 -27 19 -47
22 -137 23 -74 0 -112 -4 -130 -13z m213 -294 c12 -47 1 -50 -32 -10 -25 29
-30 32 -36 17 -8 -20 -30 -24 -40 -8 -11 17 5 32 21 19 11 -9 14 -8 14 4 0 10
9 14 32 13 27 -1 33 -6 41 -35z m7614 -323 c-3 -7 -5 -2 -5 12 0 14 2 19 5 13
2 -7 2 -19 0 -25z m53 10 c0 -16 -3 -19 -11 -11 -6 6 -8 16 -5 22 11 17 16 13
16 -11z m40 -9 c0 -5 -4 -9 -10 -9 -5 0 -10 7 -10 16 0 8 5 12 10 9 6 -3 10
-10 10 -16z m-155 1 c-3 -5 1 -10 9 -10 12 0 16 -10 16 -39 0 -22 4 -41 10
-43 6 -2 4 -13 -3 -28 -9 -17 -20 -24 -35 -23 -14 2 -22 -3 -22 -12 0 -11 -11
-15 -40 -15 -36 0 -40 -2 -40 -25 0 -22 -4 -25 -40 -25 -37 0 -40 -2 -40 -29
0 -25 -5 -30 -36 -36 -20 -3 -38 -4 -41 -1 -3 3 -21 -1 -41 -9 -25 -11 -38
-12 -47 -5 -9 8 -14 7 -18 -2 -7 -19 -53 30 -61 65 -5 19 -3 26 4 22 5 -3 10
-1 10 5 0 6 4 8 10 5 5 -3 15 6 22 20 28 61 211 145 318 145 36 0 40 3 40 25
0 16 6 25 16 25 8 0 12 -4 9 -10z m-3290 -219 c3 -5 1 -12 -5 -16 -5 -3 -10 1
-10 9 0 18 6 21 15 7z m200 -11 c11 -4 39 -26 62 -49 45 -44 48 -59 45 -188
-2 -49 -5 -63 -17 -63 -9 0 -44 -10 -78 -21 -86 -30 -229 -30 -262 1 -11 11
-27 20 -33 20 -7 0 -12 13 -12 29 0 17 -6 31 -16 35 -11 4 -14 13 -10 31 4 16
2 25 -5 25 -8 0 -8 4 1 15 20 24 30 18 30 -17 0 -25 3 -29 10 -18 5 8 10 35
10 60 0 25 5 62 11 84 9 34 13 38 37 33 15 -3 42 2 61 11 26 12 37 13 52 4 25
-16 26 -15 32 8 5 21 25 21 82 0z m2713 -107 c-10 -2 -26 -2 -35 0 -10 3 -2 5
17 5 19 0 27 -2 18 -5z m-2578 -157 c0 -3 -4 -8 -10 -11 -5 -3 -10 -1 -10 4 0
6 5 11 10 11 6 0 10 -2 10 -4z m-2963 -2226 c15 -16 35 -30 44 -30 15 0 22
-17 60 -146 21 -70 3 -189 -39 -270 -5 -10 -15 -32 -21 -47 -17 -44 -61 -55
-248 -67 -238 -14 -280 -18 -353 -29 -52 -8 -70 -7 -94 4 -16 8 -34 15 -40 15
-10 0 -58 66 -129 175 -15 23 -32 64 -38 91 -5 27 -14 66 -18 86 -5 21 -13 43
-19 50 -9 11 -17 94 -13 139 2 28 49 39 169 40 472 0 512 1 694 17 9 1 29 -11
45 -28z m1092 -55 c120 -16 228 -111 238 -210 1 -16 4 -38 7 -47 2 -10 -1 -16
-7 -15 -6 1 -13 -8 -15 -20 -6 -42 -110 -97 -217 -115 -33 -5 -67 -13 -75 -17
-21 -11 -91 9 -98 28 -3 9 -11 21 -17 26 -30 25 -58 121 -58 196 -1 83 9 108
66 163 31 30 30 30 176 11z m-2194 -565 c-3 -5 -16 -10 -28 -9 -21 0 -21 1 -2
9 28 12 37 12 30 0z m835 -139 c0 -3 57 -6 126 -6 l126 0 -5 -43 c-3 -31 -1
-45 11 -51 12 -7 9 -12 -17 -26 -18 -9 -38 -14 -44 -12 -7 2 -58 -1 -114 -8
-56 -7 -114 -10 -129 -7 -14 2 -29 0 -33 -6 -3 -6 -35 -15 -69 -21 -63 -10
-82 -17 -82 -29 0 -4 77 -7 170 -7 94 0 162 3 153 7 -17 6 57 14 82 8 6 -1 27
-4 47 -6 57 -7 107 -32 120 -59 6 -14 14 -25 18 -25 4 0 12 -19 19 -42 7 -24
19 -58 27 -77 8 -19 17 -61 20 -95 5 -50 1 -74 -20 -131 -23 -65 -32 -135 -16
-135 4 0 12 -11 18 -25 8 -17 34 -36 74 -55 55 -26 74 -30 151 -30 48 0 87 -4
87 -8 0 -8 17 -17 120 -59 34 -13 39 -13 103 17 58 27 79 31 150 31 45 0 89 0
97 -1 8 0 36 2 61 5 36 4 49 1 67 -15 11 -11 26 -20 31 -20 13 0 12 -71 -2
-87 -5 -7 -18 -13 -27 -13 -27 0 -44 -59 -31 -104 6 -24 6 -36 0 -36 -6 0 -7
-5 -4 -10 10 -16 -53 -160 -86 -198 -16 -18 -29 -36 -29 -40 0 -4 -14 -13 -31
-19 -17 -7 -33 -21 -36 -32 -4 -15 -13 -21 -32 -21 -19 0 -29 -8 -39 -29 -9
-20 -22 -31 -43 -35 -18 -3 -33 -13 -36 -25 -2 -10 -19 -29 -36 -41 -28 -21
-29 -24 -11 -31 19 -7 19 -7 0 -15 -13 -5 -21 -3 -24 4 -4 14 -58 16 -67 2 -3
-5 -12 -7 -20 -4 -8 4 -13 10 -10 14 11 17 -25 39 -54 34 -16 -4 -32 -1 -35 5
-4 6 -18 11 -32 11 -15 0 -24 6 -24 15 0 14 -29 20 -79 17 -8 0 -22 9 -31 20
-15 20 -20 20 -68 8 -43 -11 -58 -11 -94 1 -24 8 -45 14 -48 15 -18 2 -88 38
-105 54 -11 10 -38 22 -59 26 -48 8 -136 91 -136 128 0 27 39 126 50 126 4 0
10 12 13 26 4 21 -1 30 -29 46 l-34 20 0 84 c0 77 -2 84 -20 84 -11 0 -20 7
-20 15 0 22 -35 32 -115 33 -71 0 -130 15 -121 31 3 4 -6 19 -19 31 -14 13
-25 31 -25 41 0 9 -7 22 -15 29 -31 26 -87 140 -81 163 31 105 37 137 32 178
-9 63 18 119 78 166 l48 37 -28 23 c-16 13 -36 23 -45 23 -8 0 -23 6 -32 13
-27 19 -13 123 19 140 24 12 324 20 324 8z m1423 -165 c9 -7 17 -19 17 -25 0
-19 30 -71 56 -100 14 -14 33 -35 43 -46 20 -21 33 -63 33 -107 1 -37 -21 -88
-38 -88 -8 0 -14 -4 -14 -9 0 -5 -15 -14 -33 -20 -18 -6 -40 -20 -50 -31 -9
-11 -24 -20 -32 -20 -11 0 -15 -11 -15 -40 0 -26 -5 -40 -13 -40 -7 0 -19 -9
-27 -20 -24 -33 -70 -19 -70 20 0 9 -20 34 -45 56 -96 83 -116 147 -81 258 10
34 12 55 5 68 -6 12 -6 18 1 18 5 0 10 9 10 20 0 26 44 72 95 99 46 24 130 28
158 7z m7377 -456 c0 -4 21 -11 46 -15 25 -3 61 -15 79 -25 19 -10 50 -22 69
-26 20 -3 36 -11 36 -18 0 -10 73 -46 95 -46 6 0 17 -9 25 -21 8 -11 27 -27
43 -35 15 -8 27 -19 27 -26 0 -11 38 -48 49 -48 3 0 12 -15 19 -32 22 -54 28
-63 48 -66 20 -3 25 -9 61 -82 12 -25 33 -53 47 -64 14 -10 30 -34 35 -53 8
-29 7 -37 -11 -55 -15 -15 -22 -17 -28 -8 -5 8 -20 11 -41 8 -64 -10 -122 33
-146 107 -6 19 -17 31 -31 33 -32 5 -27 18 8 26 32 6 39 20 16 29 -8 3 -39 3
-70 0 -45 -5 -56 -9 -56 -24 0 -9 -6 -20 -12 -22 -7 -3 -3 -6 10 -6 25 -1 28
-13 7 -31 -11 -9 -27 -9 -69 0 -31 6 -58 16 -61 21 -4 5 -16 9 -29 9 -21 0
-22 -4 -24 -80 -1 -47 2 -80 8 -80 6 0 10 -16 10 -35 0 -19 9 -49 20 -67 11
-18 20 -41 20 -50 0 -10 9 -22 20 -28 22 -12 28 -50 8 -51 -10 0 -10 -2 0 -6
6 -2 12 -18 12 -34 0 -17 -4 -28 -9 -25 -12 8 -44 -31 -36 -43 13 -22 -26 -23
-49 -2 -12 12 -26 18 -29 14 -4 -3 -7 -2 -7 4 0 6 -11 14 -24 17 -13 3 -26 14
-30 23 -11 32 -31 57 -84 111 -75 74 -107 73 -194 -10 -38 -36 -123 -66 -173
-61 -88 10 -138 53 -148 125 -4 26 -17 65 -30 85 -28 44 -43 108 -27 118 5 3
10 14 10 24 0 25 39 59 49 43 4 -7 15 -10 24 -6 9 3 14 10 11 15 -3 5 -2 9 3
8 4 -1 21 3 37 10 16 6 43 11 60 9 30 -3 31 -2 31 39 0 29 6 46 18 56 17 11
18 18 8 55 -7 25 -22 49 -36 58 -13 8 -21 22 -19 29 3 8 -4 27 -16 43 -19 25
-21 38 -16 74 7 40 10 45 64 70 55 27 62 27 214 26 87 -1 158 -4 158 -8z
m-700 -120 c26 -8 42 -22 65 -59 16 -27 34 -47 39 -44 4 3 5 -10 1 -28 -4 -19
-8 -38 -9 -44 0 -5 -9 -16 -18 -23 -10 -7 -18 -21 -18 -30 0 -11 -16 -24 -42
-36 -63 -27 -151 -18 -235 25 -103 52 -127 114 -72 188 30 40 39 43 149 51 52
4 97 7 100 8 3 1 21 -3 40 -8z m-8800 -556 c0 -8 -4 -12 -10 -9 -5 3 -10 0
-10 -9 0 -8 -6 -17 -12 -20 -10 -5 -10 -7 0 -12 29 -14 2 -84 -33 -84 -11 0
-15 -5 -11 -15 8 -22 -16 -28 -81 -20 -52 6 -56 8 -38 21 18 13 18 15 2 27
-16 11 -16 14 -2 34 10 14 31 25 56 29 45 8 52 21 12 26 -66 7 -4 48 75 48 40
0 52 -3 52 -16z m10017 -231 c41 -5 42 -6 48 -48 11 -71 6 -80 -42 -77 -22 2
-44 -1 -48 -7 -12 -20 -33 -11 -44 19 -5 17 -15 30 -20 30 -6 0 -11 8 -11 19
0 10 -7 24 -15 31 -8 7 -15 16 -15 20 0 14 54 29 80 24 14 -3 44 -8 67 -11z
m-9231 -117 c15 -16 20 -86 5 -86 -4 0 -6 -11 -3 -25 5 -27 -2 -30 -57 -19
-26 5 -29 9 -19 21 9 11 9 16 -2 23 -10 6 -6 15 19 36 18 14 30 32 27 39 -4
12 2 25 11 25 3 0 11 -6 19 -14z m3944 -641 c9 -8 23 -15 31 -15 9 0 23 -6 33
-13 22 -16 14 -57 -10 -57 -10 0 -13 -6 -10 -18 7 -22 -28 -97 -49 -105 -8 -4
-15 -14 -15 -22 0 -9 -4 -13 -10 -10 -10 6 -60 -41 -60 -56 0 -4 -8 -10 -17
-13 -25 -8 -53 -61 -46 -86 4 -16 0 -23 -15 -26 -18 -5 -33 -39 -36 -84 -3
-39 -18 -60 -43 -60 -36 0 -86 38 -80 61 3 12 0 19 -9 19 -9 0 -14 11 -14 31
0 17 -11 45 -25 63 -26 34 -67 104 -85 144 -5 12 -14 22 -20 22 -15 0 -12 37
4 43 9 4 12 14 9 25 -3 14 6 28 34 48 21 16 42 35 46 41 4 7 16 13 26 13 20 0
66 18 146 55 42 20 61 23 124 20 47 -3 80 -10 91 -20z m1460 -705 c0 -28 -18
-68 -77 -170 -11 -19 -41 -77 -68 -127 -47 -91 -49 -93 -84 -93 -20 0 -68 -9
-106 -21 -39 -11 -95 -26 -125 -33 -30 -8 -76 -20 -102 -29 -41 -13 -48 -13
-48 -1 0 8 9 14 19 14 27 0 31 20 9 46 -13 14 -27 20 -44 16 -24 -4 -25 -2
-22 29 3 35 -2 31 137 105 8 4 57 50 109 102 l94 94 62 -4 c73 -6 100 3 135
42 22 25 80 58 104 60 4 0 7 -14 7 -30z m-2087 -500 c39 0 40 -1 21 -15 -31
-21 -37 -78 -13 -120 13 -21 26 -32 35 -28 10 4 14 -2 14 -20 0 -22 -6 -26
-37 -31 -38 -5 -127 -10 -150 -7 -16 1 -17 55 -3 82 7 13 7 25 1 38 -8 14 -7
20 4 25 8 3 23 21 32 41 9 19 23 35 30 35 8 0 14 15 15 43 l1 42 4 -42 4 -43
42 0z m7 40 c0 -5 -9 -10 -20 -10 -11 0 -20 5 -20 10 0 6 9 10 20 10 11 0 20
-4 20 -10z m1430 -31 c11 19 29 5 23 -18 -3 -11 -15 -21 -27 -23 -13 -2 -22
-11 -24 -26 -2 -12 -7 -20 -12 -17 -4 3 -24 -2 -44 -10 -28 -12 -41 -13 -61
-3 -42 19 -28 50 28 62 15 3 38 8 52 11 14 3 25 12 25 21 0 14 3 14 16 3 13
-10 17 -10 24 0z m385 -52 c17 -7 31 -18 33 -24 3 -19 -117 -17 -142 2 -17 13
-16 14 15 24 44 12 58 12 94 -2z m-790 -66 c-3 -6 -11 -11 -17 -11 -6 0 -6 6
2 15 14 17 26 13 15 -4z m258 -71 c-7 -27 -69 -39 -91 -17 -13 14 -13 17 -1
21 8 2 21 7 29 9 8 3 27 6 42 6 21 1 25 -3 21 -19z m-1278 -141 c4 -6 -2 -20
-12 -32 -11 -12 -20 -33 -21 -46 -1 -26 -22 -56 -22 -31 0 10 -5 9 -19 -4 -13
-11 -27 -15 -40 -11 -25 8 -27 21 -5 29 14 5 12 10 -10 31 -15 14 -31 25 -37
25 -5 0 -9 4 -9 9 0 12 34 23 95 31 28 4 55 7 62 8 6 1 15 -3 18 -9z m1253
-15 c18 -8 34 -19 37 -24 8 -13 -5 -40 -19 -40 -7 0 -18 -11 -24 -25 -17 -37
-54 -20 -64 29 -4 21 -13 46 -18 57 -10 17 -7 19 23 19 19 0 48 -7 65 -16z
m-188 -8 c0 -10 -16 -17 -47 -21 -27 -3 -60 -9 -75 -11 -16 -3 -28 -1 -28 5 0
6 12 13 28 17 15 3 41 10 57 14 46 13 65 11 65 -4z m-160 -26 c0 -5 -12 -10
-27 -10 -22 0 -25 2 -13 10 20 13 40 13 40 0z m-126 -15 c-4 -8 -18 -18 -33
-21 -14 -4 -30 -10 -36 -14 -5 -4 -20 -10 -33 -13 l-23 -5 24 23 c39 40 113
61 101 30z m221 -75 l28 -11 -22 -23 c-19 -20 -21 -28 -12 -45 7 -12 8 -22 4
-22 -4 -1 -15 -2 -23 -3 -8 0 -16 -13 -18 -28 -4 -34 -22 -36 -49 -5 -33 37
-36 47 -17 62 18 13 16 15 -19 30 -21 8 -42 13 -47 10 -6 -4 -10 1 -10 10 0 9
18 24 41 34 42 19 76 17 144 -9z m-189 -75 c6 -2 11 -19 12 -39 1 -30 -2 -36
-19 -36 -11 0 -29 5 -40 11 -11 6 -49 11 -85 11 -35 0 -64 2 -64 5 0 2 8 12
17 21 31 31 120 45 179 27z m244 -94 c15 -29 12 -107 -4 -120 -28 -23 -47 53
-30 117 8 27 20 28 34 3z m-465 -69 c11 -6 32 -13 48 -17 37 -8 34 -25 -11
-54 -20 -14 -31 -26 -24 -29 6 -2 12 -17 12 -33 0 -27 -2 -29 -41 -29 -32 0
-42 -4 -46 -20 -5 -20 -23 -28 -23 -10 0 6 -16 10 -35 10 -41 0 -72 24 -77 60
-2 14 -13 29 -25 35 -31 13 -29 29 1 21 18 -4 28 -1 36 11 8 13 13 14 16 6 6
-15 84 -18 84 -4 0 12 -45 22 -64 15 -13 -5 -16 1 -16 26 l0 33 73 -5 c39 -3
81 -10 92 -16z m-185 -222 c26 -22 53 -40 59 -40 6 0 11 -3 11 -8 0 -4 10 -18
23 -32 36 -41 55 -75 78 -142 11 -35 28 -78 36 -96 17 -38 11 -93 -11 -111
-11 -10 -17 -3 -32 34 -15 41 -47 80 -96 121 -28 24 -58 69 -58 89 0 12 -10
30 -23 41 -57 48 -54 47 -107 34 -41 -10 -50 -16 -50 -33 0 -32 55 -135 94
-177 47 -51 69 -88 62 -105 -8 -23 -62 -18 -92 8 -14 12 -38 25 -53 28 -24 5
-28 3 -24 -12 3 -11 20 -28 38 -39 47 -29 68 -65 61 -104 -18 -86 -18 -86 -41
-86 -12 0 -35 12 -51 27 -16 15 -49 42 -74 61 -62 47 -100 90 -100 113 0 10 4
19 9 19 16 0 31 -27 25 -44 -5 -12 0 -16 20 -16 34 0 41 19 22 64 -17 41 -39
54 -61 36 -9 -7 -19 -9 -23 -5 -4 4 -1 10 6 12 6 3 12 11 12 18 0 33 86 182
113 193 4 2 7 10 7 18 0 8 7 14 15 14 23 0 68 51 56 63 -19 19 -12 45 22 71
44 36 71 33 127 -14z m647 -836 c8 -21 -27 -50 -38 -32 -9 14 7 48 22 48 5 0
12 -7 16 -16z m-104 -71 c9 -9 -22 -43 -40 -43 -17 0 -17 37 0 43 18 8 33 8
40 0z m-26 -112 c23 -16 39 -48 30 -58 -10 -9 -92 52 -95 71 -3 15 0 17 20 11
12 -5 33 -15 45 -24z m3321 -22 c20 -7 29 -15 25 -25 -3 -8 1 -14 10 -14 19 0
71 -48 102 -94 21 -31 110 -211 135 -271 4 -11 17 -41 29 -67 12 -26 21 -50
21 -52 0 -3 14 -36 31 -73 17 -37 38 -86 48 -108 10 -22 34 -74 55 -116 20
-42 36 -79 36 -82 0 -8 86 -192 122 -262 9 -16 44 -88 79 -160 35 -71 78 -152
95 -180 17 -27 38 -66 48 -85 27 -55 43 -81 55 -93 6 -6 11 -18 11 -27 0 -17
54 -127 75 -150 12 -14 45 -83 50 -105 2 -6 12 -31 23 -55 44 -99 62 -143 62
-150 0 -14 -99 18 -174 56 -83 41 -151 91 -392 284 -172 138 -202 160 -328
241 -178 115 -436 226 -726 313 -47 14 -98 35 -115 46 -57 40 -160 88 -211 98
-28 6 -92 32 -143 57 -74 37 -90 49 -81 60 8 10 8 14 -2 18 -9 4 -5 13 15 31
29 27 34 42 15 49 -7 2 2 11 20 21 17 9 32 24 32 34 1 21 23 52 38 52 7 0 14
11 18 24 3 14 14 32 25 42 10 9 19 28 19 41 0 12 5 23 10 23 6 0 10 6 10 13 0
8 11 19 25 25 14 7 27 23 30 39 9 43 20 58 44 61 22 3 30 22 9 22 -6 0 -4 7 5
18 10 10 14 22 11 25 -4 4 5 11 19 16 28 11 103 88 99 102 -1 5 4 9 12 9 8 0
28 16 45 35 17 19 36 35 43 35 7 0 22 18 32 40 11 22 21 38 23 36 3 -2 20 13
40 35 19 21 39 37 43 34 4 -3 19 7 32 20 14 14 39 30 57 36 17 6 31 15 31 20
0 5 8 9 19 9 10 0 31 10 46 21 45 36 134 49 193 28z m-3698 -44 c0 -48 -40
-110 -81 -124 -34 -12 -53 -6 -29 9 8 5 15 15 16 22 2 29 38 99 57 113 31 22
37 19 37 -20z m486 -49 c33 -24 105 -39 179 -38 81 2 110 -9 76 -28 -27 -14
-125 -40 -152 -40 -32 0 -139 78 -139 100 0 24 8 25 36 6z m1005 -833 c25 -32
38 -60 44 -99 17 -108 17 -102 -7 -101 -13 1 -35 -2 -49 -6 -25 -6 -25 -5 -38
67 -12 64 -9 123 6 149 7 13 29 8 44 -10z m-2871 -62 c0 -6 -4 -13 -10 -16 -5
-3 -10 1 -10 9 0 9 5 16 10 16 6 0 10 -4 10 -9z m7483 -188 c-3 -72 -9 -115
-19 -130 -7 -12 -14 -29 -14 -37 0 -22 -30 -34 -72 -29 -32 4 -38 9 -38 29 0
13 5 24 10 24 6 0 10 20 10 45 0 34 -5 47 -20 55 -24 13 -26 30 -5 30 9 0 29
27 46 63 34 69 64 92 90 70 12 -10 14 -32 12 -120z m-4398 31 c21 -32 7 -52
-22 -33 -13 8 -18 19 -15 35 6 31 16 30 37 -2z m258 -117 c5 -34 4 -36 -14
-27 -14 8 -19 21 -19 52 0 36 2 40 14 28 7 -8 16 -32 19 -53z m267 -64 c0 -15
-6 -23 -16 -23 -11 0 -15 6 -11 20 3 11 1 18 -4 14 -11 -6 -12 7 -2 32 6 16 7
16 20 -2 7 -10 13 -28 13 -41z m-4430 -207 c0 -9 -8 -12 -25 -8 -14 2 -25 8
-25 13 0 5 11 9 25 9 14 0 25 -6 25 -14z m4288 4 c6 0 12 -9 12 -20 0 -22 -6
-28 -70 -70 -60 -39 -70 -38 -70 8 1 58 43 96 95 86 11 -2 26 -4 33 -4z m498
-319 c-9 -10 -16 -25 -16 -34 0 -19 -20 -34 -21 -15 -3 30 4 55 24 92 l22 39
3 -33 c2 -19 -3 -39 -12 -49z m-866 -16 c0 -8 -4 -15 -10 -15 -5 0 -10 7 -10
15 0 8 5 15 10 15 6 0 10 -7 10 -15z m423 -4 c17 -6 17 -8 -3 -26 -30 -27
-180 -36 -180 -11 0 13 4 14 23 5 19 -9 33 -6 73 14 55 27 61 29 87 18z m-315
-16 c12 -12 -10 -17 -43 -11 -21 4 -33 11 -29 18 6 9 61 4 72 -7z m702 -50 c0
-9 -7 -18 -15 -21 -8 -4 -15 -16 -15 -28 0 -45 -98 -104 -149 -90 -14 4 -34 8
-44 9 -10 1 -26 10 -35 19 -16 16 -16 18 7 37 14 11 38 19 62 19 38 0 107 22
119 38 5 8 50 30 63 31 4 1 7 -6 7 -14z m-978 -74 c35 -16 81 -35 103 -42 22
-7 52 -25 66 -41 15 -15 34 -28 42 -28 9 0 19 -5 23 -11 5 -8 8 -8 13 0 13 20
80 -40 81 -70 0 -23 5 -27 38 -31 20 -3 38 -1 40 3 2 4 25 -5 51 -22 27 -16
62 -29 80 -29 17 0 31 -4 31 -10 0 -5 20 -10 44 -10 31 0 46 -5 50 -16 4 -10
13 -13 26 -9 16 5 20 2 20 -14 0 -17 -6 -21 -30 -21 -16 0 -30 -4 -30 -9 0 -5
-17 -12 -38 -16 -56 -9 -69 -19 -49 -39 8 -9 25 -16 36 -16 26 0 34 -31 35
-129 1 -78 3 -76 -59 -101 -16 -7 -38 -16 -47 -21 -10 -5 -22 -9 -28 -9 -17 0
-70 -43 -70 -56 0 -7 -6 -14 -12 -16 -16 -6 -45 74 -51 139 -3 26 -8 56 -12
66 -7 16 -4 17 21 11 16 -4 36 -16 45 -26 16 -17 18 -17 33 -2 15 15 14 20
-12 67 -69 126 -72 133 -72 149 0 7 -36 47 -80 88 -44 41 -80 82 -80 92 0 9
-9 22 -20 28 -11 6 -20 8 -20 4 0 -3 -18 10 -40 30 -22 20 -45 36 -50 36 -6 0
-36 20 -68 45 -31 25 -62 45 -69 45 -6 0 -15 5 -18 10 -10 17 10 12 77 -19z
m-37 -161 c-9 -14 -79 11 -97 33 -15 19 -18 20 -18 5 0 -10 -4 -18 -10 -18
-13 0 -13 37 -1 45 5 3 12 1 16 -5 3 -5 13 -10 22 -10 11 0 14 7 9 28 -6 24
-2 22 39 -22 24 -27 42 -52 40 -56z m4225 12 c0 -32 4 -39 30 -50 17 -8 30
-21 30 -29 0 -9 8 -22 18 -29 15 -12 15 -13 0 -14 -9 0 -18 6 -21 13 -3 9 -7
9 -20 -1 -9 -7 -31 -12 -49 -10 l-33 4 28 12 c32 14 34 22 6 45 -12 11 -18 25
-15 33 3 9 6 27 6 40 0 13 5 24 10 24 6 0 10 -17 10 -38z m90 -2 c0 -29 -4
-40 -15 -40 -11 0 -15 11 -15 40 0 29 4 40 15 40 11 0 15 -11 15 -40z m-7930
-194 c0 -3 -4 -8 -10 -11 -5 -3 -10 -1 -10 4 0 6 5 11 10 11 6 0 10 -2 10 -4z
m7890 -21 c-7 -8 -20 -15 -30 -15 -10 0 -23 7 -30 15 -11 13 -7 15 30 15 37 0
41 -2 30 -15z m-5775 -5 c-3 -5 -11 -10 -16 -10 -6 0 -7 5 -4 10 3 6 11 10 16
10 6 0 7 -4 4 -10z m5773 -42 c18 -18 16 -98 -3 -98 -11 0 -15 -11 -15 -40 0
-29 4 -40 15 -40 11 0 15 -11 15 -40 l0 -40 -40 0 c-29 0 -40 -4 -40 -15 0 -8
-4 -15 -10 -15 -5 0 -10 9 -10 20 0 11 5 20 10 20 6 0 10 14 10 30 0 17 -5 30
-13 30 -8 0 -11 14 -9 45 3 36 1 45 -12 45 -9 0 -16 5 -16 10 0 14 23 13 38
-2 19 -19 15 32 -5 54 -14 16 -14 18 -1 18 9 0 21 7 28 15 15 18 42 19 58 3z
m492 -97 c0 -11 -5 -21 -11 -23 -16 -5 -1 -104 18 -123 8 -8 10 -15 5 -15 -11
0 -5 -46 10 -77 6 -12 15 -20 20 -17 4 3 8 -1 8 -9 0 -20 30 -45 30 -26 1 25
26 48 59 54 27 5 34 2 38 -15 3 -11 12 -20 20 -20 8 0 11 -5 8 -11 -4 -6 2
-17 14 -25 12 -8 21 -20 21 -26 0 -6 24 -34 53 -63 29 -29 62 -72 72 -96 11
-24 22 -46 26 -49 4 -3 14 -21 23 -40 9 -19 24 -48 33 -64 8 -16 16 -40 16
-52 0 -13 3 -24 8 -24 4 0 7 -20 6 -45 -2 -55 -18 -58 -71 -16 -20 16 -50 33
-67 36 -16 4 -29 10 -29 13 0 7 -56 35 -76 38 -6 1 -28 13 -50 26 -21 14 -52
28 -69 31 -152 32 -182 40 -198 58 -10 10 -13 19 -7 19 5 0 10 4 10 8 0 4 -15
8 -34 9 -40 1 -80 24 -122 72 -27 29 -32 43 -33 90 0 30 -6 58 -12 62 -13 8
-16 115 -5 172 7 39 40 63 70 51 8 -3 17 -1 21 5 3 6 1 11 -6 11 -21 0 10 27
39 35 32 8 62 33 62 52 0 9 15 13 50 13 43 0 50 -3 50 -19z m-4480 -197 c0 -8
-4 -12 -10 -9 -5 3 -10 10 -10 16 0 5 5 9 10 9 6 0 10 -7 10 -16z m4000 -46
l0 -43 -15 29 c-16 30 -14 56 5 56 5 0 10 -19 10 -42z m-4610 -15 c0 -59 12
-68 43 -36 45 48 57 56 57 38 0 -26 -57 -138 -89 -175 l-30 -35 6 53 c4 36 2
52 -6 52 -6 0 -11 -9 -11 -20 0 -15 -7 -20 -25 -20 -14 0 -33 -5 -43 -11 -14
-9 -27 -7 -60 10 -23 12 -42 17 -42 11 0 -5 -7 -10 -15 -10 -17 0 -19 27 -6
63 8 20 6 23 -10 22 -10 -1 -25 -10 -33 -20 -13 -18 -14 -18 -26 5 -11 20 -10
22 4 17 9 -4 16 -2 16 3 0 5 7 18 15 27 8 10 21 27 29 38 18 25 35 11 18 -15
-15 -24 -15 -40 -1 -40 13 0 33 20 42 43 6 16 27 21 74 18 11 -1 24 3 28 8 3
6 19 11 36 11 27 0 29 -3 29 -37z m-365 7 c-3 -5 -13 -10 -21 -10 -8 0 -14 -7
-14 -16 0 -8 -4 -12 -10 -9 -5 3 -10 15 -10 26 0 15 7 19 31 19 17 0 28 -4 24
-10z m495 -114 c-5 -13 -6 -27 -3 -30 4 -3 -1 -6 -10 -6 -8 0 -18 -8 -20 -17
-4 -16 -5 -16 -6 -1 0 9 6 23 14 32 8 8 15 22 15 30 0 9 4 16 10 16 6 0 6 -9
0 -24z m145 -38 c-4 -23 -16 -55 -27 -72 l-20 -31 5 36 c6 39 33 109 42 109 4
0 4 -19 0 -42z m36 -124 c-12 -21 -21 -33 -21 -26 0 7 4 20 9 30 6 9 13 31 17
47 7 26 8 27 11 9 2 -12 -5 -39 -16 -60z m-81 6 c0 -5 -5 -10 -11 -10 -5 0 -7
5 -4 10 3 6 8 10 11 10 2 0 4 -4 4 -10z m-2990 -510 c0 -22 -19 -31 -51 -22
-19 6 -29 11 -23 11 6 1 17 15 24 32 l13 31 18 -23 c10 -13 19 -26 19 -29z
m114 1 c3 -5 0 -11 -8 -14 -15 -6 -26 1 -26 15 0 11 27 10 34 -1z m660 -187
c6 -16 8 -16 24 0 24 21 50 21 48 0 0 -9 8 -21 19 -28 10 -6 25 -17 33 -23 7
-7 18 -13 23 -13 14 0 11 -80 -3 -80 -7 0 -4 -6 6 -12 18 -10 18 -11 -4 -28
l-23 -18 21 -6 c12 -4 22 -14 22 -22 0 -8 12 -27 28 -41 18 -17 23 -27 15 -30
-7 -3 -13 -8 -13 -13 0 -11 59 -70 70 -70 5 0 10 -3 12 -7 2 -5 20 -16 41 -25
20 -10 37 -24 37 -33 0 -12 12 -15 54 -15 35 0 58 -5 66 -15 7 -8 19 -15 26
-15 8 0 14 -5 14 -11 0 -7 14 -8 40 -4 22 4 40 3 40 -2 0 -4 9 -14 21 -21 15
-10 24 -10 34 -2 11 9 24 1 59 -36 25 -26 46 -53 46 -59 0 -7 18 -20 40 -29
37 -15 40 -19 40 -54 0 -39 25 -129 41 -146 5 -6 9 -35 9 -66 0 -34 6 -64 16
-78 14 -20 14 -22 -5 -22 -15 0 -21 -9 -26 -40 -4 -25 -12 -40 -21 -40 -8 0
-14 -9 -14 -20 0 -26 -30 -55 -65 -64 -20 -5 -26 -12 -22 -25 5 -22 -10 -43
-45 -58 -22 -10 -28 -19 -28 -43 0 -17 -7 -42 -16 -55 -9 -14 -14 -32 -10 -40
3 -8 1 -15 -3 -15 -5 0 -12 -18 -16 -39 -3 -22 -13 -47 -20 -58 -8 -10 -15
-37 -15 -60 0 -24 -4 -43 -8 -43 -13 0 -42 -68 -42 -100 0 -38 -9 -60 -25 -60
-8 0 -17 -9 -20 -20 -3 -11 -13 -20 -21 -20 -8 0 -14 -8 -14 -18 0 -23 -19
-42 -43 -42 -12 0 -17 -5 -14 -14 6 -15 -22 -46 -41 -46 -7 0 -12 -4 -12 -9 0
-5 -13 -11 -29 -14 -16 -4 -38 -15 -48 -25 -10 -10 -33 -24 -50 -31 -18 -8
-33 -19 -33 -26 0 -6 -18 -18 -40 -25 -22 -7 -40 -17 -40 -21 0 -4 -18 -10
-40 -14 -23 -4 -40 -12 -40 -20 0 -7 -15 -15 -32 -18 -64 -10 -128 -30 -128
-40 0 -5 -6 -7 -14 -4 -14 5 -80 -13 -92 -26 -4 -4 -18 -7 -31 -7 -13 0 -23
-4 -23 -9 0 -15 -39 -19 -51 -5 -18 22 -38 17 -45 -11 -6 -26 -18 -32 -29 -15
-5 8 -11 8 -20 0 -10 -8 -22 -7 -47 2 -24 10 -59 12 -133 7 -96 -6 -170 1
-204 21 -14 8 -14 9 -1 10 29 1 -29 38 -70 45 -25 4 -40 12 -40 21 0 8 -4 14
-9 14 -5 0 -22 19 -38 43 -16 24 -33 42 -39 40 -6 -2 -21 20 -34 48 -14 28
-35 58 -48 67 -13 8 -33 35 -44 58 -11 24 -29 46 -40 50 -13 4 -16 9 -10 13 7
4 -1 14 -21 26 -17 10 -45 33 -62 50 -30 30 -55 45 -107 64 -16 6 -28 6 -30 1
-2 -6 -16 -3 -32 5 -15 8 -41 15 -56 15 -15 0 -33 7 -40 16 -10 11 -23 14 -51
9 -22 -4 -40 -2 -44 4 -3 6 -11 9 -16 6 -11 -7 -33 43 -30 65 2 8 8 21 14 28
9 11 12 11 18 -5 6 -14 8 -13 8 10 1 17 6 27 16 27 12 0 13 4 6 19 -6 10 -8
21 -5 24 3 3 7 45 9 95 3 57 11 108 25 143 24 65 24 65 5 49 -9 -7 -19 -10
-23 -6 -4 4 4 16 18 26 21 16 22 20 11 34 -13 15 -16 15 -37 -5 -27 -25 -45
-19 -20 7 25 25 14 39 -27 36 -28 -3 -37 0 -37 12 0 8 5 18 10 21 6 3 10 10
10 16 0 10 -40 -10 -52 -25 -3 -6 -24 -3 -50 7 -23 9 -76 19 -115 23 -40 4
-73 11 -73 15 0 5 -18 9 -40 9 -22 0 -40 -4 -40 -9 0 -6 -12 -6 -31 -1 -18 5
-36 7 -40 4 -5 -3 -9 2 -9 11 0 9 4 13 10 10 5 -3 19 10 31 29 12 20 25 33 30
30 5 -3 9 2 9 10 0 9 4 16 10 16 5 0 25 15 44 33 19 17 65 57 101 87 36 30 83
71 104 90 21 19 60 46 87 59 72 36 153 90 258 171 11 8 47 40 81 70 126 113
189 165 214 177 38 18 342 90 451 107 52 8 115 20 140 26 25 6 63 13 85 16 22
3 61 13 87 22 46 15 77 10 48 -8 -25 -16 23 -12 75 5 25 9 50 13 56 9 6 -3 19
2 29 11 13 11 28 15 47 11 18 -4 40 0 63 13 45 24 56 25 64 5z m3035 -719 c19
-5 56 -2 86 5 49 12 57 11 99 -9 56 -26 62 -26 120 0 42 18 59 20 154 14 120
-8 178 -19 189 -39 13 -21 36 -24 72 -10 65 27 203 14 244 -23 59 -51 84 -54
152 -17 52 27 88 27 142 -1 33 -18 88 -19 132 -4 28 10 36 8 71 -16 35 -24 47
-27 89 -22 40 5 59 1 96 -17 41 -21 87 -36 155 -50 14 -3 55 -29 92 -58 37
-29 106 -73 155 -97 107 -54 233 -130 233 -141 0 -5 9 -11 19 -15 11 -3 23
-15 26 -26 4 -10 10 -19 15 -19 17 0 183 -177 226 -240 45 -68 99 -133 172
-208 37 -39 51 -62 37 -62 -13 0 -212 83 -225 94 -8 7 -26 13 -39 14 -14 0
-29 8 -33 17 -5 8 -22 15 -38 15 -16 0 -31 4 -34 9 -7 11 -98 41 -126 41 -11
0 -31 7 -44 15 -13 8 -44 16 -69 17 -26 1 -47 5 -47 9 0 3 -12 6 -27 7 -41 2
-73 10 -87 22 -7 5 -33 12 -57 15 -24 3 -57 7 -74 9 -16 2 -52 8 -79 15 -26 6
-85 13 -130 15 -87 5 -188 13 -276 23 -30 4 -89 7 -130 8 -107 2 -240 13 -427
36 -191 24 -308 46 -453 87 -58 16 -123 33 -145 37 -22 5 -47 10 -55 12 -8 3
-53 11 -100 18 -140 22 -314 65 -350 86 -8 5 -26 15 -40 21 -14 7 -27 15 -30
19 -3 3 -13 8 -22 12 -10 3 -18 15 -18 26 0 10 -9 21 -20 24 -11 3 -20 14 -20
25 0 21 -26 79 -41 87 -15 10 -10 35 6 35 8 0 15 9 15 20 0 14 -5 18 -16 13
-14 -5 -15 -3 -5 15 7 12 17 22 22 22 7 0 9 10 5 24 -11 44 95 79 271 90 12 0
24 3 27 6 7 7 92 4 135 -5z m-5042 -311 c-3 -3 -12 -4 -19 -1 -8 3 -5 6 6 6
11 1 17 -2 13 -5z m1563 -1364 c0 -5 -2 -10 -4 -10 -3 0 -8 5 -11 10 -3 6 -1
10 4 10 6 0 11 -4 11 -10z"/>
<path d="M7728 18473 c6 -2 18 -2 25 0 6 3 1 5 -13 5 -14 0 -19 -2 -12 -5z"/>
<path d="M7608 18463 c7 -3 16 -2 19 1 4 3 -2 6 -13 5 -11 0 -14 -3 -6 -6z"/>
<path d="M7840 18460 c0 -5 6 -10 14 -10 8 0 18 5 21 10 3 6 -3 10 -14 10 -12
0 -21 -4 -21 -10z"/>
<path d="M10720 14121 c0 -11 14 -21 40 -28 35 -9 40 -8 40 6 0 11 -14 21 -40
28 -35 9 -40 8 -40 -6z"/>
<path d="M10946 14091 c-4 -7 -5 -15 -2 -18 9 -9 19 4 14 18 -4 11 -6 11 -12
0z"/>
<path d="M11075 13930 c3 -5 10 -10 16 -10 5 0 9 5 9 10 0 6 -7 10 -16 10 -8
0 -12 -4 -9 -10z"/>
<path d="M5360 10640 c0 -32 6 -36 30 -20 13 8 12 10 -4 10 -15 0 -16 3 -7 14
9 10 8 15 -4 20 -11 4 -15 -2 -15 -24z"/>
<path d="M5406 10661 c-3 -5 3 -11 14 -14 13 -3 20 0 20 9 0 15 -26 19 -34 5z"/>
<path d="M5520 10523 c1 -16 37 -51 68 -67 18 -9 34 -27 38 -41 3 -14 10 -25
15 -25 16 0 9 37 -11 55 -11 10 -18 20 -16 24 7 11 -17 36 -47 49 -32 14 -47
15 -47 5z"/>
<path d="M11945 6750 c3 -5 10 -10 16 -10 5 0 9 5 9 10 0 6 -7 10 -16 10 -8 0
-12 -4 -9 -10z"/>
<path d="M721 18774 c0 -11 3 -14 6 -6 3 7 2 16 -1 19 -3 4 -6 -2 -5 -13z"/>
<path d="M3600 8219 c0 -5 5 -7 10 -4 6 3 10 8 10 11 0 2 -4 4 -10 4 -5 0 -10
-5 -10 -11z"/>
<path d="M4070 7719 c0 -5 5 -7 10 -4 6 3 10 8 10 11 0 2 -4 4 -10 4 -5 0 -10
-5 -10 -11z"/>
<path d="M2012 7345 c-21 -9 -49 -12 -75 -9 -34 5 -48 2 -69 -16 -16 -12 -28
-26 -28 -31 0 -5 -17 -25 -38 -44 -49 -44 -77 -109 -56 -129 8 -8 14 -31 14
-50 0 -20 5 -54 12 -75 10 -33 16 -38 42 -39 17 -1 42 4 55 11 19 9 25 9 28 0
3 -9 26 -13 68 -13 35 0 67 -4 70 -10 3 -5 17 -10 30 -10 13 0 27 -5 30 -10 3
-6 17 -7 30 -4 24 6 68 -22 59 -38 -3 -4 3 -8 13 -9 10 0 13 -3 6 -5 -7 -3
-21 0 -32 6 -17 9 -20 8 -15 -5 4 -8 10 -15 15 -15 5 0 9 -9 9 -20 0 -16 7
-20 31 -20 23 0 30 4 26 14 -4 10 -1 13 9 9 18 -7 56 25 47 40 -4 6 3 8 18 4
21 -5 28 -1 44 30 11 20 21 48 22 62 4 52 12 82 26 104 8 13 16 47 18 77 4 55
4 55 -26 58 -16 2 -39 13 -50 26 -20 22 -21 23 -105 10 -47 -7 -91 -9 -100 -4
-9 5 -24 4 -35 -2 -14 -8 -20 -8 -23 0 -2 7 -12 12 -21 12 -10 0 -26 8 -35 19
-16 18 -16 21 3 55 12 20 20 36 18 36 -1 -1 -17 -7 -35 -15z m-15 -41 c-3 -3
-12 -4 -19 -1 -8 3 -5 6 6 6 11 1 17 -2 13 -5z"/>
<path d="M2013 6563 c-7 -2 -13 -11 -13 -18 0 -10 -7 -10 -37 0 -34 12 -39 11
-45 -4 -7 -19 -75 -41 -127 -41 -17 0 -31 -5 -31 -11 0 -8 -4 -8 -13 -1 -7 6
-40 14 -75 18 -57 6 -65 5 -87 -16 -14 -13 -31 -20 -39 -17 -9 4 -42 -9 -75
-28 -33 -19 -66 -35 -75 -35 -9 0 -16 -4 -16 -10 0 -5 -6 -10 -13 -10 -24 0
-99 -60 -93 -75 2 -7 -2 -19 -9 -25 -8 -7 -12 -16 -9 -21 3 -5 -10 -16 -28
-24 -18 -8 -27 -14 -20 -15 13 0 17 -40 4 -40 -5 0 -23 -28 -39 -62 -23 -48
-30 -75 -29 -112 3 -52 21 -72 38 -42 6 11 22 16 49 16 26 0 42 5 45 15 4 8
10 15 15 15 6 0 22 8 36 17 15 10 31 18 37 18 20 2 51 18 62 34 6 8 18 12 28
8 11 -4 24 2 37 17 12 14 28 22 39 19 10 -3 21 0 24 6 4 6 20 11 37 11 16 0
29 5 29 10 0 14 33 13 48 -2 8 -8 12 -8 12 -1 0 6 12 13 28 16 57 10 168 39
185 48 13 7 19 5 23 -6 6 -14 9 -14 31 0 13 9 32 15 42 13 10 -2 26 3 35 11
15 12 27 13 74 3 34 -7 58 -8 62 -2 3 5 24 12 46 15 30 5 43 3 53 -9 15 -18
42 -21 57 -6 6 6 20 6 40 -2 26 -9 34 -8 52 8 26 22 28 34 7 34 -8 0 -15 -4
-15 -10 0 -22 -21 -8 -37 25 -17 35 -27 40 -71 36 -17 -1 -25 4 -29 19 -3 11
-17 27 -32 36 -23 13 -23 14 -3 9 21 -6 21 -5 10 19 -8 19 -8 32 -1 49 18 37
23 56 17 72 -5 13 -8 13 -21 0 -19 -19 -32 -19 -39 0 -7 18 -30 20 -37 3 -4
-10 -6 -10 -6 0 -1 6 -12 12 -26 12 -14 0 -25 5 -25 10 0 6 -7 10 -16 10 -8 0
-12 -4 -9 -10 3 -5 -3 -10 -14 -10 -12 0 -21 5 -21 10 0 11 -7 12 -27 3z"/>
<path d="M2707 6375 c-9 -8 -18 -29 -22 -46 -4 -19 -15 -33 -26 -36 -10 -3
-19 -9 -19 -14 0 -5 -3 -8 -7 -7 -5 1 -22 -2 -40 -6 -21 -5 -33 -15 -37 -32
-6 -24 -30 -32 -41 -14 -3 6 -17 10 -31 10 -15 0 -24 6 -24 15 0 8 -4 15 -9
15 -14 0 -25 -21 -15 -29 15 -10 33 -48 27 -55 -3 -3 -12 -1 -19 5 -18 15 -33
3 -27 -21 4 -16 0 -20 -17 -20 -20 0 -45 -17 -122 -85 -16 -14 -28 -34 -28
-45 0 -12 -4 -18 -10 -15 -16 10 -11 -3 11 -29 12 -13 32 -27 45 -30 13 -4 24
-11 24 -16 0 -5 26 -7 58 -5 39 3 52 2 42 -5 -12 -8 -11 -10 5 -10 12 0 26 5
32 11 7 7 32 13 57 16 24 2 57 10 73 18 15 8 34 15 41 15 6 0 12 9 12 19 0 10
7 21 15 25 8 3 15 14 15 25 0 10 6 21 13 24 8 3 14 25 16 53 1 27 6 53 11 58
6 6 4 17 -6 28 -15 16 -15 18 0 24 12 5 14 9 6 14 -8 5 -5 18 10 45 15 27 18
41 11 48 -19 19 -12 27 29 33 l40 7 -26 13 c-34 18 -49 18 -67 -1z"/>
<path d="M4190 6230 c0 -15 8 -30 20 -38 27 -17 27 7 0 39 l-19 24 -1 -25z"/>
<path d="M3890 6080 c0 -5 5 -10 10 -10 6 0 10 5 10 10 0 6 -4 10 -10 10 -5 0
-10 -4 -10 -10z"/>
<path d="M1972 5834 c10 -3 15 -11 11 -20 -3 -7 -10 -11 -17 -7 -15 10 -126
11 -126 2 0 -4 -19 -10 -42 -14 -58 -10 -75 -20 -82 -51 -8 -32 10 -57 36 -50
11 2 22 -2 25 -10 4 -12 8 -12 20 -2 12 10 17 9 27 -3 9 -11 28 -13 96 -9 98
7 120 15 120 41 0 12 7 19 20 19 17 0 20 7 20 40 0 32 -4 40 -18 40 -10 0 -23
5 -29 11 -6 6 -26 12 -44 14 -19 2 -26 1 -17 -1z"/>
<path d="M2265 5820 c-4 -6 -15 -10 -25 -7 -25 6 -60 -19 -60 -44 0 -10 5 -19
10 -19 6 0 21 -12 34 -27 22 -26 24 -26 62 -11 22 9 55 13 77 10 34 -4 41 0
77 39 22 24 40 47 40 51 0 4 -17 4 -37 0 -21 -4 -56 -7 -78 -7 -22 0 -43 -4
-48 -10 -4 -6 -14 -1 -26 14 -13 17 -20 20 -26 11z"/>
<path d="M2520 5789 c0 -17 62 -38 95 -32 13 3 26 11 29 19 4 10 -4 14 -28 14
-18 0 -48 3 -65 6 -23 5 -31 3 -31 -7z"/>
<path d="M999 5685 c-4 -14 -6 -22 -14 -38 -12 -28 12 -47 30 -24 7 11 11 25
8 33 -3 8 -1 14 5 14 6 0 12 -5 14 -12 3 -7 10 -8 17 -3 10 5 4 12 -19 21 -36
15 -39 16 -41 9z"/>
<path d="M1040 5600 c0 -5 7 -10 16 -10 8 0 12 5 9 10 -3 6 -10 10 -16 10 -5
0 -9 -4 -9 -10z"/>
<path d="M12560 4260 c0 -5 5 -10 11 -10 5 0 7 5 4 10 -3 6 -8 10 -11 10 -2 0
-4 -4 -4 -10z"/>
<path d="M12600 4221 c0 -18 18 -21 30 -6 10 13 9 15 -9 15 -11 0 -21 -4 -21
-9z"/>
<path d="M4375 3440 c-4 -6 5 -10 20 -10 15 0 24 4 20 10 -3 6 -12 10 -20 10
-8 0 -17 -4 -20 -10z"/>
<path d="M4465 3440 c-3 -5 -1 -10 4 -10 6 0 11 5 11 10 0 6 -2 10 -4 10 -3 0
-8 -4 -11 -10z"/>
<path d="M6270 3305 c0 -10 10 -15 28 -15 26 1 26 1 8 15 -25 19 -36 19 -36 0z"/>
</g>
</svg>
